<?xml version="1.0" encoding="utf-8"?>
<!-- Generator: Adobe Illustrator 25.2.1, SVG Export Plug-In . SVG Version: 6.00 Build 0)  -->
<svg version="1.1" id="レイヤー_1" xmlns="http://www.w3.org/2000/svg" xmlns:xlink="http://www.w3.org/1999/xlink" x="0px"
	 y="0px" viewBox="0 0 62.5 165.5" style="enable-background:new 0 0 62.5 165.5;" xml:space="preserve">
<style type="text/css">
	.st0{enable-background:new    ;}
	.st1{fill:#FFFFFF;}
</style>
<g class="st0">
	<path class="st1" d="M40.8,5.7l0.4,0.1c0.2,0,0.4,0.1,0.6,0.1l0.1,0l0.1,0l0,0.1c0.4,0.1,0.8,0.3,1.3,0.5h0.1l0.1,0l0.1,0l0.1,0
		l0.1,0h0l0.1,0.1l0.1,0.1l0.2,0.1c0,0,0,0,0.1,0c0,0,0.1,0.1,0.1,0.1l0.3,0.2l0,0.1l-0.1,0l-0.1-0.1L44.2,7l-1.8-0.6h-0.1l-0.1-0.1
		c-0.1,0-0.2-0.1-0.2-0.1h0l0,0c0,0-0.1,0-0.1,0h0l-0.1,0h-0.1l0,0L41.2,6c-0.4-0.1-0.9-0.2-1.3-0.2l-0.1,0h-0.2l-0.1,0l-0.1,0
		l-0.3-0.1c-0.3-0.1-0.7-0.1-1-0.1l0,0.1l-0.1,0l0,0l-1.2-0.1l-0.4,0.1h-0.1l-0.7-0.1h-0.1v0h-0.2l-0.3,0h0l-0.1,0l-0.4,0
		c-0.1,0-0.3,0-0.4,0h-0.1c-0.1,0-0.1,0-0.2,0h-0.4l0,0l-0.2,0l0,0c-0.1,0-0.3,0-0.4,0l0,0l-0.1-0.1l-0.1,0l-0.1,0.1l-0.1,0l0,0h0
		l-0.1,0h-0.2l-0.1,0l-0.2-0.1l-0.1,0h0l0,0.1l-0.2,0l-0.3,0l-0.2,0l-0.1-0.1l-0.2-0.1h-0.5l-0.1,0l-0.1,0h-1.4l-0.3,0h-0.1l-0.2,0
		h-0.3l-0.2,0l-0.2,0l-0.1,0l-0.2-0.1c-0.1,0-0.2,0-0.4,0l-0.1,0l-0.2,0l-0.1,0l-0.1,0h-0.2l-0.1,0l-0.1-0.1h-0.1l-0.5,0
		c-0.1,0-0.1,0-0.2,0l-0.2,0l-0.3,0.1h-0.3l-0.7,0.1l-0.2,0.1l-0.3,0l-0.1,0h-0.1c-0.1,0-0.1,0-0.2,0l-0.1,0l-0.2,0L22,5.9l-0.4,0
		l-0.3,0.1l0,0l-0.1,0l-0.5,0.1h0l-0.2,0l-0.4,0.1l-0.3,0h-0.1l-0.3,0.1l0,0L19,6.4l-0.1,0v0c0,0,0,0,0,0l-0.1,0l-0.2,0v0h0
		l-0.2,0.1l-0.1,0l-0.1,0h-0.1l-0.1,0l-0.3,0l-0.1,0l-0.1,0l-0.1,0l-0.3,0l-0.3,0.1l-0.1,0l-0.1,0l0,0h0l-0.2,0l-0.1-0.1l-0.9,0.2
		c-0.4,0.1-0.7,0.3-1.1,0.4l0,0l-0.1,0.1h-0.1l0,0l-0.2,0l-0.4,0.1l-0.2,0l-0.6,0.2c-0.4,0.1-0.7,0.3-1.1,0.5
		c-0.4,0.2-0.7,0.4-1.1,0.6h0C10.2,9,10,9.3,9.8,9.4c-0.1,0-0.1,0-0.2,0L9.6,9.5l0,0.2l0,0.1l-0.1,0L9.3,9.8l-0.2,0l-0.1,0l0,0
		l-0.6,0.5l-0.3-0.1v-0.1l0-0.1l0-0.1c0,0,0-0.1,0-0.1V9.8l0-0.2h0l0.2-0.2H8.4V9.3l0.1-0.1L8.7,9l0.2-0.1h0.1l0,0L9,8.7l0.1-0.1
		l0-0.1l0.1,0l0.2-0.1l0,0l0.1,0l0.1-0.1l0.1,0.1l0.1,0l0.1-0.1l0.2,0l0.1-0.1l0.1-0.1l0.1-0.1L10.6,8L11,8c0.1,0,0.1-0.1,0.2-0.1
		l0.2-0.1l0.3-0.1l0.4-0.1l0.2-0.1h0.1l0.5-0.1l0.1-0.1l0.2,0l0,0l0.1-0.1l0.2-0.1L13.8,7h0v0h0.1L14,6.9v0h0v0l0.2,0l0,0h0.1l0.1,0
		l0.1,0h0.1l0.1,0h0.1L15,6.7l0.1,0l0.2-0.1l0.2,0l0.3,0c0.6-0.1,1-0.2,1.4-0.3l0.3-0.1l0.1,0l1-0.2l0.3,0l0.1,0l1-0.2l0.3,0l0.2,0
		v0l0.1,0l0.5-0.1l0.5-0.1l0.2,0l0.3,0l0.4,0l0.2,0l0.2-0.1l0.8,0h0.1c0.1,0,0.2,0,0.4,0l0.3-0.1l0-0.1l0.1,0l0.1,0.1
		c0.1,0,0.1,0,0.2,0l0.1,0l0.3-0.1l0.1,0h0.2l0.1,0l1.2-0.1l0.1,0L27,5l0.1,0l0.3,0c0.1,0,0.1,0,0.1,0h0L29,4.9l0.1,0h0.1l0.2,0h0.1
		l0.1-0.1h0.1L30,4.9h0.2l0.1,0h0.6l0,0l0.2,0l0.3,0l0.2,0l0.3,0.1h0.8l0.1,0l0,0l0,0v0h0.1v0l0.8,0l0.1-0.1l0.2,0l0.3,0.1l0.3-0.1
		h0.1l0.2,0l0.2,0l0.1,0h0.1l0.4,0.1c0.1,0,0.3,0,0.4,0l0.1,0l0,0l0.1,0.1l0.8,0.1l0.9,0.1l0.1,0l0.1,0l0.1,0l0.3,0.1h0.2l0,0l0.1,0
		l0.3,0h0.1l0.1,0.1L40,5.6l0.1,0l0.1,0l0.2,0.1L40.8,5.7L40.8,5.7z M16.3,20.1L16.3,20.1l-0.1,0.2l0,0.1l-0.1,0.1L16,20.6L15.8,21
		l-0.2,0.4l-0.2,0.3l-0.1,0l-0.2,0.3l0,0h0c-0.1,0.1-0.1,0.3-0.2,0.4l0,0.1l-0.3,0.7l0,0l0,0l-0.1,0.2l0,0.1L14,24.7l-0.1,0.1l0,0
		c-0.1,0.1-0.1,0.2-0.1,0.3c0,0-0.1,0.1-0.1,0.1l0,0.1l0,0.1l0,0l-0.1-0.1l0-0.1l0.1-0.1h0l0.2-0.7l0.3-0.6h0l0-0.1v0l0.1-0.2
		c0.1-0.1,0.1-0.1,0.2-0.1c0.3-0.8,0.6-1.6,1-2.3l0.3-0.6l0.1-0.1c0.1-0.2,0.2-0.3,0.3-0.5l0.2-0.4l0.1-0.2l0-0.2l0.4-0.6l0.1-0.2
		l0.2-0.4l0.2-0.3l0.3-0.2l0.4-0.6l0,0l0.1-0.1l0.1-0.1l0-0.1l0.2-0.3l0.1-0.2l0.4-0.6l0.1-0.2l0.4-0.6l0.3-0.3l0.1-0.1l0,0L20,14v0
		l0,0l0.1-0.2l0.1-0.3l0.1-0.1l0.1-0.1l0.1-0.1l0-0.1l0-0.1v-0.1l0-0.1l0.1-0.1l0-0.1l0.1-0.1l0,0h0.1l0.1-0.1l0,0v0l0.1-0.1
		l0.1-0.2l0.6-0.8l0.2-0.6l0.2-0.4l0.2-0.4l0.2-0.2l0.1,0l0.1-0.1l0.3-0.4l0.5-0.2L23.6,9l0,0.1l0.1,0L23.8,9h0.1v0L24,9l0,0l0.1,0
		h0.1L24.4,9l0,0.1l-0.1,0.1l-0.2,0.2l-0.1,0.1l0,0l0,0.1l-0.1,0h-0.1l-0.1,0.1l-0.2,0l-0.1,0l-0.2,0.4L23,10.5l0,0.1h0l-0.5,0.8
		l-0.1,0.1L22,11.9l0,0.1l0,0.3l-0.1,0.1l-0.1,0.3l-0.1,0l-0.1,0.1h-0.1l-0.1,0l-0.1,0L21.2,13l-0.1,0.1l-0.2,0.3l-0.1,0.3l-0.1,0.1
		l-0.1,0.1L20.5,14l-0.1,0.1l-0.3,0.4l0,0.1l-0.1,0.1L20,14.8l0,0.1l-0.1,0L19.8,15h0l-0.6,0.8l-0.1,0.2l-0.1,0.1L19,16.2l-0.1,0.2
		l-0.1,0.2l-0.1,0l-0.2,0.5l-0.2,0.2l-0.1,0l-0.4,0.6h0l-0.1,0.1l0,0.1l0,0l-0.1,0.1l-0.1,0.1l-0.1,0.1l-0.1,0.1l-0.1,0.1l-0.1,0.2
		l-0.1,0.1l-0.4,0.6v0l-0.1,0.2l0,0L16.3,20.1z"/>
	<path class="st1" d="M33,19L33,19L33,19l0.4-0.5l0.1-0.1l0.1-0.1l0,0l0.1,0l0.2-0.2l0.1-0.1v0l0,0l0.1-0.2l0,0l-0.1,0h-0.2
		l-0.2,0.1l-0.5,0.2l-0.1,0l-0.1,0l-0.5,0.3h0L32,18.4l-0.1,0.1l-0.1,0.1l-0.4,0.2L30.9,19L30.7,19l-0.3,0.1l-0.1,0l-0.2,0.1l-0.1,0
		l-0.3,0.2l-0.1,0.1l-0.1,0.1l-0.2,0.1l-0.2,0.1l-0.4,0.2l0,0l-0.2,0.1h0v0h-0.2L28,20.4h-0.1c-0.1,0-0.1,0.1-0.2,0.1l-0.1,0.1
		l-0.4,0.1l-0.1,0l-0.3,0.1l0,0l-0.1,0h-0.1l-0.1,0h0c-0.3,0-0.5,0-0.6-0.2c-0.1-0.2,0-0.5,0.1-0.8l0.1-0.2l0.1,0l0-0.1l0.1-0.1
		l0-0.1l0,0v0l0-0.1l0.1-0.2l0.2-0.1l0,0l0.1-0.2l0.1-0.1l0.1-0.1l0.2-0.2l0.8-0.7v0h0l0.2-0.2l0.1-0.1l0.3-0.3l0.1-0.1l0.5-0.4l0,0
		l0.2-0.2l0.1-0.1l0.1-0.1l0,0l0.1,0l0.1,0l0.1,0l0.1,0l0.1,0l0.1-0.1v0l0.1-0.1l0.6-0.3l0.1-0.1l0.1,0l0.1,0l0,0l0,0l0.2-0.1h0.1
		l0.1-0.1l0.1,0l0.1,0l0.1,0l0.1,0l0.2,0.1l0.1,0h0.1l0.1,0h0v0H33l0.1,0l0,0l0.1,0l0,0.1v0.2l-0.1,0c0,0.1-0.1,0.1-0.2,0.2
		c-0.1,0-0.1,0-0.1,0l-0.2,0.1l-0.1,0h-0.3l-0.3,0v0h-0.1v0h0l-0.1,0h-0.1l-0.3,0.1L30.9,16l-0.4,0.2l-0.3,0.1
		c-0.1,0.1-0.2,0.1-0.3,0.2c0,0,0,0,0,0l-0.2,0.1l0,0l0,0l-0.8,0.6l-0.1,0.1l-0.2,0.2l-0.1,0.1l-0.1,0.1l-0.2,0.1l-0.1,0.1l-0.2,0.2
		l0,0l0,0.1l-0.2,0.3l-0.1,0l0,0l-0.1,0l0,0.1l-0.1,0.1h0l0,0.1l-0.1,0.1l0,0.1l-0.1,0.1L27,19.2l-0.2,0.2v0l0,0.1l0,0v0l0,0
		l-0.1,0.1l-0.1,0.1l-0.1,0.1L26.5,20v0l0,0v0.1l0,0.1l0.1,0.1l0.1,0l0.4-0.1l0.2,0l0.3-0.1h0l0.1,0c0.2-0.1,0.5-0.2,0.7-0.3
		l0.1-0.1l0.1-0.1l0.1-0.1h0.1c0.2-0.1,0.4-0.2,0.6-0.3l0.1-0.1l0.1-0.1v0l0,0l0.1-0.1l0.1,0l0.3-0.1l0.1-0.1l0.1-0.1l0.5-0.3
		l0.1-0.1l0.5-0.2l0.1,0l0.3-0.2l0.2-0.1l0.3-0.2l0.1-0.1l0.1-0.1l0.1-0.1l0.2-0.1l0.2-0.1l0.6-0.1H34l0.2,0l0.1,0.1l0.1,0.1
		c0.1,0,0.1,0.1,0.1,0.1v0l0,0v0.1l0,0.1h0l0,0l0,0l0,0l0,0.1l0,0.1l-0.1,0.1c0,0-0.1,0.1-0.1,0.1l-0.1,0.2L34,18.1l-0.1,0l-0.2,0.3
		l0,0v0l0,0l-0.1,0.1l0,0.1l0,0.1L33.3,19c0,0-0.1,0.1-0.1,0.1l-0.1,0.1l0,0c0,0.1-0.1,0.1,0,0.2c0,0.1,0,0,0.1,0c0,0,0,0,0.1,0
		l0.1,0h0.1l0,0h0.1l0.1,0l0,0c0.1,0,0.2-0.1,0.4-0.1l0.1,0l0.1-0.1h0.1l0.6-0.2l0.1,0l0.2-0.1v0l0.2-0.1l0.1-0.1l0.1,0l0.1-0.1
		l0.6-0.2v0l0.1,0l0.2-0.1l0.1-0.1l0.9-0.3h0.1l0.5-0.1c0,0,0,0,0.1,0h0l0,0.1l-0.1,0.1h-0.1l-0.3,0.1l-0.2,0.1h-0.1l-0.3,0.1
		l-0.1,0.1l-0.4,0.2L36.4,19L36,19.1l-0.4,0.1l-0.1,0l-0.2,0.1l-0.1,0.1l-0.1,0.1h0L35,19.5l-0.1,0.1l-0.1,0l0,0l-0.5,0.2v0l0,0
		l-0.1,0.1l0,0L33.8,20l-0.3,0.1l-0.1,0.1l0,0l0,0l-0.1,0l0,0l0,0l0,0l-0.1,0h-0.2l0,0h-0.1l-0.1,0l-0.1,0l-0.1-0.1l0-0.1l0-0.1
		c0-0.1,0-0.1,0-0.2l0.1-0.1l0-0.1l0.1-0.2l0.1-0.1L33,19L33,19z"/>
	<path class="st1" d="M41.2,18.6c0,0,0.1-0.1,0.1-0.1l0-0.2l0.1-0.1l0.1-0.1l0-0.1l0.1-0.1l0.1-0.3l0-0.1l0.1-0.2l0.1-0.3l0.1-0.2
		v-0.2l0,0l0-0.3l0,0v0l-0.1,0.1l-0.1,0.1c-0.1,0-0.1,0-0.1,0s0.1-0.2,0.1-0.3L42,16l0.1-0.1l0,0c0,0,0,0,0,0c0,0,0.1-0.1,0.1-0.1
		l0.1-0.1l0.1-0.1l0,0v-0.1l0,0l0,0l0.1-0.1l0.1,0v0h0.2l0.1,0.1l0,0l0,0l0,0l0.1-0.1c0.1,0,0.1,0,0.1,0.1c0,0,0,0,0,0.1l0,0
		L43.2,16l-0.1,0.2L43,16.4l-0.2,0.4l0,0.1L42.6,17l-0.5,0.8l0.3-0.2l0.1-0.1l0.2-0.1l0.3-0.2l0.3-0.2l0.1-0.1l0.2-0.1l0.3-0.1
		l0.1-0.1l0.1-0.1l0.3-0.1L45,16l0.1-0.1l0-0.1l0,0l0.1,0l0.4-0.2l0.1,0h0l0.8-0.3v0h0l0.9-0.4l0.1-0.1l0.1,0l0.9-0.3
		c0.2-0.1,0.5-0.1,0.7-0.1v0l0.1,0v0h0v0h0.1l0,0l0,0l0.1,0l0.1,0.1l0.1,0l0,0h0l0.1,0h0l0.1,0.1v0h0.1l0.1,0.1l0.1,0.1l0,0.1
		l-0.1,0.1c0.1,0.4-0.1,0.9-0.4,1.4l-0.1,0.5l-0.1,0.1l-0.5,0.3v0L49,17.7l-1.3,1.1l-0.5,0.2l-0.4,0.1l-0.1,0h0l-0.3,0.2l-0.1,0
		l-0.2,0.1l-0.2,0c-0.2,0.1-0.5,0.2-0.8,0.3L45,20l-0.1,0l-0.1,0.1l-0.2,0c-0.2,0.1-0.4,0.1-0.7,0.2l-0.1,0h-0.1l-0.2,0h0l-0.1,0.1
		l-0.2,0h0l-0.1,0l-0.1,0l-0.1,0h-0.1l-0.1,0l-0.1,0c-0.4,0-0.8-0.1-1.1-0.3c0,0-0.1,0-0.1,0h0l-0.1,0L41.1,20l-0.1,0H41l-0.1,0l0,0
		l-0.2,0.3v0h0l-0.1,0.1l0,0.1L40.1,21l-0.1,0.2L40,21.4l-0.1,0.1l-0.1,0.1l-0.4,0.6L39,22.8l0,0l0,0.1l0,0.1l-0.1,0.2l-0.1,0.1
		l-0.1,0.2l-0.1,0.1l-0.1,0.1l-0.1,0.2l-0.1,0.3L38,24.3L38,24.4l0,0.1l-0.1,0.2l-0.4,0.6l-0.1,0.2l0,0l-0.1,0.2l-0.1,0.1L36.9,26
		l-0.1,0.1l-0.2,0.4l-0.2,0.3L36.3,27L36,27.3l0,0c-0.1,0.1-0.1,0.2-0.2,0.4l0,0.1l-0.1,0.2l-0.2,0.2l-0.3,0.4l0,0.1h-0.1L35,28.7
		l-0.1,0.2v0.1L34,30.2l-0.1,0.1l-0.4,0.6v0.1L33.4,31c-0.3,0.4-0.6,0.9-0.8,1.4L32,33.6l-0.1,0.5l-0.2,0.6l-0.1,0.1v0.1l0,0.1l0,0
		v0.1l0,0.1l0,0.2l-0.2,0.2l-0.1,0.2l-0.1,0l0,0l-0.1,0l-0.1-0.1l-0.1-0.1l0-0.1l0-0.1v0l0-0.1l0-0.1l-0.1,0v-0.2l0-0.1l0-0.1l0-0.2
		l0,0l0-0.1l0-0.2l-0.1,0l0,0l0,0l0.1-0.2h0.1l0-0.1l0-0.1l0.1,0l0,0l0.1-0.6v-0.1l0.1-0.1l0.2-0.6l0.3-0.6l0.5-1.3l0.1-0.2l0.1-0.3
		l0.2-0.6l0.2-0.3L33,29l0.1-0.3l0.3-0.4l0.2-0.5l0.1-0.2l0.2-0.2l0.2-0.3l0.1-0.2l0.1-0.2l0.2-0.3l0.5-0.7l0-0.2l0-0.1l0.1-0.1
		c0.2-0.2,0.3-0.5,0.5-0.7l0.1-0.2l0.1-0.2l0.1-0.1l0.1-0.2l0-0.1l0.1-0.2l0.1-0.1l0.1-0.1l0.1-0.1l0.4-0.5l0.1-0.3l0.1-0.1l0.1-0.1
		l0.1-0.1l0.1-0.1l0.2-0.2l0.3-0.3l0.1,0l0.5-0.6v0l0,0c0,0,0.1-0.1,0.1-0.1v0l0,0l0.1-0.1l0.1-0.1l0-0.1l0.1-0.1l0.1-0.1l0.2-0.1
		l0.1-0.1l0.1-0.1l0.1,0l0.2-0.2l0-0.1l0.1-0.1l0.1-0.1l0.1-0.1l0.1-0.1l0-0.1l0.1,0h0.1c0,0,0.1-0.1,0.1-0.1l0-0.1l0.1-0.1l0.2-0.2
		l0.3-0.2l0.1-0.1L41.2,18.6z M39.6,21.3l0.1-0.1l0-0.1l0.1-0.1l0.1-0.1l0.1-0.2l0-0.2l0.1,0l0-0.1l0.1-0.1l0-0.1h0.1l0.3-0.4
		l-0.1-0.1c-0.1,0.1-0.2,0.2-0.4,0.4L40,20.2l-0.2,0.2l-0.3,0.3l-0.1,0.1L39.2,21L39,21.2l-0.1,0.1l-0.2,0.3l-0.1,0.2l-0.2,0.1
		c-0.1,0.1-0.2,0.2-0.3,0.4L38,22.4l-0.1,0.1l-0.1,0.1L37.5,23l-0.3,0.4l0,0.1L37,23.6l-0.1,0.1l0,0.1l-0.1,0.1l-0.1,0.2l-0.2,0.2
		c-0.1,0.1-0.2,0.3-0.3,0.4l-0.1,0.1c0,0.1-0.1,0.1-0.1,0.2l-0.1,0.2l0,0.1l0,0.1l-0.1,0.1c0,0,0,0.1-0.1,0.1l-0.2,0.3L35.2,26
		L35,26.4l-0.1,0.1l-0.1,0.1l-0.1,0.3l-0.3,0.4l-0.3,0.5L34,28l-0.1,0.2l-0.1,0.1l-0.2,0.3l-0.1,0.1c-0.1,0.1-0.1,0.2-0.2,0.4l0,0
		l-0.1,0.3L33,29.9l-0.1,0.3l-0.1,0.1l-0.6,1.3L32,32.1v0.1L32,32.2l-0.4,1l0,0.1c0.1-0.1,0.3-0.3,0.3-0.4c0.4-0.6,0.8-1.3,1.2-2
		l-0.1,0v-0.1l0.2-0.1c0.2-0.3,0.3-0.5,0.5-0.8v0h0l0.7-1.1l0,0c0.2-0.2,0.3-0.5,0.5-0.7l0.6-0.8l0-0.1l0.2-0.3v-0.1l0.2-0.1
		l0.1-0.2l0.2-0.3l0.6-0.9l0.2-0.2v0l0,0l0.1-0.3l0.2-0.2l0.2-0.3l0.1-0.2l0.2-0.4l0-0.1l0,0l0.4-0.7l0-0.1l0.1-0.1l0.1-0.3l0.1-0.1
		l0.2-0.3l0,0l0.1-0.1l0.1-0.2l0.1-0.1L39.6,21.3z M40.8,19.5L40.8,19.5L40.8,19.5C40.8,19.5,40.8,19.5,40.8,19.5z M46.7,19.1
		l0.5-0.3l0.5-0.4l0.1,0l0.1-0.1h0.1l0.2-0.1l0,0l0.2-0.2v-0.1l0.1,0l0.1-0.1l0.1-0.1v-0.1l0.2-0.1l0.4-0.3l0.4-0.7l0.1,0v-0.1
		l0.1,0l0.1-0.2l0.1-0.3l-0.1-0.1l0.1-0.1l0-0.1l0-0.1l0-0.1l0-0.1L49.7,15h-0.1l0,0l0,0l-0.1-0.1l0,0l-0.3-0.1h-0.1l-0.1,0l-0.1,0
		l-0.1,0.1l-0.2,0l-0.1,0l-0.1,0L48,15l-0.1,0l0,0l-0.6,0.2l-0.1,0.1L47,15.4h-0.1l-0.2,0.1c-0.4,0.1-0.7,0.3-1,0.5l-0.5,0.3
		l-0.1,0.1L45,16.4l-0.5,0.3l-0.2,0.1l-0.2,0.1l-0.4,0.3h0l-0.1,0.1l-0.1,0.1l-0.1,0.1c-0.4,0.2-0.2,0.1-0.6,0.4l-0.4,0.3l-0.1,0.1
		L42,18.4l-0.1,0.1l-0.1,0.1l-0.1,0c0,0,0,0,0,0l0,0.1l-0.1,0.1v0L41.4,19l-0.1,0.2l0,0.1l-0.1,0.1h0l-0.1,0.1L41,19.7l0,0.1
		c0,0,0.1,0.1,0.1,0.1l0.1,0.1l0.2,0.1l0.1,0h0.1l0.2,0.1l0.2,0.1l0.1,0.1c0.4,0.1,0.9,0,1.4,0l0.3-0.1l0.1,0h0.1
		c0.4-0.1,0.9-0.2,1.3-0.4l0.1-0.1l0.2-0.1l0.5-0.2l0.1-0.1l0.2-0.1L46.7,19.1L46.7,19.1L46.7,19.1z"/>
</g>
<g class="st0">
	<path class="st1" d="M20.4,51.9h0.3l0.1-0.1l0.5-0.7l0.1-0.1l0.2-0.3l0.1-0.1l0.1-0.2l0.1,0l0.2-0.3v0l0.1-0.1l0-0.1l0-0.1l-0.1,0
		h0v0l0-0.1l0.1,0v0.1l0.1-0.1l0.1-0.1l0.1-0.1l0-0.1l0.1-0.1l0.3-0.2l0.1-0.2l0.1-0.1l0.1,0l0,0v0l0,0v0l0.1-0.2l0.1-0.1l0.3,0
		l0.1,0.3l0,0.3l-0.3,0.2l-0.2,0.2l-0.1,0.2l-0.1,0.1l0,0.1l-0.6,0.6l-0.2,0.1l-0.7,0.8l-0.4,0.5l0.2,0l0.1-0.1h0.1l0.1,0.1l0.5,0v0
		h1.2l0.5-0.1h0.6l0.1,0.1h0.1v0.1l0.5,0l0.2,0l0.3,0.1l0.3,0H26l0.2,0l0.2,0.1l0.1,0l0.1,0l0.5,0.1h0l0.1,0h0.2l0.1,0.1l0.4,0.1
		l0.1,0l0.1,0.1c0.1,0,0.1,0,0.2,0.1l0,0l0,0l0.5,0.2l0,0l0,0h0v0l0.3,0.1h0l0.1,0c0,0,0,0,0.1,0l0.1,0l0.2,0.1l0.1,0.1l0.2,0.1h0.1
		l0.1,0.1l0,0c0.1,0.1,0.2,0.2,0.3,0.2c0,0,0,0,0,0l0.1,0l0.1,0.2v0l0,0l0.1,0l0,0l0,0.1l0.1,0.1l0.1,0.3l0,0.1c0,0,0,0,0,0.1
		c0,0.1,0,0.1,0,0.1l0,0L31.1,55L31,54.9l0-0.1c0,0,0-0.1,0-0.1l-0.1-0.3l-0.1-0.3l0-0.1l0,0l-0.1-0.2l-0.1-0.1c0,0,0,0,0,0
		l-0.2-0.2l-0.1,0l-0.2-0.2l0,0c0,0-0.1,0-0.1-0.1l-0.1,0l0,0l-0.1-0.1L29.3,53l-0.1,0l0-0.1l0,0h0l-0.1,0l-0.3-0.1l-0.4,0l-0.1,0
		l-0.2-0.1l-0.3-0.1c-0.3-0.1-0.6-0.1-0.9-0.2l0,0l-0.3-0.1l-0.1,0h-0.2l-0.1,0l-0.3-0.1l-0.2,0l-0.1,0l-0.1,0l-0.2,0
		c-0.1,0-0.3,0-0.4,0l-0.1,0l-0.1,0c-0.1,0-0.2,0-0.3,0c-0.6,0-1.2,0-1.8,0l-0.1,0l-0.1,0.1v0.1h-0.1L22,52.4h-0.1v0.1h-0.1
		l-0.3,0.1h-0.9c-0.1,0.1-0.2,0.3-0.3,0.4l-0.1,0.1l-0.1,0.1c-0.1,0.1-0.2,0.3-0.3,0.4l0,0.1l-0.3,0.3l-0.3,0.4l-0.2,0.2l-0.3,0.4
		l0,0l-0.6,0.8l-0.1,0.2l-0.4,0.5l-0.1,0.1l-0.1,0.1l-0.1,0.2l-0.1,0.2L17.2,57l-0.1,0.1L17,57.3l-0.1,0.1l0,0l-0.1,0.1l-0.1,0.1
		l-0.3,0.4l-0.1,0.2l-0.9,1.2l-0.3,0.3l-0.4,0.4l-0.1,0.1l-0.2,0.2l-0.1,0.2l0,0.1l-0.2,0.3l-0.1,0.3l-0.1,0.2L13.7,62l-0.1,0.4v0.1
		l0,0.1l-0.1,0.2l0,0.2l-0.1,0.2l0,0.1l0,0.1l0.1,0l0.1,0l0.3-0.1l0.1,0l0-0.1l0.3-0.1l0.2-0.1l0.1-0.1l0.1-0.1l0.1,0l0.2-0.1
		l0.1-0.1h0.1l0.1,0l0.5-0.2l0.4-0.1v0h0l0.1-0.1h0.1l0.1,0h0.1l0.1-0.1h0.1l0.5-0.2l0.2-0.1l0.1,0l0.9-0.4l0.2-0.1l0.1-0.1l0.2-0.1
		l0.3-0.1h0l0.1-0.1l0.2-0.1l0.2-0.1l0.3-0.1l0.5-0.3v0h0l0.1-0.1l0.1-0.1l0.3-0.1h0.1v0l0.1,0L21,60l0.1-0.1l0.1,0l0,0.1l0,0l0,0.1
		l-0.1,0.1l-0.1,0l-0.1,0.1l-0.5,0.3l-0.1,0.1l-0.2,0.1L19.8,61l-0.2,0.1l-0.2,0.1l-0.3,0.1L19,61.3L19,61.4l-0.2,0.1l-0.2,0.1
		l-0.3,0.1l-0.1,0L18,61.9L17.8,62l-0.2,0.1l-0.1,0l-0.1,0.1l-0.1,0.1l-0.1,0l-0.2,0.1l-0.1,0l-0.1,0l-0.1,0l-0.1,0.1l-0.4,0.2
		l-0.2,0.1l-0.3,0.1h-0.1L15.6,63l-0.2,0.2l-0.2,0.1l-0.1,0h0l0,0l0,0.1l-0.1,0h-0.1l0-0.1l-0.1,0l-0.2,0.1l-0.1,0.1l-0.5,0.2
		l-0.7,0.2l-0.2,0l-0.1,0l-0.1,0l-0.1,0l-0.1-0.1l-0.1-0.1l0-0.2c0-0.1,0-0.2,0-0.3c0-0.1,0.1-0.3,0.2-0.6v0l0-0.1l0.1-0.1l0,0v-0.1
		l0-0.1l0.1-0.1l0-0.1l0.1-0.1l0.2-0.3l0-0.1l0-0.1l0-0.1l0.1-0.1l0.1-0.1l0.1-0.2l0.1-0.1l0.1-0.1l0.1-0.1l0,0l0.1-0.1l0.2-0.1
		l0.1-0.1l0-0.1l0-0.1l0.1-0.1l0.2-0.3l0-0.1l0.1-0.1c0.1-0.1,0.1-0.2,0.2-0.3l0.1-0.2l0.1-0.2l0.1-0.2l0.1-0.1l0.1,0l0-0.1l0.1-0.1
		l0,0c0-0.1,0.1-0.1,0.1-0.1l0,0l0.1-0.1l0,0l0.1-0.1v0l0.1-0.1v-0.1l0.3-0.4l0.1,0c0,0,0,0,0,0l0-0.1l0.2-0.3l0.1,0l0.1-0.1
		l0.1-0.1l0.7-1l0.1-0.1l0.3-0.4l0,0c0.1-0.1,0.1-0.2,0.2-0.3l0,0l0-0.1h0l0.3-0.4v-0.1l0.3-0.3l0.1,0l0.1-0.1l0-0.1l0.4-0.6
		l0.1-0.1l0.1-0.1v0l0.1-0.1v0l0.1-0.1l0.1,0l0-0.1v0l0-0.1l0-0.1l0.2-0.2h0l-0.1,0.1l-0.4,0l-0.2,0l-0.6,0l-0.6,0.1l-0.1,0l-0.2,0
		l-0.5,0.1l-0.1,0L16.6,53l-0.2,0.1l-0.1,0l-0.2,0l-0.3,0l-0.3,0.2l-0.1,0.1l-0.4,0.1l-0.4-0.1l-0.1-0.2l0-0.2l0-0.1h0
		c0,0,0-0.1,0.1-0.1h0l0,0v0l0,0.1c0.3-0.1,0.7-0.3,1.1-0.4l0.3-0.1l0.3,0l0.1,0l0.8-0.1l0,0h0l0.5-0.1l0,0h0l0.3,0l0.1,0h0.1l0,0
		h0.1l0.5-0.1l0,0l0.1,0h0.1l0.3,0l0.1,0l0.1,0c0.1,0,0.2,0,0.3,0l0,0H20h0.2L20.4,51.9z"/>
	<path class="st1" d="M30.1,61.3v0.1l-0.1,0.1l0,0l0,0.1l0,0L30,61.8c0,0.1,0,0.1,0,0.2l0,0.1l0.1,0.1l0.1,0.1l0.1,0.1l0.1,0
		c0.1,0,0.1,0,0.2,0l0.1-0.1l0,0h0.1l0.7-0.4l0.1,0l0.1,0l0.7-0.4c0,0,0,0,0.1,0l0.4-0.3l0.1-0.1h0.1l0.1-0.1l0.2-0.1l0.3-0.2
		l0.1-0.1l0.2-0.1l0,0l0.3-0.3c0,0,0,0,0.1,0l0,0l0.1,0l0.1,0.1v0.1l-0.1,0L34,60.4l-0.3,0.2l-0.1,0.1l-0.2,0.2
		c-0.2,0.2-0.4,0.4-0.7,0.5l-0.2,0.1h-0.1l-0.1,0.1l-0.1,0.1l0,0l-0.1,0.1l-0.1,0.1l-0.1,0L32,61.9L31.9,62l-0.2,0.1l-0.1,0.1
		l-0.1,0l-0.1,0l0,0l-0.2,0.1l-0.3,0.2l-0.1,0l-0.1,0.1l-0.1,0h0l-0.1,0l-0.1,0.1l-0.1,0l-0.2,0C30,63,29.9,63,29.9,63
		c-0.1,0-0.1,0-0.1,0l-0.1,0l-0.1-0.1l0-0.1c0,0,0,0,0,0l-0.1-0.1v0l-0.1-0.1l0-0.4l0-0.3l0-0.1l0-0.1l0,0l0.1-0.1l0-0.1l0.1-0.1
		l0-0.1l0.1-0.1l0-0.1l0-0.1l0-0.2l0.1-0.2c0.1-0.3,0.2-0.6,0.3-0.9l0.1-0.3c0.1-0.2,0.2-0.4,0.2-0.6l0,0l0-0.1l-0.1-0.1
		c-0.1,0-0.3,0.1-0.5,0.1l-0.3,0.1l-0.1,0L29.4,59l-0.1,0.1l0,0L29,59.2l-0.1,0.1l-0.4,0.2l-0.1,0c-0.1,0-0.2,0.1-0.2,0.1l-0.1,0.1
		l-1,0.5l-0.1,0.1H27L27,60.4l-0.1,0.1l-0.1,0.1l-0.2,0L26.3,61l-0.6,0.5l-0.5,0.4l-0.4,0.3l-0.1,0.1l-0.1,0.1l-0.1,0.1v0.1l-0.1,0
		L24,62.6l-0.2,0.1l-0.2,0l-0.3,0l-0.1,0.1h-0.1L23,62.8l0-0.2l0-0.2l0.1-0.3l0-0.1l0.1-0.3l0.1-0.2l0.1-0.3l0,0l0.1-0.1l0.1-0.1
		l0-0.2l0.1-0.2l0.2-0.2l0.1-0.3l0.1-0.1l0.1-0.1l0.1-0.2l0.1-0.1l0.1-0.1l0.3-0.4l0.1-0.3l0-0.1l0,0l0-0.1l0.1,0l0.2-0.3l0-0.1
		l0-0.1h0l0.3-0.4l0.1-0.1l0.1-0.1l0.1-0.2l0.1-0.2l0.1-0.1l0.2-0.2c0.1-0.1,0.2-0.3,0.3-0.4l0.3-0.6l0.1-0.1c0.3-0.5,0.7-1,1-1.4
		l0.1-0.1l0-0.1l0.1-0.2l0.1-0.1l0.1-0.2l0.1-0.1l0-0.1l0.1,0l0.2-0.1l0.1-0.1l0.1-0.1l0.1-0.3l0.1-0.2l0.1-0.1l0.1-0.1l0.2-0.3
		l0-0.1l0-0.1l0.1-0.1v-0.1l0.1-0.2l0,0h0l0.1-0.1l0.1-0.1l0,0l0,0l0.1-0.2l0.1-0.2l0.1-0.1l0,0l0,0l0,0v0l0.1-0.1l0-0.1l0.1-0.1
		l0.1-0.1l0.1-0.1l0-0.1l0.2-0.3l0.1-0.2l0.1-0.2l0-0.1l0-0.1l0.1-0.1l0-0.1l0-0.1l0.1,0l0.2-0.2l0.1-0.1l0.3-0.2l0.1-0.1l0.1-0.1
		v-0.1l0.1-0.1l0,0.1l0.1-0.2l0.1-0.1l0.1,0.1l0.1,0.2L32.3,49l-0.4,0.6l-0.2,0.2l-0.4,0.4l-0.2,0.1l-0.8,1.1l0,0l-0.1,0.1l-0.1,0.2
		L30,52l-0.1,0.1l-0.2,0.1l-0.7,1v0.1l-0.2,0.3l-0.1,0.1l-0.1,0.1l-0.1,0.1l-0.2,0.3L28,54.7l0,0.1l-0.3,0.3l-0.2,0.2l0,0.1
		l-0.3,0.4L27,56.1l-0.1,0.1L26,57.5c-0.2,0.3-0.3,0.5-0.5,0.8l0,0.1l0,0l-0.1,0.1c-0.2,0.3-0.4,0.6-0.5,0.8l0,0l0,0l-0.2,0.3v0.1
		l-0.2,0.4l-0.1,0.3L24.1,61L24,61.3l0,0.2l-0.1,0.3l0,0.3l0.1,0.1l0.1,0H24l0.2-0.1l0.1-0.1l0,0l0.1-0.1l0.1-0.1l0.1-0.1l0.1-0.1
		l0.1-0.1l0.2-0.1l0.1,0l0.1-0.1l0.6-0.4l0.1-0.1l0.1-0.1l0.1-0.1l0.1,0l0.2-0.1l0.6-0.4l0-0.1l0.1-0.1l0.3-0.1l0.2-0.1l0.1,0
		c0.2-0.1,0.4-0.3,0.6-0.4l0.2-0.2l0.1-0.1l0.1-0.1l0.1,0l0.1-0.1l0.1-0.1l0.2,0l0.4-0.1h0.1c0.3-0.1,0.6-0.1,1,0c0,0,0.1,0,0.1,0.1
		l0.1,0.1l0.1,0.1l0,0.1l0,0.1l-0.1,0.2l0,0c-0.1,0.3-0.3,0.6-0.4,0.8c-0.1,0.2-0.2,0.4-0.3,0.6v0.2L30.3,61L30.1,61.3z"/>
	<path class="st1" d="M37,60.9L37,60.9l-0.1,0.2l-0.1,0.1c0,0,0,0,0,0v0.1l-0.1,0.1l0,0.5c0,0,0,0.3,0,0.4c0.1,0.1,0.1,0.1,0.5,0.3
		l0.3,0.1h0.2l0.3,0l1.3-0.3l0.3-0.1l0.7-0.2l0.1-0.1l0.1,0h0l1.1-0.5h0.1l0.1-0.1l0.2,0l0.6-0.2l0.1,0c0.7-0.3,0.9-0.4,1.6-0.7
		l0.4-0.1l0,0L45,60l0.3-0.1l0.4-0.1v0h0.1l0.2-0.1l0,0l1-0.6l0.1,0c0.1-0.1,0.3-0.2,0.4-0.3c0,0,0.1,0,0.1,0v0l0.1-0.1l0.1,0
		l0.1,0.2l-0.1,0l-0.2,0.1l-0.1,0L47,59.2l-0.1,0.1h-0.1l-0.1,0c-0.2,0.1-0.4,0.2-0.5,0.3l0,0l-0.1,0.1L46,59.8H46l-0.6,0.3l0,0
		l-0.1,0l-0.1,0.1l0,0l-0.3,0.2l-0.7,0.3c-0.2,0.1-0.4,0.2-0.7,0.3l-0.1,0.1l-0.9,0.4l-0.1,0.1l0-0.1l-0.2,0.1l-0.2,0l-0.1,0.1h0
		c-0.2,0.1-0.5,0.2-0.7,0.3l-0.3,0.1l-0.6,0.3l-0.1,0l-0.2,0l-0.3,0.1l-0.2,0l-0.1,0l-0.1,0.1L39,62.8h0c-0.2,0.1-0.5,0.1-0.7,0.2
		L38.1,63l-0.1,0h0l-0.4,0.1l-0.1,0l-0.2,0.1l-0.4-0.1l-0.4-0.2l-0.2-0.3l-0.1-0.2l-0.1-0.3v-0.3l0,0l0,0v-0.1l0.1-0.5l0.1-0.2
		l0.1-0.3l0.1-0.2l0,0l0.1-0.1l0.1-0.1L37,60l0.1-0.2l0.1-0.1l0.2-0.1l0.1-0.1l0.1-0.1l0.1-0.1l0,0l0.2-0.2l0.2-0.1l0.1-0.2l0.1-0.1
		l0.1-0.1l0.1-0.1l0.1,0l0-0.1l0.1-0.1l0.1-0.1l0.1,0c0.4-0.3,0.8-0.6,1.3-0.9l0,0l0.2-0.1l0.2-0.1c0,0,0,0,0,0l0.2-0.1l0.1-0.1
		l0.1,0l0.3,0c0.2-0.1,0.4-0.1,0.6-0.2l0.2-0.1h0.2l0.1,0l0.1,0c0.1,0,0.3,0,0.4,0l0,0l0.1,0l0,0l0.1,0l0,0l0.1,0v0h0l0,0l0.1,0h0.1
		l0,0h0l0.1,0.1l0,0c0.1,0.1,0.2,0.1,0.2,0.2l0.1,0l0,0h0l0,0v0.1l0,0.1l0,0.1l0,0.1v0.1l-0.1,0.3l-0.1,0.2l-0.2,0.2l-0.2,0.1
		l-0.2,0.1l-0.6,0.3L42.2,59L42,59c-0.4,0.3-0.9,0.6-1.3,0.8l0,0l-0.5,0.3l-0.2,0.2l-0.5,0.2l-0.4,0.1l-0.5,0.1l-0.3,0h-0.1L38,60.7
		l0-0.1l0-0.1l0.1-0.3l0.3-0.2l0.2-0.1h0.1l0.1,0l0.1,0h0.2l0.2,0l0.2-0.1h0.1l0-0.1l0.5-0.2l0.5-0.2l0.2-0.1l0.1-0.1l0.2-0.1l0-0.1
		l0.3-0.1l0.1-0.1l0.2-0.2l0.8-0.7l0.1-0.1l0-0.1l0-0.1l0.1-0.3l0,0l0,0l0-0.1L43,57.1l-0.1-0.1l-0.1,0h-0.2l-0.1,0l-0.1,0
		c-0.5,0.1-1,0.4-1.3,0.5l-0.2,0.1l-0.1,0.1l-0.1,0.1l-0.1,0c0,0,0,0,0,0v0l-0.1,0l0,0h0l-0.4,0.2l-0.2,0.2l-0.1,0.1l-0.2,0.1
		l-0.1,0c-0.2,0.1-0.3,0.2-0.5,0.4L38.8,59l-0.2,0.2l-0.1,0.1l-0.2,0.2l-0.3,0.3l-0.3,0.3l-0.1,0.1l-0.1,0.2l-0.1,0.2l-0.2,0.2
		L37,60.9z"/>
</g>
<g class="st0">
	<path class="st1" d="M3.5,103.4l0.2-0.2l0.7-0.6l0.1-0.1h0l0.5-0.5l0.3-0.3l0.1-0.1l0.3-0.2l0.6-0.4l0.1-0.1l0.1-0.1h0.1l0.1-0.1
		l0.1-0.1l0.1-0.1h0c0,0,0,0,0,0l0.1-0.1l0.2-0.1l0-0.1l0.4-0.4v0h0l0.1-0.1l0-0.1l0.6-0.5l0.1,0l0.3-0.2l0-0.1l0,0h0l0.1-0.1
		l0.1-0.1l0,0v0L9,98.8l0,0l0.5-0.5v0h0.1L9.7,98l0,0l0.6-0.6l0.1-0.2l0.3-0.4c0,0,0,0,0,0l0.1-0.1h0.1l0,0.1l0,0l0,0.1l0,0
		c-0.2,0.2-0.4,0.4-0.6,0.7L10,98l0,0.1l-0.1,0.1l-0.1,0.1l0,0l-0.1,0.1v0h0l-0.2,0.3l0,0l-0.1,0c0,0-0.1,0.1-0.1,0.1l-0.1,0.1
		L9.1,99L9,99L9,99l-0.3,0.3v0l-0.1,0l-0.1,0.1l-0.2,0.2l-0.5,0.5l-0.1,0l-0.1,0.1l-1.2,1.1l0,0l-0.1,0.2l-0.2,0.2l-0.2,0.2
		l-0.1,0.1l-0.2,0.1l-0.2,0.1l-0.1,0.1L5,102.6l-0.1,0.1l-0.1,0.1c-0.3,0.2-0.5,0.5-0.7,0.6l-0.4,0.4l-0.1,0.1l-0.5,0.4l-0.1,0.1
		L3,104.5l-0.1,0.1l-0.1,0v0l-0.1,0.1l0,0.1l-0.1,0.1l0,0.1l-0.1,0l0,0.1v0l-0.1,0.1l0,0l0,0l0,0l-0.1,0l-0.1,0.1h0l0,0L2,105.4
		l-0.2,0l-0.1,0.1l-0.1,0l-0.1,0l0,0H1.3l-0.1,0h0l0-0.1l-0.1,0l0-0.1L1,105c0,0,0,0,0-0.1l-0.1,0l0-0.4l0-0.3l0-0.1L0.9,104l0-0.1
		l0.1-0.1l0-0.1l0-0.1l0-0.1l0.1-0.2l0.1-0.2l0.1-0.2l0,0l0.1-0.4l0-0.1l0-0.1l0.1-0.1l0,0l0.1-0.5l0.1-0.5l0.1-0.4l0.1-0.4v0v-0.1
		l0.1-0.3l0.1-0.2l0.1,0h0.1l0.1-0.2l0.4-0.3l0.1,0L3,99.6l0,0.1c0,0,0,0.1,0,0.1c0,0.1,0,0.1-0.1,0.1l0,0.1l-0.2,0.6l-0.2,0.5
		l0,0.2l-0.1,0.2l-0.1,0.1l0,0.1l0,0l-0.1,0.1l-0.1,0.3h0l0,0L2,102.2c-0.1,0.1-0.1,0.1-0.1,0.2l0,0l0,0.1l-0.1,0.2v0l-0.1,0.1
		l-0.1,0.2v0.1l0,0c-0.1,0.5-0.4,1.4-0.2,1.5c0,0,0.1,0,0.1,0l0,0l0.1,0h0.1l0.2-0.1l0.2-0.2l0.4-0.2l0.1,0l0.1,0l0.2-0.2l0.1-0.1
		l0.2-0.2l0.2-0.2l0.1-0.1L3.5,103.4L3.5,103.4z"/>
	<path class="st1" d="M15.6,103.8l-0.2,0.1l-0.3,0.1l-0.2,0l-0.1,0.1l0,0l-0.1,0l-0.2,0.1l-0.2,0.1l0,0l-0.1,0l-0.1,0l-0.3,0.1
		l-0.1,0.1l-0.3,0.2l-0.1,0.1l-0.1,0.1l-0.2,0.1l-0.2,0.1l-0.1,0l-0.3,0.1l-0.3,0.1l-0.2,0l-0.3,0l-0.2,0.1l-0.4-0.1
		c-0.2-0.1-0.3-0.1-0.4-0.3l-0.1-0.1l0-0.1c0-0.1,0-0.3,0.1-0.5v-0.1l0.1-0.4l0.1-0.4l0-0.1l0.1-0.2l0.1-0.1l0-0.1l0.1-0.1
		c0-0.1,0.1-0.1,0.1-0.2l0.1-0.2l0.1-0.1l0.1-0.1l0.1-0.1l0.1-0.2l0.2-0.2l0.1-0.1l0.1-0.1l0.2-0.1l0.4-0.6l0.1-0.3l0.2-0.3l0.1-0.1
		l0.1-0.1l0.1-0.1l0-0.2v-0.1l0.1-0.1l0.1-0.1l0.1,0h0v0l0.1-0.1l0.1-0.1c0.1-0.1,0.2-0.2,0.3-0.1c0,0,0,0,0.1,0l0.1,0l0,0l0.1,0
		l0.1,0l0.1,0.1v0.1l0,0.2l-0.1,0.2l-0.2,0.2l-0.1,0.1l-0.1,0.1h0l-0.1,0l-0.3,0.3l0,0.1l0,0l-0.3,0.3c0,0-0.1,0.1-0.1,0.1l0,0.1
		l-0.2,0.1l-0.1,0.2l-0.1,0.1l0,0.1l-0.1,0.1l-0.1,0.1l0,0.1l-0.2,0.3l-0.3,0.3l-0.1,0.2l-0.1,0.2l-0.2,0.4
		c-0.1,0.2-0.2,0.2-0.2,0.2l-0.1,0.3l0,0.1l-0.1,0.3l-0.1,0.4v0.1l0,0.2c0,0.2,0.1,0.2,0.1,0.2l0.1,0l0.1,0h0.1l0.1,0l0.1,0l0.1,0
		l0.1,0H12l0.4-0.1h0.1c0.1,0,0.2-0.1,0.3-0.1l0.1-0.1l0.2-0.1l0.2-0.1l0.4-0.1l0.3-0.1l0.2,0l0.6-0.3l0-0.1h0.1l0.3-0.2l0,0l0-0.1
		l0.1-0.1h0.1l0.1-0.1l0.1,0l0.1-0.1l0.2-0.1l0.2-0.1l0.2-0.1l0.1-0.1l0.2-0.1l0.1,0l0.1-0.1l0.4-0.2h0.1l0.1-0.1l0.1,0l0.1-0.1
		c0,0,0,0,0.1,0l0.1-0.1l0.1-0.1l0.1-0.1l0.1-0.1l0.2-0.1l0.1-0.1c0.1-0.1,0.3-0.2,0.5-0.3l0-0.1h0.1l0.1,0l0.1,0.1l-0.1,0.1l-0.1,0
		l-0.1,0.1l0,0.1l0,0h0v0l-0.2,0.1h-0.1l-0.6,0.4l-0.2,0.1l-0.2,0.1l-0.2,0.1l-0.1,0.1c-0.4,0.2-0.7,0.5-1,0.6l-0.1,0.1l-0.1,0
		l-0.2,0.1l-0.1,0l0,0L15.6,103.8z M17.2,95.3L17,95.6L17,95.6l-0.1,0.1v0l-0.2,0l-0.2,0l-0.1,0.1L16.3,96l0,0l-0.1,0l-0.1,0.1
		l-0.2,0.1l-0.1,0.3l-0.2,0.1l-0.1,0.1l-0.1,0.1v0L15.1,97l0-0.1l0.1-0.1c0,0,0-0.1,0-0.1l0.2-0.3l0-0.1l0.1-0.3l0.1-0.1l0.2-0.2
		l0.1-0.1l0,0l0.2-0.2l0.1-0.1l0.1-0.1l0.1-0.1h0l0.1-0.1h0l0.1,0v0l0.1-0.1l0.2-0.1l0.1,0.1l0.2,0.1l-0.1,0.2l0,0.1L17.2,95.3z"/>
	<path class="st1" d="M29.4,105.2l-0.2,0.1l-0.1,0.1l-0.1,0.1l-0.2,0.1l-0.3,0.1l-0.2,0.1l-0.1,0l-0.1,0l-0.1,0.1v0l0,0v0H28
		l-0.2,0.1l-0.2,0c0,0-0.1,0-0.1,0l-0.1,0l-0.3,0l-0.2-0.2l0,0l-0.1-0.2l-0.1-0.3l0-0.1l-0.1-0.2l0.1-0.5c0-0.2,0.1-0.3,0.1-0.6V104
		l0-0.1l0,0v-0.4l0.1-0.3l0-0.1l0-0.1l0-0.1l0-0.1l0,0c0,0,0,0,0,0l0-0.1l0-0.1l0.1-0.1l0.1-0.4l0-0.1l0-0.1l0-0.1l0,0l0.1-0.2
		l0-0.1v0l0-0.1l0-0.1l0,0l0,0l0,0l0.1-0.1v-0.1l0.1-0.2l-0.1-0.2l0-0.1l-0.1-0.2l-0.1-0.1c0,0,0,0,0,0l-0.1-0.1l-0.4,0.4l-0.3,0.4
		l-0.4,0.3l-0.3,0.3l-0.2,0.2l0,0.1l0,0l-0.5,0.5l-0.1,0l-0.2,0.2l-0.1,0.1c-0.1,0.1-0.3,0.2-0.4,0.4l-0.1,0.2l-0.1,0.2l-0.2,0.1
		l-0.2,0.2l-0.1,0.1l-0.1,0.1l-0.2,0.1l-0.1,0.1l-0.1,0.1l-0.2,0.1l-0.5,0.4l0,0l0,0.1h-0.1l-0.1,0.1l0,0c-0.5,0.3-1.1,0.5-1.5,0.5
		c-0.1,0-0.5-0.2-0.5-0.2c0-0.1,0-0.1,0-0.1h0l-0.1-0.2l0-0.3l0-0.2l0.1-0.2l0.1-0.2l0-0.1l0.1-0.1l0.2-0.4v0l0.1-0.1l0.4-0.3
		l0.1-0.1l0-0.2l0-0.1l0.1-0.1l0.8-0.7h0c0.2-0.2,0.5-0.4,0.7-0.6l0,0l0.2-0.1l0.1-0.1l0.3-0.2l0.1-0.1l0.1-0.1l0.2-0.1l0.2-0.1
		l0.2-0.2l0,0h0c0.2-0.1,0.4-0.2,0.7-0.3l0.1-0.1l0.1,0h0.1l0.2-0.1l0.2-0.1l0.1,0h0.1c0.1,0,0.2-0.1,0.3-0.1c0.2-0.1,0.5,0,0.8,0
		h0.1l0.1,0.1h0.1c0,0,0.1,0,0.1,0.1l0.2,0.4l0.1-0.1l0-0.1l0.2,0l0.4-0.4l0.1-0.1l0.1-0.1l0.4-0.4l0.2-0.3l0.3-0.3l0.3-0.4l0.4-0.4
		l0.5-0.6v0h0l0.3-0.4l0.2-0.3l0.1-0.2l0.1-0.1l0.1-0.1l0.2-0.2V95l0.1-0.1l0.1-0.1l0.2-0.2l0.4-0.5l0.1-0.1l0,0h0l0.4-0.5l0.1-0.1
		l0.1-0.1l0-0.1l0.1-0.2v0l0.1,0l0-0.1l0.1-0.1l0.3-0.4l0.1-0.1l0.1-0.1l0.3-0.4l0.1-0.1l0.3-0.4l0.2-0.2l0.1-0.1v0l0.3-0.4l0.1-0.2
		l0.1-0.1l0.2-0.1l0.1-0.1l0,0v-0.1l0-0.1v0l0.1-0.1v0l0,0l0.1-0.1h0v0l0.1-0.1l0.1,0l0.1,0l0,0l0.1,0l0,0h0.1l0.1,0l0.1,0l0.1,0.2
		l0.1,0.1l-0.2,0.4L36,90.3h0l0.1,0.1l0,0.1l-0.1,0.1l-0.2,0.2l-0.1,0.1l-0.1,0l0,0.1l-0.1,0l-0.3,0.1l-0.2,0.1h0l-0.2,0.3l-0.1,0.1
		l-0.1,0.2L34.4,92l-0.3,0.3l-0.1,0.2l-0.1,0l-0.1,0.1l-0.1,0.1l-0.5,0.6l-0.3,0.4l-0.3,0.3l0,0.1l-0.2,0.4l-0.1,0.1l-0.1,0.1
		L32.1,95l0,0L32,95.1l-0.1,0.2l0,0.1l-0.1,0.1l-0.5,0.6v0h0l-0.1,0.2v0.1l-0.6,0.8l-0.1,0.1l-0.4,0.5v0h0c-0.5,0.7-0.9,1.3-1.1,1.6
		v0l0,0l-0.1,0.1l-0.1,0.1v0l0,0c-0.3,0.4-0.5,0.8-0.7,1.3l0,0c0,0,0,0.1,0,0.1h0v0l0,0.1l0,0.1l0,0.2l0,0l-0.1,0l0,0l-0.1,0v0.1
		l-0.1,0.3h-0.1l0,0l-0.1,0.1l0,0h-0.1l-0.1,0.1l-0.2,0.4h0l-0.1,0.1l0,0.3l-0.1,0.3l-0.1,0.4l-0.1,0.4l-0.1,0.1l0,0.1
		c0,0.1,0,0.1,0,0.2c0,0.6,0.1,0.9,0.4,1l0.1,0l0,0c0.1,0,0.1,0,0.2,0l0.1-0.1l0.3-0.1l0,0l0.2-0.1l0.1,0h0.2h0.1
		c0.4-0.2,0.8-0.4,1.2-0.6l0.2-0.2l0.1-0.1l0,0l0,0l0,0l0.1-0.1l0.2-0.1l0.2-0.1l0.5-0.4l0.2-0.1l0.3-0.2l0.1-0.1l0.3-0.2l0.1,0
		l0.1-0.1l0.2-0.2v0l0.1,0l0.3-0.3l0.2-0.1l0.2-0.1l0,0l0.5-0.4l0,0l0.2-0.1l0-0.1l0,0h0.1l0,0l0-0.1l0.1,0h0.1l0,0h0.1l0.1,0.1
		l-0.1,0.1l-0.1,0c0,0,0,0,0,0h0l-1.3,1l-0.1,0.1l-0.1,0l-0.1,0.1l-0.1,0c-0.3,0.2-0.6,0.5-0.9,0.7l-0.3,0.2l0,0l-0.1,0l-0.1,0.1
		l-0.1,0l-1.1,0.7l-0.1,0.1l-0.2,0.2l0,0h0l-0.1,0.1l0,0.1l-0.1,0l0.1,0v0.1l-0.1,0.1H29.4l0.1-0.1L29.4,105.2L29.4,105.2z
		 M21.5,102.3l-0.2,0.2l-0.2,0.1l-0.1,0.2l-0.1,0.1l-0.1,0.2l-0.1,0.3l0,0.2l0,0.1v0.1l-0.1,0.2l0,0.2l0,0.3l0,0.2l0,0.1l0,0l0.1,0
		h0.1l0.1,0c0.1,0,0.1-0.1,0.2-0.1l0.1-0.1l0.2-0.1l0.1-0.1l0.2-0.1l0.2-0.1c0,0,0,0,0.1,0c0.3-0.2,0.6-0.4,0.8-0.6l0,0l0.2-0.1
		c0.1,0,0.1-0.1,0.2-0.1l0.1-0.1l0.1-0.1l0.3-0.3l0.1-0.1l0.1-0.1l0.1,0l0.3-0.1c0.4-0.4,0.8-0.8,1.4-1.3l0.4-0.4l0-0.1l0.3-0.3
		l0.2-0.2v0l0.1-0.1l0.1-0.2l0.1-0.2l-0.1-0.2l-0.2-0.2l-0.1,0l0,0c-0.4-0.1-1,0.1-1.5,0.3l-0.3,0.2l-0.1,0.1l-0.1,0
		c0,0-0.1,0.1-0.1,0.1c-0.5,0.3-0.8,0.3-1.7,1.1l-0.2,0.3l-0.2,0.2l-0.2,0.2v0l0,0.1l-0.2,0.1l-0.1,0.1l-0.1,0.2L21.5,102.3
		L21.5,102.3L21.5,102.3L21.5,102.3z M27.4,100.2L27.4,100.2L27.4,100.2l0.1,0.2l0,0.1l0.1,0l0,0.1v0l0.1-0.1v0h0l0-0.1h0v0h0
		l0.1-0.2l0,0l0-0.1l0.1-0.1l0-0.2l0.1,0l0.1-0.1l0.1-0.1l0.1-0.1l0,0l0.2-0.3v0l0.1-0.1l0.1-0.2l0.1-0.1c0.3-0.5,0.6-0.9,1-1.4
		c-0.4,0.4-1,1-1.5,1.5l-0.3,0.3l-0.1,0.1h0l-0.7,0.8C27.4,100.1,27.4,100.2,27.4,100.2z"/>
	<path class="st1" d="M36.4,102.9L36.4,102.9l-0.1,0.2l-0.1,0.1c0,0,0,0,0,0v0.1l-0.1,0.1l0,0.5c0,0,0,0.3,0,0.4
		c0.1,0.1,0.1,0.1,0.5,0.3l0.3,0.1h0.2l0.3,0l1.3-0.3l0.3-0.1l0.7-0.2l0.1-0.1l0.1,0h0l1.1-0.5h0.1l0.1-0.1l0.2,0l0.6-0.2l0.1,0
		c0.7-0.3,0.9-0.4,1.6-0.7l0.4-0.1l0,0l0.1-0.1l0.3-0.1l0.4-0.1v0h0.1l0.2-0.1l0,0l1-0.6l0.1,0c0.1-0.1,0.3-0.2,0.4-0.3
		c0,0,0.1,0,0.1,0v0l0.1-0.1l0.1,0l0.1,0.2l-0.1,0l-0.2,0.1l-0.1,0l-0.4,0.3l-0.1,0.1h-0.1l-0.1,0c-0.2,0.1-0.4,0.2-0.5,0.3l0,0
		l-0.1,0.1l-0.1,0.1h-0.1l-0.6,0.3l0,0l-0.1,0l-0.1,0.1l0,0l-0.3,0.2l-0.7,0.3c-0.2,0.1-0.4,0.2-0.7,0.3l-0.1,0.1l-0.9,0.4l-0.1,0.1
		l0-0.1l-0.2,0.1l-0.2,0l-0.1,0.1h0c-0.2,0.1-0.5,0.2-0.7,0.3l-0.3,0.1l-0.6,0.3l-0.1,0l-0.2,0l-0.3,0.1l-0.2,0l-0.1,0l-0.1,0.1
		l-0.2,0.1h0c-0.2,0.1-0.5,0.1-0.7,0.2l-0.1,0.1l-0.1,0h0l-0.4,0.1l-0.1,0l-0.2,0.1l-0.4-0.1l-0.4-0.2l-0.2-0.3l-0.1-0.2l-0.1-0.3
		v-0.3l0,0l0,0v-0.1l0.1-0.5l0.1-0.2l0.1-0.3l0.1-0.2l0,0l0.1-0.1l0.1-0.1l0.1-0.1l0.1-0.2l0.1-0.1l0.2-0.1l0.1-0.1l0.1-0.1l0.1-0.1
		l0,0l0.2-0.2l0.2-0.1l0.1-0.2l0.1-0.1l0.1-0.1l0.1-0.1l0.1,0l0-0.1l0.1-0.1l0.1-0.1l0.1,0c0.4-0.3,0.8-0.6,1.3-0.9l0,0l0.2-0.1
		l0.2-0.1c0,0,0,0,0,0l0.2-0.1l0.1-0.1l0.1,0l0.3,0c0.2-0.1,0.4-0.1,0.6-0.2l0.2-0.1h0.2l0.1,0l0.1,0c0.1,0,0.3,0,0.4,0l0,0l0.1,0
		l0,0l0.1,0l0,0l0.1,0v0h0l0,0l0.1,0h0.1l0,0h0l0.1,0.1l0,0C42.9,99,43,99,43,99.1l0.1,0l0,0h0l0,0v0.1l0,0.1l0,0.1l0,0.1v0.1
		l-0.1,0.3l-0.1,0.2l-0.2,0.2l-0.2,0.1l-0.2,0.1l-0.6,0.3l-0.1,0.1l-0.1,0c-0.4,0.3-0.9,0.6-1.3,0.8l0,0l-0.5,0.3l-0.2,0.2l-0.5,0.2
		l-0.4,0.1l-0.5,0.1l-0.3,0h-0.1l-0.1-0.1l0-0.1l0-0.1l0.1-0.3l0.3-0.2l0.2-0.1h0.1l0.1,0l0.1,0h0.2l0.2,0l0.2-0.1h0.1l0-0.1
		l0.5-0.2l0.5-0.2l0.2-0.1l0.1-0.1l0.2-0.1l0-0.1l0.3-0.1l0.1-0.1l0.2-0.2l0.8-0.7l0.1-0.1l0-0.1l0-0.1l0.1-0.3l0,0l0,0l0-0.1
		l-0.1-0.1l-0.1-0.1l-0.1,0h-0.2l-0.1,0l-0.1,0c-0.5,0.1-1,0.4-1.3,0.5l-0.2,0.1l-0.1,0.1L40,99.8l-0.1,0c0,0,0,0,0,0v0l-0.1,0l0,0
		h0l-0.4,0.2l-0.2,0.2l-0.1,0.1l-0.2,0.1l-0.1,0c-0.2,0.1-0.3,0.2-0.5,0.4l-0.1,0.1l-0.2,0.2l-0.1,0.1l-0.2,0.2l-0.3,0.3l-0.3,0.3
		l-0.1,0.1l-0.1,0.2l-0.1,0.2l-0.2,0.2L36.4,102.9z"/>
	<path class="st1" d="M52.5,101.7l-0.1,0.1c0,0,0,0.1,0,0.1l-0.1,0.2l-0.1,0.2l-0.2,0.1l-0.2,0.2l-0.1,0.1l-0.1,0.1l-0.1,0.1l0,0
		c-0.3,0.3-0.7,0.5-1.1,0.8v0h-0.1l-0.2,0.1v0l0,0H50c0,0,0,0,0,0v0.1h-0.1l-0.1,0.1h0l-0.1,0.1l-0.1,0l-0.1,0.1l-0.1,0.1l-0.1,0
		l-0.2,0l-0.1,0l-0.1,0h0c-0.3,0.1-0.6,0.2-0.8,0.3l-0.1,0.1l-0.1,0l-0.1,0.1l-0.1,0l-0.1,0h-0.1l-0.4,0l-0.3,0v0c0,0-0.1,0-0.1,0
		c-0.1,0-0.2,0-0.3-0.1c-0.1-0.1-0.5-0.2-0.5-0.4v-0.2l-0.1,0l0-0.1l0.1-0.3l0.1-0.3l0.1-0.1l0.2-0.2l0.1-0.1l0-0.1l0.3-0.2l0.3-0.3
		l0.1-0.1l0.1-0.1l0.4-0.3l0.1-0.1l0.1,0l0,0l0.1-0.1l0-0.1l0,0l0.4-0.3l0.1-0.1l0.1,0l0.2-0.1l0.1-0.1l0.2-0.1l0.3-0.1l0.2-0.2
		l0.1-0.1l0.2-0.1c0.2-0.1,0.4-0.2,0.5-0.3l-0.3,0c-0.1,0-0.2,0-0.4,0l-0.1,0l0,0l-0.1,0h-0.2c-0.2,0-0.4,0.1-0.6,0.1h0l-0.4,0
		l-0.2-0.1l-0.1-0.1l-0.1-0.1l0-0.1l0.1-0.2l0.1-0.1l0.2,0l0.2,0l0.1,0.1l0.3,0.1c0.3,0,0.6,0,0.9,0.1l0.2,0l0.3,0l0.4-0.1l0.1,0
		l0.3,0c0.1,0,0.1-0.1,0.2-0.1l0.2-0.1l0.1-0.1l0.1,0l0.1-0.1l0.1,0l0.2,0c0.1,0,0.3,0,0.4,0l0.1,0l0.1,0.1c0.1,0,0.1,0.1,0.2,0.1
		l0.5-0.1l0,0l0.2-0.1l0.3,0l0.3-0.1l0.1,0l0.2,0h0.4l0.1,0l0.2,0h0c0.1,0,0.2,0,0.2,0c0.1,0,0.2,0,0.3,0l0.1,0l0,0h0l0,0h0.1l0.1,0
		h0.1l0.2,0h0l0.1,0l0.1,0.1h0.1l0.1,0l0.1,0l0.1,0c0.2,0,0.4,0.1,0.5,0.1l0.1,0.1h0.1l0.1,0.1c0.1,0.1,0.2,0.1,0.3,0.2h0l0.1,0.1
		l0.1,0l0.1,0.1l0.1,0.1v0.1l-0.1,0.1l-0.1,0.1l-0.2,0.3l-0.1,0.1v0c0,0,0,0,0,0.1l-0.1,0.1l-0.1,0v-0.1l0-0.1v0
		c0-0.1,0.1-0.2,0.1-0.2l0-0.1l0.1-0.3c0,0,0,0,0-0.1l-0.1-0.1l-0.2-0.1l-0.1-0.1l-0.3-0.1c-0.4-0.1-0.9-0.1-1.2-0.1h-0.3l-0.2,0
		c-0.2,0-0.3,0-0.5,0.1c-0.8,0.1-1.4,0.1-1.9,0.2l0,0l-0.2,0l-0.1,0.1l-0.3,0c-0.3,0-0.6,0.1-0.9,0.1L52,100h-0.1l-0.3,0l-0.1,0.1
		c0.2,0.1,0.4,0.1,0.5,0.2h0l0.1,0.1l0,0l0.1,0.1l0.1,0.1l0.2,0.2l0.1,0.1l0.1,0.2l0,0.3C52.6,101.5,52.6,101.6,52.5,101.7z
		 M52.1,101.5v-0.1l0.1-0.2l0-0.3v0l-0.1-0.2l-0.1-0.1l-0.1-0.1l-0.1-0.1l-0.1-0.1l-0.2-0.1l-0.1-0.1l-0.1,0c0,0,0,0,0,0
		c-0.2,0.1-0.5,0.3-0.8,0.6l-0.2,0.1L50,101l-0.7,0.4l-0.2,0.1l-0.1,0.1l-0.4,0.2l0,0l-0.1,0.1l-0.3,0.1l-0.2,0.1l-0.2,0.1l-0.1,0.1
		l-0.3,0.2l0,0l-0.2,0.2l-0.2,0.2l-0.1,0.1c0,0,0,0,0,0c-0.1,0.1-0.2,0.3-0.3,0.5v0l0,0.1l0,0.1v0.1l0,0l0,0.1
		c0,0.1,0.1,0.3,0.1,0.4h0l0.1,0.1c0,0,0.1,0,0.1,0c0.6,0,0.7,0,1.3-0.2c0.3-0.1,0.5-0.2,0.8-0.3l0,0h0.1l0.2-0.1l0.1-0.1l0.3-0.2
		l0.1,0h0l0.6-0.4l0.1-0.1l0,0c0.1-0.1,0.3-0.2,0.4-0.4l0.1-0.1l0-0.1l0.1-0.1l0.1-0.1l0.1-0.1l0.1,0l0-0.1l0.1-0.1l0-0.1h0
		C51.9,101.9,52,101.7,52.1,101.5z M52.8,99.5c-0.1-0.1-0.4,0-0.6,0.1L52.8,99.5z"/>
</g>
</svg>
