<?xml version="1.0" encoding="utf-8"?>
<!-- Generator: Adobe Illustrator 25.2.1, SVG Export Plug-In . SVG Version: 6.00 Build 0)  -->
<svg version="1.1" id="レイヤー_1" xmlns="http://www.w3.org/2000/svg" xmlns:xlink="http://www.w3.org/1999/xlink" x="0px"
	 y="0px" viewBox="0 0 113.7 88.7" style="enable-background:new 0 0 113.7 88.7;" xml:space="preserve">
<style type="text/css">
	.st0{fill:#C6171E;}
	.st1{fill:#FFFFFF;}
</style>
<g>
	<path class="st0" d="M31.5,9.1c1.7-1.3,3.5-2.5,5.2-3.8c1.3-1,3.3-2,3.4-3.8c0-0.5-0.6-0.7-0.9-0.4C37,3,35,5.1,33.1,7.3
		c-0.5,0.6,0.2,1.2,0.8,0.8c0.8-0.7,1.7-1.3,2.5-2c-0.3-0.3-0.5-0.5-0.8-0.8c-1,1.1-2.2,1.9-3.6,2.4c-0.7,0.2-0.4,1.3,0.3,1.1
		c1.6-0.5,3-1.4,4.1-2.7c0.5-0.5-0.2-1.2-0.8-0.8c-0.8,0.7-1.7,1.3-2.5,2c0.3,0.3,0.5,0.5,0.8,0.8c1.9-2.2,3.9-4.3,6.1-6.2L39,1.5
		c0,0.7-0.6,1.2-1.1,1.6c-0.7,0.6-1.5,1.1-2.2,1.6C34.1,5.9,32.5,7,31,8.1C30.4,8.5,31,9.5,31.5,9.1"/>
	<path class="st0" d="M47.4,63.3c-1.2,1-2.6,1.6-4.1,1.9c-0.7,0.1-1.5,0.2-2.3,0c-0.4-0.1-1.7-0.5-1.1-1.1c0.3-0.3,0.7-0.4,1-0.6
		c0.4-0.2,0.8-0.4,1.3-0.7c0.8-0.4,1.6-0.8,2.5-1.1c0.7-0.2,1.5-0.4,2.3-0.1c0.3,0.1,0.5,0.3,0.7,0.6c0,0,0.1,0.2,0.1,0.2
		c0.1,0.1-0.1-0.1,0.1-0.1c-0.2,0-0.5,0.2-0.7,0.3c-2,0.7-3.9,1.2-6,1.7c0.1,0.3,0.3,0.7,0.4,1c1.6-0.7,3.2-1.5,4.7-2.2
		c0.6-0.3,0.1-1.3-0.6-1L41,64.4c-0.6,0.3-0.2,1.1,0.4,1c1.2-0.3,2.3-0.6,3.5-0.9c0.6-0.2,1.1-0.3,1.6-0.5c0.6-0.2,1.2-0.3,1.7-0.6
		c1-0.5,0.5-1.7-0.1-2.2c-0.7-0.7-1.7-0.9-2.7-0.7c-1.1,0.1-2.2,0.7-3.2,1.2c-0.5,0.2-1,0.5-1.5,0.8c-0.5,0.3-1.1,0.5-1.5,0.9
		c-0.8,0.6-0.7,1.7,0,2.4c0.7,0.7,1.9,0.8,2.8,0.8c2.3,0,4.5-0.9,6.2-2.3C48.8,63.6,48,62.9,47.4,63.3"/>
	<path class="st0" d="M49.9,74.4c-1.1,0.5-2.4,0.9-3.6,0.9c-0.6,0-1.1-0.2-1.6-0.5c-0.5-0.3-1-0.7-1.6-0.6c0.1,0.3,0.2,0.7,0.3,1
		c2.2-1.1,4.8-1,7,0.1c0.6,0.3,1.2-0.6,0.6-1c-2.5-1.3-5.6-1.3-8.1-0.1c-0.5,0.2-0.3,1.1,0.3,1c0.6-0.1,1.1,0.5,1.6,0.7
		c0.6,0.3,1.2,0.4,1.8,0.4c1.3,0,2.6-0.5,3.8-0.9c0.3-0.1,0.5-0.4,0.4-0.7C50.5,74.5,50.2,74.3,49.9,74.4"/>
	<g>
		<path class="st1" d="M44.5,26.7c0.1-0.1,0-0.4,0.3-0.3c0.2,0.1,0.2-0.2,0.4-0.2c0.2,0,0.2,0.2,0.4,0.2c0.2-0.1,0-0.3,0.1-0.4
			c0.2-0.1,0.3,0.2,0.5,0.1c0.2,0,0.1-0.3,0.3-0.4c0.2,0,0.3,0.1,0.5,0.1c0.1-0.2,0.3-0.4,0.6-0.4c0.1,0,0.1,0,0.2-0.1
			c0.1-0.1,0.2-0.1,0.3-0.1c0.4,0.2,0.7,0,1-0.3c0.2-0.3,0.3-0.2,0.6-0.1c0.2,0,0.2-0.2,0.4-0.3c0,0,0.1,0,0.1,0
			c0.3,0.2,0.6-0.1,0.9-0.1c0.2,0,0.3-0.1,0.5-0.1c0.6-0.3,1.2-0.5,1.8-0.7c0.2-0.1,0.4-0.1,0.6-0.2c0.1,0,0.1-0.1,0.2,0
			c0.1,0.2,0.3,0.1,0.3,0c0.2-0.3,0.5-0.4,0.8-0.4c0.3,0,0.6-0.1,0.9-0.3c0.4-0.3,1-0.4,1.5-0.6c0.1-0.1,0.3-0.1,0.5-0.2
			c0.3-0.2,0.6-0.2,0.9-0.3c0.1,0,0.2,0,0.3-0.1c0.5-0.5,1.3-0.6,1.9-0.8c0.7-0.2,1.4-0.5,2.1-0.7c0.1,0,0.2-0.1,0.3-0.1
			c0.1,0,0.2,0,0.2-0.1c0-0.1,0.1-0.1,0.2-0.1c0.3-0.1,0.5-0.2,0.8-0.3c0.7-0.2,1.3-0.4,2-0.7c0.3-0.1,0.7-0.2,1-0.1
			c0.3-0.4,0.7-0.6,1.2-0.5c0.1,0,0.2,0,0.2-0.1c0.2-0.3,0.5-0.3,0.9-0.2c0.2-0.2,0.4-0.5,0.8-0.4c0.3-0.3,0.7-0.2,1-0.5
			c0.2-0.2,0.5-0.2,0.8-0.2c0.3,0.1,0.5,0,0.7-0.1c0.3-0.2,0.6-0.3,0.8-0.4c0.1,0,0.2-0.1,0.3-0.1c0.9-0.1,1.6-0.6,2.5-0.6
			c0.1,0,0.3,0,0.4-0.1c0.1-0.1,0.2-0.1,0.3-0.1c0.4,0.1,0.7-0.1,1-0.2c0.2-0.1,0.5-0.3,0.8-0.1c0,0,0,0,0.1,0
			c0.5-0.3,1.1-0.3,1.6-0.5c0.4-0.2,0.9-0.2,1.4-0.3c0.8-0.1,1.6-0.3,2.4-0.4c0.1,0,0.2,0,0.3,0c0.3,0.1,0.6,0,0.8-0.1
			c0.4-0.1,0.8-0.2,1.2-0.3c1-0.2,2.1-0.4,3.1-0.7c0.4-0.1,0.8-0.4,1.2-0.4c0.2,0,0.4-0.1,0.7-0.1c0.1,0,0.2,0,0.3-0.1
			c0.1,0,0.2-0.1,0.3-0.1c0.7,0,1.3-0.3,2-0.2c0.4,0,0.9,0.1,1.3,0.1c0.3,0,0.6,0.1,0.9,0.3c0.3,0.2,0.6,0.3,0.9,0.2
			c0.2,0,0.4,0,0.6,0.1c0.3,0.1,0.6,0.2,0.8,0.1c0.5,0,1,0.1,1.4,0.2c0.1,0,0.2,0,0.3,0.1c0.9,0.4,1.6,1,2.2,1.8
			c0.6,0.8,0.5,1.7,0,2.5c-0.2,0.3-0.4,0.6-0.7,0.9c-1.1,1-2.3,1.8-3.8,2.2c-0.4,0.1-0.7,0.2-0.9,0.6c0,0,0,0,0.1,0
			c0.3,0,0.5-0.3,0.8-0.3c0.3,0,0.5,0,0.8-0.2c0.4,0.1,0.7-0.2,1-0.4c0.2-0.1,0.4-0.2,0.7-0.1c0.3,0.1,0.4-0.2,0.7-0.2
			c0.3-0.1,0.5-0.2,0.8-0.2c0.1,0,0.2,0,0.2,0c0.5-0.3,1-0.3,1.6-0.3c0.5,0,1-0.1,1.5-0.1c0.5,0,1,0.2,1.5,0.3
			c0.6,0.1,1.1,0.5,1.7,0.7c0.7,0.3,1.4,0.6,2.2,0.9c0.9,0.4,1.8,1,2.4,1.8c0.4,0.6,0.5,1.2,0.3,1.9c-0.3,1-0.9,1.8-1.5,2.6
			c-0.4,0.5-1,0.9-1.5,1.3c-0.3,0.2-0.6,0.5-0.9,0.8c-0.8,0.9-1.9,1.7-2.9,2.3c-1.1,0.7-2.3,1.2-3.5,1.7c-1.9,0.8-3.7,1.5-5.6,2.3
			c-1.5,0.7-3,1.3-4.5,2.2c-1.4,0.8-2.8,1.5-4.1,2.2c-1.5,0.8-2.9,1.5-4.4,2.2c-1.4,0.6-2.8,1.3-4.3,1.9c-2,0.9-3.9,1.9-5.8,2.8
			c-1.4,0.7-2.7,1.5-4.2,2.1c-1.3,0.5-2.5,1-3.8,1.6c-0.1,0.1-0.3,0.1-0.4,0.2c0,0.2,0.1,0.2,0.2,0.2c1.3,0.4,2.5,0.9,3.7,1.4
			c0.3,0.2,0.7,0.3,1.1,0.4c0.2,0.1,0.3,0.2,0.4,0.3c0.6,1.1,1.2,2.2,1.4,3.5c0.1,0.4,0.1,0.8,0.1,1.3C73,58.9,72.9,60,72.6,61
			c-0.2,0.5-0.4,0.9-0.7,1.3c-0.7,0.8-1.5,1.4-2.3,2c-0.2,0.1-0.3,0.2-0.4,0.4c0,0.2,0.2,0.2,0.3,0.2c1.2,0,1.8,0.7,2.4,1.6
			c0.5,0.7,0.8,1.5,0.8,2.3c0.2,1.4,0.2,2.7-0.2,4.1c-0.2,1-0.8,1.7-1.6,2.4c-1.4,1.1-2.8,2.2-4.5,2.8c-0.7,0.3-1.5,0.5-2.2,0.6
			c-0.7,0.1-1.3,0.3-1.9,0.6c-1.7,0.9-3.3,1.8-5,2.6c-1,0.5-2,1.2-2.8,2c-0.4,0.4-0.8,0.7-1.2,1c-0.8,0.7-1.9,0.8-2.9,1
			c-0.8,0.1-1.7,0.2-2.5,0.2c-0.6,0-1.1,0.2-1.7,0.4c-0.9,0.4-1.8,0.8-2.7,1c-1.5,0.4-3.1,0.7-4.7,0.9c-0.7,0.1-1.4,0.1-2.1,0.1
			c-1.2,0.1-2.4-0.1-3.5-0.2c-2.1-0.2-4.1-0.2-6.2,0.1c-0.6,0.1-1.3,0.1-1.9,0.2c-0.1,0-0.3,0-0.4-0.1c-0.2-0.3,0.4-0.6,0-1
			c0.4,0,0.7,0.1,1,0c0.1,0,0.2,0,0.3,0.1c0.2,0.1,0.3,0.1,0.5,0c0.1-0.1,0.3-0.1,0.5-0.1c0.2,0.1,0.4,0,0.6-0.1
			c0.3-0.2,0.6-0.2,0.9-0.1c0.2,0.1,0.6,0.2,0.8-0.1c0.3,0,0.6-0.3,0.8,0.1c0,0.1,0.1,0,0.2,0c0.6-0.2,0.8-0.2,1.4,0
			c0.1,0,0.1,0.1,0.2,0c0.1-0.2,0.3-0.1,0.5-0.1c1,0,2,0.1,2.9,0.1c0,0,0.1,0,0.1,0c0.9,0.2,1.9,0,2.8-0.1c0.5,0,1.1-0.1,1.6,0
			c0.1,0,0.1,0,0.2,0c0.5-0.2,1.1-0.2,1.6-0.3c0.4-0.1,0.7-0.2,1.1-0.2c0.1,0,0.3-0.1,0.4-0.2c0.4-0.3,0.8-0.5,1.3-0.4
			c0.3,0,0.6-0.1,0.8-0.3c0.1-0.2,0.4-0.3,0.5-0.3c0.4,0,0.6-0.1,0.8-0.3c0.1-0.1,0.3-0.2,0.5-0.1c0.2,0.1,0.3,0.1,0.5,0
			c0.3-0.2,0.7-0.2,1-0.4c0.2-0.1,0.5-0.1,0.8-0.1c0.8-0.1,1.7-0.3,2.5-0.5c0.7-0.2,0.7-0.3,1.4-0.7c0.3-0.2,0.5-0.4,0.7-0.6
			c0.2-0.1,0.4-0.3,0.6-0.4c0.2,0,0.3-0.2,0.4-0.4C55,82,55,82,55.5,82c0-0.2,0.1-0.3,0.3-0.4c0.3-0.2,0.6-0.4,0.9-0.6
			c0.1,0,0.1-0.1,0.2-0.1c0.4,0,0.7-0.2,1-0.4c0.6-0.4,1.2-0.6,1.9-0.8c0.4-0.1,0.6-0.4,1-0.6c-0.6-0.1-1,0-1.4,0.1
			c-1.1,0.2-2.1,0.4-3.2,0.5c-1.7,0.2-3.3,0.3-5,0.3c-1-0.1-1.9-0.4-2.8-0.9c-0.6-0.3-1.3-0.7-2-1c-0.7-0.3-1.3-0.5-2-0.6
			c-0.6-0.1-1.1-0.4-1.6-0.7c-0.5-0.3-1-0.7-1.4-1.1c-0.2-0.2-0.4-0.4-0.6-0.7c-0.2-0.2-0.3-0.5-0.2-0.8c0.3-0.6,0.6-1.2,1.3-1.5
			c0.3-0.1,0.4-0.4,0.7-0.4c0.3-0.3,0.8-0.5,1.2-0.7c0.4-0.2,0.8-0.4,1.2-0.6c0.2-0.1,0.3-0.2,0.4-0.1c0.2,0.1,0.4,0,0.6-0.1
			c0.4-0.3,0.8-0.4,1.3-0.4c0.3,0,0.6-0.1,0.9,0c0.3,0,0.6-0.1,0.8-0.3c0.1-0.1,0.2-0.3,0.2-0.2c0.4,0.2,0.6-0.2,0.9-0.3
			c0.4,0,0.7-0.1,1.1-0.2c0.3-0.1,0.7-0.1,1-0.2c0.2,0,0.4-0.1,0.6,0c0.2,0.1,0.5,0.1,0.7-0.2c0.1-0.2,0.3-0.3,0.5-0.2
			c0.3,0,0.4-0.2,0.7-0.3c-0.7,0.1-1.4,0.2-2,0.4c-0.6,0.2-1.2,0.2-1.9,0.1c-0.9-0.2-1.8-0.2-2.7-0.4c-0.4-0.1-0.9-0.1-1.3-0.2
			c-1.5-0.3-3-0.4-4.5-0.6c-0.4,0-0.8-0.1-1.2-0.3c-0.4-0.2-0.8-0.3-1.3-0.3c-0.4,0-0.8-0.1-1.2-0.2c-0.7-0.2-0.9-0.7-1-1.4
			c0-0.1,0-0.3,0-0.5c-0.3-0.7,0-1.3,0.4-1.9c0.5-0.8,1.1-1.3,1.7-2.1c0.2-0.2,0.4-0.5,0.7-0.6c0.2,0,0.1-0.2,0.2-0.3
			c0.4-0.3,0.8-0.6,1.2-0.8c0.1,0,0.2,0,0.2-0.1c0.1-0.2,0.3-0.3,0.5-0.2c0.3,0,0.3-0.1,0.4-0.3c0.2-0.1,0.3,0.1,0.5-0.1
			c0.2-0.2,0.5-0.4,0.8-0.4c0.2,0,0.3-0.1,0.5-0.2c0.2-0.1,0.4-0.2,0.6-0.2c0.4,0,0.7-0.2,0.9-0.6c0.2,0,0.4,0.2,0.5-0.1
			c0.2-0.3,0.6-0.4,1-0.4c0-0.1,0-0.2,0-0.2c0.3-0.1,0.5,0.2,0.8-0.1c0,0,0-0.1,0-0.2c0.3,0,0.6-0.1,0.9-0.2
			c0.4-0.2,0.8-0.3,1.3-0.4c0.2-0.1,0.4,0,0.5,0.2C51,55.8,51,56,51.1,56c0.2,0,0.5,0,0.7-0.2c0.2-0.1,0.4-0.2,0.6-0.3
			c0.3,0,0.4-0.3,0.6-0.5c0.1-0.1,0.2-0.3,0.4-0.2c0.1,0,0.1,0,0.2,0c0.2-0.2,0.6-0.2,0.7-0.5c0.3,0.1,0.5-0.2,0.7-0.4
			c0.4-0.2,0.7-0.4,1.1-0.5c0.2,0,0.3-0.1,0.4-0.2c0.3-0.3,0.6-0.4,1-0.5c0.5-0.2,1-0.4,1.5-0.7c0.1-0.1,0.2-0.1,0.4-0.2
			c1.4-0.4,2.8-1,4.2-1.4c0.4-0.1,0.8-0.1,1-0.4c0,0,0.1-0.1,0.2-0.1c0.4,0.1,0.6-0.2,0.8-0.4c0.3-0.2,0.7-0.3,1-0.5
			c0.7-0.3,1.4-0.6,2.1-0.9c0.1,0,0.2-0.1,0.3-0.1c0.7,0.1,1.2-0.5,1.8-0.6c0.1,0,0.1-0.1,0.2-0.1c0.1-0.3,0.3-0.3,0.6-0.4
			c0.4-0.1,0.8-0.2,1.2-0.5c0.3-0.2,0.7-0.2,0.9-0.3c0.2-0.2-0.1-0.3,0.2-0.4c0.4,0.1,0.7-0.1,1-0.4c0.3-0.2,0.6-0.4,0.9-0.5
			c0.5-0.1,0.9-0.4,1.4-0.6c0.3-0.1,0.6-0.2,0.7-0.5c0,0,0.1-0.1,0.1-0.1c0.7-0.2,1.2-0.7,1.9-0.9c0.1,0,0.2-0.1,0.3-0.1
			c0.4-0.4,1-0.5,1.5-0.8c0.3-0.2,0.4-0.2,0.8-0.1c0-0.2,0.1-0.4,0.4-0.3c0.4,0,0.7-0.2,1-0.4c0.3-0.2,0.7-0.3,1-0.6
			c0.1-0.1,0.2-0.1,0.3-0.1c0.3,0,0.5,0,0.7-0.3c0.1-0.1,0.4-0.1,0.5-0.3c0,0,0.2,0,0.3,0.1c0-0.3,0.2-0.4,0.5-0.4
			c0.3,0,0.6-0.2,0.8-0.4c0.1-0.2,0.3-0.3,0.5-0.4c0.8-0.3,1.5-0.8,2.3-1.2c0.9-0.5,1.8-1.1,2.8-1.5c0.6-0.3,1.3-0.6,1.9-0.9
			c0.6-0.3,1.3-0.6,1.9-0.8c0.4-0.2,0.9-0.2,1.2-0.5c0.7-0.1,1.3-0.7,2-0.7c0.1,0,0.2-0.1,0.2-0.2c0.2-0.1,0.4-0.3,0.6-0.2
			c0.1,0,0.1,0,0.2,0c0.4-0.3,1-0.5,1.5-0.8c0.2,0,0.1,0.2,0.3,0.2c0.2,0,0.2-0.1,0.3-0.2c0.2-0.1,0.4-0.3,0.7-0.4
			c0.6-0.4,1.2-0.8,1.9-1.1c0.2-0.1,0.5-0.2,0.8-0.3c0.3-0.1,0.5-0.1,0.6-0.5c0-0.1,0.1-0.2,0.2-0.2c0.3-0.2,0.6-0.6,0.9-0.7
			c0.2-0.1,0.2-0.2,0.3-0.4c0.2-0.3,0.3-0.6,0.5-0.8c0.4-0.6,0.4-1.3,0.5-1.9c0-0.2,0-0.4,0-0.6c0.1-0.5,0-1-0.2-1.5
			c-0.2-0.5-0.4-1.1-0.7-1.6c-0.9-1.5-2.3-2.2-4.1-2.2c-1.2,0-2.5,0.3-3.7,0.6c-1.5,0.4-3,0.8-4.5,1.3c-1.2,0.4-2.4,0.9-3.5,1.4
			c-1.5,0.7-2.8,1.6-4.2,2.4c-1.2,0.7-2.4,1.3-3.6,1.9c-0.8,0.4-1.5,0.8-2.3,1.2c-0.9,0.4-1.8,0.8-2.7,1.3c-1.5,0.7-3,1.4-4.5,2.1
			c-1.9,0.8-3.8,1.7-5.7,2.6c-2.1,0.9-4.3,1.8-6.5,2.5c-1.2,0.4-2.3,0.8-3.4,1.2c-1,0.4-2,0.8-3.1,1.2c-0.5,0.2-0.6,0-0.6-0.5
			c0-0.7,0.2-1.3,0.3-2c0.1-0.6,0.6-0.9,1.1-1.2c0.5-0.3,1.1-0.5,1.6-0.9c0.6-0.4,1.3-0.6,1.9-1c0.7-0.4,1.5-0.8,2.3-1
			c0.1,0,0.3-0.1,0.4-0.1c0.4-0.4,1-0.5,1.5-0.7c0.5-0.1,0.9-0.3,1.4-0.5c0.3-0.1,0.7-0.1,1-0.2c0.3-0.1,0.7-0.1,1-0.4
			c0.1,0,0.1-0.1,0.2-0.1c0.7,0,1.2-0.6,1.8-0.8c0.1,0,0.1-0.1,0.2-0.1c0.5,0,0.9-0.4,1.3-0.7c0.2-0.2,0.5-0.1,0.6-0.3
			c0.4,0,0.6-0.2,0.9-0.4c0.4-0.2,0.7-0.4,1.2-0.4c0.3,0,0.7-0.1,0.9-0.3c0.1-0.1,0.2-0.1,0.3-0.1c0.1,0,0.3,0,0.3-0.1
			c0.3-0.4,0.8-0.3,1.2-0.5c0.4-0.2,0.8-0.2,1.3-0.4c0.7-0.2,1.4-0.3,2.1-0.7c0.3-0.2,0.7-0.2,1-0.4c0,0,0.2-0.1,0.2,0
			c0.6,0.1,1.1-0.3,1.7-0.3c0.5-0.4,1.2-0.3,1.7-0.5c0.3-0.1,0.6-0.1,0.9-0.3c0,0,0.1,0,0.1,0c1-0.1,1.7-0.8,2.7-1
			c0.5-0.4,1-0.6,1.5-0.8c0.3-0.1,0.6-0.3,0.9-0.4c0.4-0.2,0.7-0.3,1.1-0.6c0.3-0.3,0.8-0.4,1.1-0.5c0.3-0.1,0.6-0.2,0.9-0.4
			c0.5-0.2,1-0.6,1.4-1c0.6-0.5,1.2-1,1.8-1.4c0.6-0.4,0.9-0.9,1.3-1.5c0.2-0.4,0.1-0.9-0.1-1.3c-0.3-0.7-0.8-1.2-1.3-1.7
			c-0.7-0.7-1.5-1.2-2.4-1.6c-0.5-0.3-1.1-0.3-1.7-0.3c-1.1,0-2.2,0.1-3.2,0.5c-2.2,0.8-4.5,1.3-6.9,1.7c-3.1,0.5-6.1,1.2-9.2,2
			c-1.9,0.5-3.7,1.2-5.6,1.8c-2.6,1-5.2,2-7.9,2.9c-2.2,0.8-4.4,1.7-6.7,2.6c-2,0.8-4.1,1.4-6.2,2c-2.1,0.7-4.2,1.3-6.3,2.2
			c-2.3,1-4.7,1.8-7.1,2.4c-0.3,0.1-0.7,0.2-1,0.2c-0.1,0-0.1,0-0.2,0c0-0.4,0.2-0.6,0.5-0.8c0.6-0.4,1.3-0.6,2-0.8
			c1.5-0.5,3-1,4.4-1.6c0.5-0.2,1-0.5,1.5-0.7c0.3-0.2,0.7-0.2,1-0.4C44.3,26.5,44.4,26.7,44.5,26.7 M62.1,66.9
			c0-0.2-0.2-0.3-0.4-0.2c-0.7,0.2-1.4,0.3-2.1,0.6c-0.1,0-0.2,0-0.2,0.2c0.2,0,0.4,0,0.5,0c0.5-0.1,1-0.2,1.4-0.3
			C61.6,67,61.8,66.9,62.1,66.9c0.6,0,1.1-0.2,1.6-0.4c-0.3-0.1-0.6-0.1-0.9,0C62.5,66.5,62.2,66.6,62.1,66.9 M50.7,56.4
			c-0.1-0.1-0.2-0.1-0.3-0.1c-0.2,0.1-0.5,0.1-0.7,0.3c-1.1,0.6-2.3,1.1-3.4,1.5c-1.7,0.7-3.4,1.5-4.9,2.5c-0.1,0.1-0.3,0.2-0.4,0.3
			c0.5,0,1-0.1,1.5-0.3c0.7-0.3,1.4-0.5,2-0.6c0.5-0.1,0.9-0.3,1.4-0.4c0.5-0.1,1.6-0.1,2,0.1c0.1,0.1,0.3,0.1,0.4,0.2
			c0.6,0.3,1,0.7,1.3,1.3c0.3,0.7,0.3,1.5,0.2,2.3c-0.1,1-0.6,1.7-1.5,2.1c-0.6,0.3-1.3,0.6-2,0.8c-0.3,0.1-0.6,0.1-1,0.1
			c-0.4,0-0.9,0-1.3,0c-0.6,0.1-1.1,0.1-1.7,0.3c0.5,0.1,0.9,0.1,1.4,0.1c0.3,0,0.7,0,1,0.2c0.1,0.1,0.3,0.1,0.4,0
			c0.2,0,0.5,0,0.7,0c0.3,0,0.5,0.2,0.7,0.2c0.4-0.1,0.8,0,1.3,0.1c0.7,0.1,1.4,0.1,2.1,0.2c0.5,0.1,1.1,0.2,1.6,0.2
			c0.8,0,1.5-0.3,2.3-0.4c0.7-0.1,1.3-0.3,2-0.5c1.1-0.3,2.3-0.6,3.4-0.8c0.8-0.1,1.6-0.4,2.4-0.5c0.3,0,0.5-0.1,0.8-0.2
			c0.8,0,1.5-0.1,2.3-0.1c0.7-0.1,1.3-0.3,1.9-0.7c0.2-0.1,0.4-0.3,0.7-0.2c0.2,0.1,0.3,0,0.4-0.1c0.5-0.4,1.1-0.6,1.5-1.2
			c0,0,0.1,0,0.1-0.1c0.6-0.4,1.1-0.7,1.5-1.2c0,0,0.1-0.1,0.1-0.1c0.5-0.4,0.7-0.9,0.9-1.5c0.2-0.7,0.2-1.4,0.3-2.1
			c0.1-1.1-0.1-2.2-0.5-3.2c-0.2-0.6-0.6-1.1-0.7-1.7c-0.1-0.3-0.2-0.4-0.5-0.5c-0.4-0.1-0.8-0.3-1.3-0.4c-1.2-0.4-2.4-0.9-3.7-1
			c-0.8-0.1-1.5-0.1-2.2,0.3c-0.2,0.1-0.5,0.2-0.8,0.3c-0.4,0.1-0.8,0.2-1.1,0.3c-0.7,0.3-1.5,0.6-2.2,0.8c-1.3,0.4-2.5,1-3.7,1.6
			c-1.7,0.8-3.4,1.6-5.1,2.3c-0.2,0.1-0.3,0.2-0.5,0.1C50,56.8,50.5,56.7,50.7,56.4 M67.4,66.2c-0.1,0.1-0.2,0.1-0.2,0.1
			c-0.8,0.2-1.5,0.4-2.3,0.6c-1.2,0.4-2.5,0.6-3.8,0.9c-2.6,0.7-5.2,1.3-7.7,2c-0.6,0.2-1.2,0.3-1.9,0.3c-0.7,0.1-1.5,0.2-2.2,0.4
			c-0.7,0.2-1.5,0.5-2.2,0.6c-0.8,0.2-1.6,0.4-2.4,0.7c-0.4,0.1-0.7,0.3-1,0.6c0.1,0.2,0.2,0.2,0.3,0.1c0.7-0.5,1.6-0.5,2.4-0.7
			c1.1-0.2,2.1-0.1,3.2,0.2c0,0,0.1,0,0.1,0c0.4-0.1,0.8,0.1,1.1,0.2c0.6,0.2,1.1,0.5,1.4,1.1c0.6,1.2,0.1,2.8-1.3,3.3
			c-0.3,0.1-0.5,0.2-0.8,0.3c-0.9,0.2-1.8,0.4-2.7,0.5c-0.1,0-0.2,0-0.3,0.2c0.6,0.3,1.1,0.6,1.7,0.8c0.7,0.3,1.4,0.6,2.2,0.6
			c0.2,0,0.4,0,0.5,0.1c0.2,0.3,0.3-0.2,0.5,0c0,0,0.1,0,0.1,0.1c0.2,0.2,0.5,0.1,0.7,0c0.3-0.1,0.6-0.1,0.8-0.2
			c0.7-0.1,1.5-0.1,2.2-0.2c1-0.2,2.1-0.4,3.1-0.6c1-0.2,2.1-0.3,3.1-0.4c0.4,0,0.8-0.1,1.2,0c0.5-0.2,1.1-0.2,1.6-0.4
			c1.3-0.4,2.5-0.8,3.7-1.5c0.2-0.1,0.4-0.3,0.6-0.5c0.3-0.2,0.7-0.3,0.9-0.6c0.1-0.1,0.3-0.3,0.5-0.3c0.7-0.3,1.1-0.9,1.3-1.6
			c0.5-1.4,0.5-2.9,0.2-4.4c-0.2-1.1-0.8-1.9-1.6-2.7c-0.2-0.3-0.6-0.4-0.9-0.4c-0.2,0-0.5-0.1-0.7-0.1c-0.8-0.3-1.3,0.1-1.9,0.5
			C67.1,66.1,67.4,66,67.4,66.2 M86.7,26c-0.6-0.1-1.2,0.2-1.7,0.3c-1.8,0.5-3.5,1.1-5.3,1.6c-1.3,0.4-2.7,0.8-4,1.2
			c-0.2,0.1-0.5,0.2-0.7,0.3c-0.6,0.3-1.1,0.6-1.7,0.9c-1.6,0.9-3.2,1.5-4.9,2.1c-1.7,0.6-3.3,1.2-5,1.9c-1.8,0.7-3.5,1.5-5.2,2.3
			c-0.3,0.1-0.4,0.3-0.5,0.6c-0.1,0.4-0.1,0.7-0.2,1.1c0,0.2,0,0.3,0.2,0.5c0.9,0,1.5-0.6,2.3-0.8c0.2-0.1,0.3-0.3,0.4-0.4
			c0.3,0.1,0.6,0,0.9-0.1c0.5-0.2,0.9-0.6,1.5-0.6c0.2,0,0.5-0.2,0.8-0.2c0,0,0.1-0.1,0.1-0.1c0.1-0.3,0.3-0.3,0.6-0.4
			c0.2,0,0.4,0,0.5-0.1c0-0.1-0.1-0.2,0-0.3c0.2,0.1,0.4-0.1,0.7-0.1c0.2,0.1,0.4,0,0.6-0.2c0.1-0.2,0.3-0.3,0.5-0.3
			c0.4,0.1,0.5-0.1,0.6-0.3c0.2-0.1,0.3,0.1,0.5,0.1c0.1-0.3,0.1-0.3,0.4-0.2c0.1,0.1,0.2,0.1,0.3,0c0-0.4,0-0.4,0.3-0.3
			c0.1,0,0.1,0,0.2-0.1c0-0.1,0.1-0.2,0.2-0.2c0.1,0,0.2,0,0.3-0.1c0.1-0.2,0.3-0.4,0.6-0.2c0.1,0.1,0.2,0,0.2-0.1
			c0-0.1,0.1-0.1,0.2-0.1c0.1,0,0.3,0.2,0.3-0.1c0-0.2,0.3,0,0.4-0.1c0.1-0.2,0.4-0.3,0.6-0.3c0.3,0,0.5-0.2,0.8-0.2
			c0.1-0.3,0.3,0,0.5-0.1c0-0.3,0-0.3,0.3-0.5c0.2-0.1,0.5-0.1,0.7-0.3c0.3-0.2,0.6-0.3,0.9-0.4c0.3-0.1,0.6,0,0.8-0.2
			c0.4-0.2,0.8-0.4,1.2-0.7c0.3-0.2,0.5-0.3,0.8-0.3c0.2,0,0.5,0,0.6-0.3c0,0,0.1-0.1,0.1-0.1c0.3,0.2,0.4-0.1,0.6-0.3
			c0.1-0.1,0.3-0.2,0.4-0.2c0.4-0.2,0.7-0.1,1.1-0.2c0.1-0.2,0.1-0.2,0.5-0.4c0.1,0,0.1,0,0.1-0.1c0.1-0.4,0.4-0.3,0.6-0.2
			c0.2-0.3,0.4-0.4,0.7-0.5c0.4-0.2,0.9-0.4,1.3-0.5c0.2,0,0.3-0.1,0.5-0.3c0.3-0.4,0.5-0.3,0.9-0.1c0.1,0,0.1,0,0.2-0.1
			c0,0,0-0.1,0-0.1c0-0.1-0.1-0.1,0-0.2C85.8,26.7,86.2,26.2,86.7,26 M41.1,61.6c-0.2,0.1-0.4,0.3-0.6,0.4c-0.7,0.6-1.3,1.2-2,1.8
			c-0.1,0.1-0.3,0.3-0.4,0.4c-0.1,0.2-0.1,0.4,0,0.6c0.2,0.2,0.4,0.5,0.7,0.7c0.5,0.5,1.1,0.7,1.7,0.7c0.1,0,0.2-0.1,0.2,0
			c0.3,0.3,0.7,0.1,1,0.1c0.3-0.1,0.7-0.2,1.1-0.1c0.8,0,1.6,0,2.4,0c0.3,0,0.6,0,0.8-0.3c0.1-0.1,0.1-0.1,0.2-0.1
			c0.2,0,0.3-0.1,0.4-0.1c0.5-0.2,1-0.5,1.4-0.8c0.3-0.2,0.8-0.4,0.9-0.9c0.1-0.5,0.3-0.9,0.2-1.4c-0.1-0.8-0.4-1.5-1.2-1.9
			c-0.8-0.4-1.7-0.5-2.5-0.3c-0.9,0.1-1.7,0.3-2.5,0.5C42.4,61.1,41.7,61.3,41.1,61.6 M46.9,76.9c0-0.2,0-0.3,0.2-0.3
			c0.2,0,0.3,0.1,0.5,0c0.5-0.2,1.1-0.2,1.6-0.2c0.3,0,0.6-0.1,1-0.2c0,0,0,0,0,0C50,76,50.3,76,50.4,76c0.3,0,0.5-0.4,0.9-0.3
			c0,0,0.1-0.1,0.2-0.1c0.1-0.2,0.2-0.4,0.3-0.6c0.1-0.5-0.2-1.2-0.6-1.5c-0.3-0.2-0.7-0.3-1.1-0.4c-0.9-0.2-1.7-0.3-2.6-0.4
			c-0.5-0.1-1.1,0-1.6,0.2c-0.6,0.3-1.2,0.4-1.9,0.5c-0.7,0.2-1.4,0.4-2,0.7c-0.1,0.1-0.2,0.1-0.3,0.3c0,0.1,0.1,0.2,0.2,0.3
			c0.7,0.7,1.6,1.3,2.6,1.7c0.5,0.2,1.1,0.4,1.7,0.2C46.3,76.6,46.6,76.6,46.9,76.9 M110,21.7c0.2,0.5,0.3,0.9,0.5,1.3
			c0.3,0.7,0.4,1.5,0.4,2.3c0,0.3-0.1,0.7-0.1,1c0,0.2-0.1,0.5,0.1,0.7c0.5-0.4,0.8-0.8,1.1-1.3c0-0.1,0.1-0.2,0.1-0.2
			c0.3-0.1,0.3-0.4,0.4-0.6c0.1-0.2,0.1-0.3,0.2-0.5c0.2-0.2,0.1-0.4,0-0.7c-0.1-0.3-0.3-0.5-0.5-0.7c-0.4-0.4-0.9-0.6-1.4-0.9
			C110.6,21.9,110.4,21.7,110,21.7 M100.4,18.3c0.4-0.4,1-0.5,1.3-1.1c0-0.1,0.1-0.1,0.2-0.1c0.4-0.3,0.6-0.7,0.6-1.2
			c0-0.4-0.2-0.8-0.5-1.1c-0.3-0.4-0.8-0.8-1.3-1.1c-0.5-0.3-1.3-0.5-1.8-0.4c0,0.2,0.1,0.2,0.2,0.3c0.5,0.5,0.9,0.9,1.2,1.5
			c0.4,0.8,0.6,1.7,0,2.5c-0.1,0.1-0.1,0.2-0.1,0.3C100.3,18.2,100.3,18.3,100.4,18.3"/>
		<path class="st1" d="M38.8,14c0.4,0,0.6-0.2,0.7-0.5c0.2-0.5,0.6-0.7,0.9-1.1c0.2-0.3,0.5-0.5,0.7-0.9c0.1-0.3,0.3-0.6,0.5-0.8
			c0.5-0.6,0.9-1.4,1.2-2.1c0.4-1.2,0.6-2.4,0.4-3.7C43.1,4.5,43,4,42.8,3.6c-0.2-0.5-0.6-1-1-1.3C41.5,2,41,1.7,40.4,1.6
			c-0.2,0.4-0.3,0.9-0.5,1.3c-0.7,1.2-1.6,2.4-2.5,3.4C37,6.8,36.5,7.4,36,7.8c-1,0.8-2,1.4-3.2,1.8c-0.5,0.2-1,0.3-1.4,0.5
			c-0.2,0.1-0.3,0.1-0.5,0c0-0.6,0.1-0.8,0.6-0.9c0.7-0.1,1.2-0.6,1.9-0.8c0.1,0,0.1-0.1,0.2-0.1C34,8.5,34.2,8.1,34.6,8
			c0.1,0,0.3-0.1,0.4-0.3c0.3-0.4,0.7-0.6,1.1-0.9c0.5-0.3,0.8-0.6,1.1-1.1c0.1-0.2,0.3-0.4,0.5-0.6c0.2-0.2,0.3-0.3,0.4-0.6
			c0-0.1,0-0.1,0.1-0.2c0.4-0.1,0.4-0.5,0.7-0.8c0.5-0.5,0.8-1.1,1-1.8c0.1-0.2,0.1-0.5-0.1-0.7c-0.2-0.2-0.3-0.5-0.3-0.8
			c-0.1-0.1-0.2,0-0.2,0.1c-0.7,1-1.6,1.8-2.5,2.7c-1,0.9-2,1.8-2.9,2.6c-0.5,0.4-1,0.8-1.5,1.2c-0.5,0.3-0.8,0.8-1.2,1.2
			c-0.3,0.3-0.5,0.6-0.7,0.9c-0.5,0.9-1.2,1.6-1.8,2.4c-1.2,1.4-2.5,2.8-3.9,4.1c-1.4,1.4-3,2.5-4.4,3.9c-1.3,1.3-2.8,2.5-4.2,3.7
			c-0.4,0.3-0.7,0.7-1,1.1c-0.7,0.8-1.5,1.5-2.4,2.1c-0.1,0.1-0.2,0.2-0.3,0.2c-0.5,0.3-0.7,0.6-0.9,1.2c-0.4,1.1-0.9,2.1-1.6,3.1
			c-0.5,0.8-1,1.6-1.5,2.4c-0.3,0.4-0.3,0.9-0.5,1.4c-0.3,0.7-0.5,1.4-0.8,2c-0.4,0.9-0.6,1.8-0.8,2.7c-0.4,1.9-0.9,3.9-1.9,5.6
			c-0.5,0.9-1.1,1.8-1.6,2.7c-0.6,0.9-1.1,1.9-1.8,2.8c-0.2,0.2-0.3,0.4-0.5,0.7c-0.1,0.1-0.2,0.3-0.4,0.2c-0.1-0.1,0-0.2,0-0.2
			c0.3-1,0.8-1.8,1.3-2.6c0.3-0.5,0.7-1,0.9-1.6c0-0.1,0.1-0.2,0.2-0.2C3.8,45,4.7,43.1,5.1,41c0.2-0.9,0.4-1.7,0.7-2.6
			c0.3-1,0.6-2.1,1.1-3c0.2-0.3,0.3-0.8,0.4-1.1c0.2-0.5,0.4-1,0.5-1.5c0-0.1,0-0.1,0.1-0.2c0.4-0.3,0.4-0.8,0.8-1.1
			C9,31.3,9.1,31,9.3,30.7c0.6-0.9,1.1-1.9,1.6-2.9c0.2-0.4,0.3-0.8,0.5-1.2c0.1-0.3,0.3-0.5,0.7-0.7c0.4-0.2,0.7-0.5,1.1-0.8
			c0,0,0-0.1,0.1-0.1c0.7-0.3,1.2-0.9,1.7-1.5c0.3-0.4,0.9-0.7,1.1-1.2c0-0.1,0.4-0.3,0.6-0.3c0,0,0.1,0,0.1,0
			c0.2-0.3,0.5-0.5,0.8-0.7c0.2-0.2,0.3-0.3,0.5-0.4c0.2-0.1,0.5-0.2,0.6-0.5c0.1-0.3,0.3-0.4,0.5-0.6c0.3-0.3,0.7-0.6,0.8-1
			c0-0.1,0.2-0.2,0.3-0.3c0.5-0.4,1-0.8,1.4-1.3c0.1-0.1,0.3,0,0.4,0c0.2-0.4,0.6-0.7,1-1c0.2-0.2,0.4-0.5,0.7-0.5
			c0,0,0.1,0,0.1-0.1c0.3-0.6,0.9-0.8,1.3-1.2c0.3-0.2,0.6-0.4,0.8-0.8c0.3-0.4,0.7-0.9,1.1-1.1c0.4-0.3,0.7-0.7,1-1.1
			c0.1-0.2,0.2-0.3,0.4-0.4c0.3-0.1,0.5-0.4,0.7-0.6c0.5-0.6,1-1.1,1.5-1.7c0,0,0.1-0.1,0.1-0.1c0.3-0.8,0.9-1.2,1.5-1.6
			c0.4-0.3,0.7-0.6,1.1-0.9c0.5-0.4,1-0.9,1.5-1.3c0.8-0.8,1.7-1.5,2.5-2.3c0.7-0.6,1.4-1.3,2-2c0.3-0.3,0.4-0.3,0.8,0
			c0.3,0.3,0.7,0.6,1.1,0.7c0.1,0,0.3,0.2,0.4,0.3c0.1,0.1,0.2,0.3,0.4,0.1c0.1-0.1,0.2,0.1,0.3,0.1c0.9,0.7,1.4,1.6,1.7,2.7
			c0.4,2,0.2,3.9-0.8,5.7c-0.9,1.7-1.9,3.3-3.4,4.5c-0.4,0.4-0.8,0.8-1.3,1.2c-0.7,0.6-1.5,1.1-2.3,1.6c-0.2,0.1-0.4,0.3-0.7,0.5
			c-0.3,0.2-0.3,0.4-0.4,0.7c0,1.7-0.1,3.3-0.1,5c0,1.6,0,3.1-0.3,4.7c-0.1,0.4-0.1,0.8-0.2,1.2c-0.1,0.5-0.1,1-0.1,1.6
			c0.1,0.8,0.1,1.6,0.1,2.4c-0.1,1.4-0.5,2.7-1,4c-0.4,1-0.8,1.9-1.3,2.8c-0.4,0.6-0.8,1.2-1.2,1.8c-0.3,0.4-0.7,0.9-0.9,1.4
			c0,0.1-0.1,0.1-0.1,0.2c-0.1,0.1-0.2,0.2-0.4,0.1c-0.2-0.1-0.1-0.3,0-0.4c0.2-0.5,0.4-1,0.8-1.5c0.2-0.2,0.3-0.5,0.4-0.8
			c0.1-0.3,0.4-0.5,0.6-0.8c0.3-0.7,0.8-1.2,1.2-1.9c0.3-0.6,0.5-1.2,0.7-1.8c0.2-0.5,0.4-1.1,0.5-1.6c0.1-0.4,0.1-0.8,0.2-1.3
			c0-0.8,0.1-1.6-0.1-2.4c-0.1-0.6-0.1-1.2,0-1.8c0.2-1.3,0.3-2.6,0.4-4c0.1-1.2,0-2.4,0-3.6c0-0.5,0-1,0.1-1.5c0.1-0.5,0-1,0.1-1.5
			c0-0.4,0.2-0.8,0.3-1.2c0.1-0.3,0.4-0.5,0.7-0.5c0.3-0.1,0.5-0.2,0.7-0.3c0.2-0.2,0.5-0.4,0.7-0.5c0.3-0.1,0.6-0.3,0.8-0.6
			c0.1-0.2,0.2-0.3,0.5-0.3c0,0,0.1,0,0.1,0C38.1,14.8,38.8,14.7,38.8,14"/>
		<path class="st1" d="M51.5,54.3c-0.2-0.3-0.1-0.5-0.1-0.8c0.2-1.2,0.4-2.4,0.5-3.7c0-0.7,0-1.4-0.1-2.1c-0.1-1.2-0.5-2.3-0.8-3.5
			c-0.2-0.8-0.4-1.7-0.6-2.5c-0.3-1.2-0.6-2.4-1-3.5c0-0.1-0.1-0.2,0-0.4c0.2,0.1,0.2,0.3,0.3,0.5c0.5,1,0.7,2.1,1,3.1
			c0.5,1.6,1,3.2,1.4,4.9c0.3,1.4,0.4,2.9,0.3,4.4c-0.1,0.9-0.3,1.7-0.5,2.6C51.8,53.7,51.7,54,51.5,54.3"/>
	</g>
</g>
</svg>
