<?xml version="1.0" encoding="utf-8"?>
<!-- Generator: Adobe Illustrator 25.2.1, SVG Export Plug-In . SVG Version: 6.00 Build 0)  -->
<svg version="1.1" id="レイヤー_1" xmlns="http://www.w3.org/2000/svg" xmlns:xlink="http://www.w3.org/1999/xlink" x="0px"
	 y="0px" viewBox="0 0 36.7 36.7" style="enable-background:new 0 0 36.7 36.7;" xml:space="preserve">
<style type="text/css">
	.st0{fill:#070001;}
</style>
<g>
	<path class="st0" d="M18.3,0c-5,0-5.6,0-7.6,0.1C8.8,0.2,7.5,0.5,6.3,1C5.1,1.4,4.1,2.1,3.1,3.1c-1,1-1.6,2-2.1,3.2
		c-0.5,1.2-0.8,2.5-0.9,4.5C0,12.7,0,13.4,0,18.3c0,5,0,5.6,0.1,7.6c0.1,2,0.4,3.3,0.9,4.5c0.5,1.2,1.1,2.2,2.1,3.2
		c1,1,2,1.6,3.2,2.1c1.2,0.5,2.5,0.8,4.5,0.9c2,0.1,2.6,0.1,7.6,0.1c5,0,5.6,0,7.6-0.1c2-0.1,3.3-0.4,4.5-0.9
		c1.2-0.5,2.2-1.1,3.2-2.1c1-1,1.6-2,2.1-3.2c0.5-1.2,0.8-2.5,0.9-4.5c0.1-2,0.1-2.6,0.1-7.6c0-5,0-5.6-0.1-7.6
		c-0.1-2-0.4-3.3-0.9-4.5c-0.5-1.2-1.1-2.2-2.1-3.2c-1-1-2-1.6-3.2-2.1c-1.2-0.5-2.5-0.8-4.5-0.9C23.9,0,23.3,0,18.3,0L18.3,0
		L18.3,0z M18.3,3.3c4.9,0,5.5,0,7.4,0.1c1.8,0.1,2.8,0.4,3.4,0.6c0.9,0.3,1.5,0.7,2.1,1.4c0.6,0.6,1,1.3,1.4,2.1
		c0.3,0.6,0.5,1.6,0.6,3.4c0.1,1.9,0.1,2.5,0.1,7.4c0,4.9,0,5.5-0.1,7.4c-0.1,1.8-0.4,2.8-0.6,3.4c-0.3,0.9-0.7,1.5-1.4,2.1
		c-0.6,0.6-1.3,1-2.1,1.4c-0.6,0.3-1.6,0.5-3.4,0.6c-1.9,0.1-2.5,0.1-7.4,0.1c-4.9,0-5.5,0-7.4-0.1c-1.8-0.1-2.8-0.4-3.4-0.6
		c-0.9-0.3-1.5-0.7-2.1-1.4c-0.6-0.6-1-1.3-1.4-2.1c-0.3-0.6-0.5-1.6-0.6-3.4c-0.1-1.9-0.1-2.5-0.1-7.4c0-4.9,0-5.5,0.1-7.4
		C3.5,9.1,3.8,8.2,4,7.5c0.3-0.9,0.7-1.5,1.4-2.1c0.6-0.6,1.3-1,2.1-1.4c0.6-0.3,1.6-0.5,3.4-0.6C12.9,3.3,13.4,3.3,18.3,3.3"/>
	<path class="st0" d="M18.3,24.4c-3.4,0-6.1-2.7-6.1-6.1c0-3.4,2.7-6.1,6.1-6.1c3.4,0,6.1,2.7,6.1,6.1
		C24.4,21.7,21.7,24.4,18.3,24.4L18.3,24.4z M18.3,8.9c-5.2,0-9.4,4.2-9.4,9.4c0,5.2,4.2,9.4,9.4,9.4c5.2,0,9.4-4.2,9.4-9.4
		C27.7,13.1,23.5,8.9,18.3,8.9L18.3,8.9z"/>
	<path class="st0" d="M30.3,8.5c0,1.2-1,2.2-2.2,2.2c-1.2,0-2.2-1-2.2-2.2c0-1.2,1-2.2,2.2-2.2C29.3,6.3,30.3,7.3,30.3,8.5L30.3,8.5
		z"/>
</g>
</svg>
