<?xml version="1.0" encoding="utf-8"?>
<!-- Generator: Adobe Illustrator 25.2.1, SVG Export Plug-In . SVG Version: 6.00 Build 0)  -->
<svg version="1.1" id="レイヤー_1" xmlns="http://www.w3.org/2000/svg" xmlns:xlink="http://www.w3.org/1999/xlink" x="0px"
	 y="0px" viewBox="0 0 166.5 142" style="enable-background:new 0 0 166.5 142;" xml:space="preserve">
<g>
	<path d="M134.2,55.3h7c1,28.5,0.4,58,0.2,86.7H80.1v-7.2h54.1V55.3z"/>
	<path d="M61.4,0.3v7c-17.7,0.1-36.4,0-54.1,0c-0.2,26,0,53.6-0.1,79.6H0V0.5C1.5,0,58.5-0.2,61.4,0.3"/>
	<path d="M101.4,54.6v7.9h17.2v6H94.3c-0.4-1.5-0.6-29.5-0.1-32.7h24.4v6h-17.1v7h17.2v5.7C112.8,54.7,107.4,54.6,101.4,54.6"/>
	<path d="M83.8,45.6h-6.5c-1.1-4.4-5.4-5.9-9.6-4.3c-2.8,0.9-2.9,5.5,0.2,6c3.9,1.3,8.1,2,11.9,3.6c6.8,2.7,6.9,13.1,0.6,16.5
		c-8.1,4.7-23.4,2.1-23-9.5h6.9c0.3,9.4,19.4,6.5,12.2-0.8c-4-2.3-8.9-2.4-13-4.4c-6.7-3.1-6.2-11.5-1.4-15
		C69.1,32.4,84.7,34.9,83.8,45.6"/>
	<path d="M57.4,102.7h6.7c3.3,13.9,28.3,0.5,2.4-4c-8.1-1.3-10.8-11.3-4.8-15.9c7.1-5.6,22.5-3.5,22.3,7.6h-6.7
		c-0.9-4.4-5.9-6.1-9.9-4.1c-2.4,1-2.5,5.2,0.2,5.7c4,1.3,8.3,2,12.1,3.7c6.9,2.8,7,13.3,0.5,16.6C72.2,116.8,57.1,114.2,57.4,102.7
		"/>
	<path d="M23,57.9h6.7c0.7,3.1,2.1,5.5,5.4,5.8c2.9,0.3,8.3,0.3,8.4-3.6c-0.4-5.2-8.8-4.7-12.6-6.5c-13.4-4.7-5.6-19.8,5.8-18.5
		c6.2-0.2,13,3.4,12.8,10.5c-2.2,0.1-4.5,0.2-6.6,0.1C40,36.4,26.2,41.9,32.7,47c4,1.8,8.6,2.1,12.6,3.8c7,2.8,7.1,13.2,0.6,16.7
		C37.9,72.1,22.1,69.3,23,57.9"/>
	<rect x="33.7" y="88.2" width="6.3" height="25.3"/>
	<path d="M153.5,133.5c-0.3-8.6,13-8.4,12.7,0C166.4,142.3,153.3,142.5,153.5,133.5 M155.2,133.6c-0.2,6.3,9.3,6.2,9.3,0.1
		C164.6,127.6,155,127.3,155.2,133.6"/>
	<path d="M153.5,91.6c-0.2-8.8,12.9-8.6,12.7,0.1C166.4,100.3,153.2,100.4,153.5,91.6 M159.9,96.4c6,0,6-9.7-0.1-9.5
		C153.8,86.7,153.8,96.7,159.9,96.4"/>
	<path d="M36.7,77.1c5.3-0.1,5.3,8.3,0,8.3C31.3,85.4,31.2,77,36.7,77.1"/>
	<path d="M165.7,111.6c-1.9-1.7-3.6-3.3-5.6-5c-2.1,2.1-4.1,4.2-6.3,6.4c-0.9-3.9,3.6-5.3,5.7-8.4h-5.7c-0.1-0.7-0.1-1.2-0.2-1.9
		c3,0,9,0,12,0c0.1,0.6,0.2,1,0.3,1.8h-5.3C162.3,107.4,166.8,108,165.7,111.6"/>
	<path d="M165.7,115.2c1.1,2.8-2.3,3.4-3.9,5.2c1.5,1.8,5.1,2.5,3.8,5.3c-4.3-3.7-6-4.9-11.8-4.3c-0.1-0.6-0.1-1.1-0.2-1.8
		C159.8,119.9,161.1,119.1,165.7,115.2"/>
	<path d="M164.5,76.1c0.3-1.9-1-4.4,1.5-4.2c-0.5,1.6,1.3,11.7-1.4,9.9c-0.1-1.2-0.1-2.5-0.2-3.9h-10.5c-0.1-0.6-0.1-1.1-0.2-1.8
		H164.5z"/>
	<path d="M160.3,55.3v5.9h6.2c-0.4,2.1-4.2,1.1-6.1,1.3c-0.3,2,0.9,4.6-1,5.8v-5.7c-1.3,0-2.4,0-3.5-0.2c-0.9-0.1-2.2,0.7-2.8-1.1
		h5.8c0.9-2.1-0.2-4.3,0.8-6.1C159.9,55.2,160.1,55.3,160.3,55.3"/>
</g>
</svg>
