<?xml version="1.0" encoding="utf-8"?>
<!-- Generator: Adobe Illustrator 25.2.1, SVG Export Plug-In . SVG Version: 6.00 Build 0)  -->
<svg version="1.1" id="レイヤー_1" xmlns="http://www.w3.org/2000/svg" xmlns:xlink="http://www.w3.org/1999/xlink" x="0px"
	 y="0px" viewBox="0 0 359 301.7" style="enable-background:new 0 0 359 301.7;" xml:space="preserve">
<path d="M191.3,50v18.9h41v14.3h-57.8c-1-3.6-1.3-70.3-0.3-77.7h58.1v14.3h-40.8v16.6h40.9v13.6C218.3,50.1,205.4,49.9,191.3,50"/>
<path d="M149.5,28.4h-15.4c-2.7-10.4-12.9-14-22.7-10.3c-6.8,2.1-7,13.1,0.4,14.3c9.4,3,19.3,4.7,28.4,8.5
	c16.3,6.5,16.5,31.3,1.3,39.3c-19.3,11.3-55.8,4.9-54.8-22.5H103c0.6,22.5,46.2,15.4,29.1-1.9c-9.5-5.4-21.1-5.8-31-10.5
	C85.2,38,86.4,18.1,97.8,9.7C114.5-3.1,151.6,2.9,149.5,28.4"/>
<path d="M0.1,57.7H16c1.5,7.4,5,13,12.9,13.7c7,0.7,19.8,0.6,20.1-8.5c-0.8-12.4-21-11.2-29.9-15.5C-12.9,36.2,5.7,0.2,32.7,3.3
	c14.8-0.4,30.9,8,30.4,25.1c-5.3,0.3-10.7,0.4-15.8,0.3c-6.9-22.2-39.6-9.1-24.2,3c9.5,4.3,20.4,4.9,29.9,9.1
	c16.7,6.7,17,31.5,1.3,39.7C35.5,91.6-2.1,84.8,0.1,57.7"/>
<path d="M293,61h16c8,33.1,67.3,1.1,5.8-9.6c-19.3-3.2-25.7-26.9-11.5-37.8c17-13.4,53.5-8.3,53,18.1h-16
	c-2.2-10.5-14.1-14.5-23.5-9.9c-5.8,2.4-6,12.3,0.6,13.7c9.5,3.1,19.7,4.9,28.9,8.7c16.5,6.6,16.7,31.6,1.2,39.6
	C328.2,94.7,292.2,88.4,293,61"/>
<rect x="255.7" y="26.5" width="14.9" height="60.1"/>
<path d="M262.7,0c12.5-0.2,12.6,19.8,0.1,19.7C249.9,19.9,249.7-0.2,262.7,0"/>
<path d="M191.3,156.2v18.9h41v14.3h-57.8c-1-3.6-1.3-70.3-0.3-77.7h58.1v14.3h-40.8v16.6h40.9v13.6
	C218.3,156.3,205.4,156.2,191.3,156.2"/>
<path d="M149.5,134.6h-15.4c-2.7-10.4-12.9-14-22.7-10.3c-6.8,2.1-7,13.1,0.4,14.3c9.4,3,19.3,4.7,28.4,8.5
	c16.3,6.5,16.5,31.3,1.3,39.3c-19.3,11.3-55.8,4.9-54.8-22.5H103c0.6,22.5,46.2,15.4,29.1-1.9c-9.5-5.4-21.1-5.8-31-10.5
	c-15.9-7.4-14.7-27.4-3.3-35.8C114.5,103.1,151.6,109.1,149.5,134.6"/>
<path d="M0.1,163.9H16c1.5,7.4,5,13,12.9,13.7c7,0.7,19.8,0.6,20.1-8.5c-0.8-12.4-21-11.2-29.9-15.5c-32-11.1-13.3-47.1,13.7-44.1
	c14.8-0.4,30.9,8,30.4,25.1c-5.3,0.3-10.7,0.4-15.8,0.3c-6.9-22.2-39.6-9.1-24.2,3c9.5,4.3,20.4,4.9,29.9,9.1
	c16.7,6.7,17,31.5,1.3,39.7C35.5,197.8-2.1,191,0.1,163.9"/>
<path d="M293,167.2h16c8,33.1,67.3,1.1,5.8-9.6c-19.3-3.2-25.7-26.9-11.5-37.8c17-13.4,53.5-8.3,53,18.1h-16
	c-2.2-10.5-14.1-14.5-23.5-9.9c-5.8,2.4-6,12.3,0.6,13.7c9.5,3.1,19.7,4.9,28.9,8.7c16.5,6.6,16.7,31.6,1.2,39.6
	C328.2,200.9,292.2,194.6,293,167.2"/>
<rect x="255.7" y="132.7" width="14.9" height="60.1"/>
<path d="M262.7,106.2c12.5-0.2,12.6,19.8,0.1,19.7C249.9,126.1,249.7,106,262.7,106.2"/>
<path d="M191.3,262.9v18.9h41v14.3h-57.8c-1-3.6-1.3-70.3-0.3-77.7h58.1v14.3h-40.8v16.6h40.9v13.6
	C218.3,263,205.4,262.9,191.3,262.9"/>
<path d="M149.5,241.3h-15.4c-2.7-10.4-12.9-14-22.7-10.3c-6.8,2.1-7,13.1,0.4,14.3c9.4,3,19.3,4.7,28.4,8.5
	c16.3,6.5,16.5,31.3,1.3,39.3c-19.3,11.3-55.8,4.9-54.8-22.5H103c0.6,22.5,46.2,15.4,29.1-1.9c-9.5-5.4-21.1-5.8-31-10.5
	c-15.9-7.4-14.7-27.4-3.3-35.8C114.5,209.8,151.6,215.8,149.5,241.3"/>
<path d="M0.1,270.6H16c1.5,7.4,5,13,12.9,13.7c7,0.7,19.8,0.6,20.1-8.5c-0.8-12.4-21-11.2-29.9-15.5c-32-11.1-13.3-47.1,13.7-44.1
	c14.8-0.4,30.9,8,30.4,25.1c-5.3,0.3-10.7,0.4-15.8,0.3c-6.9-22.2-39.6-9.1-24.2,3c9.5,4.3,20.4,4.9,29.9,9.1
	c16.7,6.7,17,31.5,1.3,39.7C35.5,304.5-2.1,297.7,0.1,270.6"/>
<path d="M293,273.9h16c8,33.1,67.3,1.1,5.8-9.6c-19.3-3.2-25.7-26.9-11.5-37.8c17-13.4,53.5-8.3,53,18.1h-16
	c-2.2-10.5-14.1-14.5-23.5-9.9c-5.8,2.4-6,12.3,0.6,13.7c9.5,3.1,19.7,4.9,28.9,8.7c16.5,6.6,16.7,31.6,1.2,39.6
	C328.2,307.6,292.2,301.3,293,273.9"/>
<rect x="255.7" y="239.4" width="14.9" height="60.1"/>
<path d="M262.7,212.9c12.5-0.2,12.6,19.8,0.1,19.7C249.9,232.8,249.7,212.7,262.7,212.9"/>
</svg>
