<?xml version="1.0" encoding="utf-8"?>
<!-- Generator: Adobe Illustrator 25.2.1, SVG Export Plug-In . SVG Version: 6.00 Build 0)  -->
<svg version="1.1" id="超ファッション研究所3_xA0_画像_1_"
	 xmlns="http://www.w3.org/2000/svg" xmlns:xlink="http://www.w3.org/1999/xlink" x="0px" y="0px" viewBox="0 0 1089.4 108.2"
	 style="enable-background:new 0 0 1089.4 108.2;" xml:space="preserve">
<style type="text/css">
	.st0{fill-rule:evenodd;clip-rule:evenodd;fill:#CA0437;}
	.st1{fill:#231815;}
</style>
<g id="Symbols">
	<g id="header_x2F_pc" transform="translate(-184.000000, -22.000000)">
		<g id="logo_x2F_red" transform="translate(184.000000, 22.000000)">
			<g id="Group-16" transform="translate(0.000000, -0.000000)">
				<polygon id="Fill-1" class="st0" points="1057.5,13.6 1055.2,25.1 1087.1,25.1 1089.4,13.6 				"/>
				<g id="Group-15" transform="translate(0.000000, 0.298504)">
					<g id="Group-4">
						<g id="Clip-3">
						</g>
						<path id="Fill-2" class="st0" d="M801.2,63.2l10.3-49.9h-21.2l-9.6,46.5c0,0-11.2,34.2,26.2,21.2l41.1-14.5V54.9l-39.4,13.9
							C798.4,72.3,801.2,63.2,801.2,63.2"/>
					</g>
					<g id="Group-7" transform="translate(25.854701, 0.000000)">
						<g id="Clip-6">
						</g>
						<path id="Fill-5" class="st0" d="M852.3,74.5c-4,0.8-6.5,0.4-7.6-2.5c-1.4-3.7,3.3-7,7.2-7.9c0,0,2.7-0.8,8,0.2
							C858.6,68.5,856.2,73.7,852.3,74.5L852.3,74.5z M891.9,13.3h-21.2l-1.3,6.5h-31l-2.2,10.4h31l-1,4.8h-31L833,45.4h31l-1.7,8.2
							c-3.4-0.3-5.4-0.3-5.4-0.3c-20.4,0-29.3,7-29.3,16.1s11.6,16.5,25.8,16.5c8.3,0,21.9-3.7,25.8-13.9c0.6,0.4,1.3,0.7,1.9,1.1
							c3.4,2.1,11.8,8.3,11.8,8.3l3.6-16.8c-4.8-2.8-9.6-5-14.1-6.5l2.7-12.7h15.5l2.2-10.4h-15.5l1-4.8h15.5l2.2-10.4h-15.5
							L891.9,13.3z"/>
					</g>
					<polygon id="Fill-8" class="st0" points="992,47.4 1009.4,47.6 1011.6,36.6 994.2,36.6 					"/>
					<g id="Group-12" transform="translate(54.059829, 0.000000)">
						<g id="Clip-11">
						</g>
						<path id="Fill-10" class="st0" d="M900.8,72.4c-7.4,0-6.2-8-6.2-8c1.2-17.5,9.3-15.6,9.3-15.6c5,0,5.6,4.5,5.6,6
							C908,74.3,900.8,72.4,900.8,72.4L900.8,72.4z M933.8,67.3c-1.3,5.8-6,4.9-6,4.9c-4.9,0-3.2-5.4-3.2-5.4l2.5-12l5-24.4h26.8
							l2.2-10.1h-26.8l1.5-7.1h-17.4l-1.4,7.1h-27.8l-2.2,10.1h27.8l-2.7,12.9c0,0-4.4-6.4-12.9-6.4c0,0-18.8-1.5-20.5,29.5
							c0,0-1.2,18.5,15.5,18.5c0,0,9.3,0.2,14-7.2c0,0-0.4,6.6,14.7,6.6h8.6c0,0,15.8,1.2,18.4-10.2l4.5-22l-17.4-0.1L933.8,67.3z"
							/>
					</g>
					<path id="Fill-13" class="st0" d="M1075,45.2h-29.2c-6.4,0-5-3.9-5-3.9l2.7-12.9h-19.6l-3.9,18.9c0,0-1.8,8.2,6.6,8.2h28.2
						c0,0,6-0.2,5.2,4.5l-2,9.4c0,0,0.1,3.2-5.8,3.2h-37.5l-2.5,11.8h55.2c8.3,0,8.6-7.2,8.6-7.2l5-24.3
						C1082.6,44.5,1075,45.2,1075,45.2"/>
				</g>
			</g>
		</g>
	</g>
</g>
<g>
	<path d="M699.2,62.6l-1.8,1.8l-11.1-11.1l-11,11.1l-1.8-1.8l11-11l-11-11l1.8-1.8l11,11.1l11.1-11.1l1.8,1.8l-11,11.1L699.2,62.6z"
		/>
</g>
<g>
	<path class="st1" d="M454.1,28.2c0.6,0.5,0.8,1.2,0.6,1.9c-0.3,1-1.1,1.4-1.8,1.9c-2.6,1.6-3.8,2.9-4.8,3.3
		c-0.3,0.1-0.5,0.5-0.6,0.8c-0.5,5.7-2.6,16.9-3.8,22c-2.4,9.6-7.6,17.8-13.6,25.4c-4.1,5.2-8.8,9.6-14.5,12.9c-0.7,0.4-1.3,0.8-2,1
		c-0.7,0.3-1.2-0.2-1.6-0.7c-0.5-0.7-0.2-1.2,0.3-1.7c0.4-0.4,0.8-0.6,1.2-0.9c16.1-10.4,25.4-25.4,29.3-43.9
		c0.9-4.1,1.2-8.3,1.9-12.5c0.2-1.2-0.1-1.5-1.1-1c-2.4,1.4-3.5,1.7-4.8,2.6c-0.2,0.2-0.4,0.4-0.4,0.7c-0.4,3.3-1.9,8.3-3.5,11
		c-0.5,0.9-1.2,1.6-1.9,2.3c-0.6,0.6-1.4,0.8-2,0.2c-0.7-0.6-0.5-1.4,0-2.1c2-2.6,3.7-5.4,4.5-8.8c0.6-3,0.7-2.9-2.1-3.5
		c-0.6-0.1-1.6-0.5-2.2-0.9c-0.2-0.1-0.3-0.3-0.2-0.6c0.1-0.5,0.5-0.5,0.8-0.6c1.6-0.4,3.7,0.5,4.6-1.2c0.8-1.6,0.3-3.5,0.2-5.3
		c-0.1-1.4-0.8-3.6,0.6-3.7c1.6-0.2,1.7,2.1,1.8,3.6c0,0.3,0,0.5,0,0.8c0,2-0.2,3-0.3,3.9c0,0.1,0.1,0.3,0.2,0.3
		c2.4,0.1,6.1-2.9,6.2-4.9c0-0.3,0-0.5,0-0.8c0.1-1.2-0.3-3.2,1.1-3.4c1.7-0.3,1.4,1.7,1.7,2.8c0.3,1.3,0.7,1.7,2,1
		c1-0.6,1.9-1.3,2.7-2.1C453.1,28,453.6,27.8,454.1,28.2L454.1,28.2z"/>
	<path class="st1" d="M85.4,54.2c0.2-4.2-0.1-8,0.7-11.6c0.4-1.9-0.1-2.5-2.2-2.1c-2.6,0.5-5.1-0.3-6.8-2.6c-0.4-0.6-1-1.3-0.2-2
		c0.8-0.7,1.4-0.2,2,0.4c2.1,2.1,4.5,2,7,1c0.8-0.3,1.4-0.7,1-1.7c-1.5-3.3-1.4-6.7-1.4-10.2c0-1.6-0.5-2.2-2.4-1.6
		c-2.4,0.7-5,1.2-7.6,0.8c-2.9-0.4-5.5-1.4-6.9-4.2c-0.3-0.6-0.6-1.3,0.1-1.7c0.4-0.3,1,0,1.3,0.4c4.2,4.1,9,2.5,13.7,1.5
		c1.6-0.3,2-1.6,2.1-3.2c0.3-4.1,1.2-8.1,2.5-12c0.2-0.5,0.2-1,0.5-1.4c0.2-0.4,0.6-0.9,1.2-0.7c0.6,0.2,0.7,0.8,0.6,1.2
		c-0.3,1.6-0.4,3.3-0.9,4.9c-0.6,1.9-0.7,3.8-0.8,5.7c-0.1,0.9-0.7,2.3,0.3,2.8c0.9,0.4,1.8-0.6,2.7-1.1c3-1.7,5.8-3.7,8-6.4
		c0.4-0.5,1.1-1.3,1.9-0.6c0.6,0.5,0.7,1.3,0.3,2.1c-0.7,1.5-1.9,2.7-3.2,3.8c-2.8,2.3-5.9,4-9.2,5.5c-1.4,0.7-1.8,1.5-1.9,2.9
		c-0.1,3.4,0.5,6.6,1.3,9.8c0.3,1.2,0.9,1.1,1.5,0.5c0.9-0.7,1.7-1.6,2.6-2.3c0.6-0.5,1-1.8,2.1-0.7c0.8,0.8,0.4,1.7-0.3,2.4
		c-1.3,1.4-2.5,3-4.3,3.8c-1.9,0.8-2.5,2.1-2.4,4.2c0.1,3.8-0.1,7.7-0.1,11.5c0,2.7,0.3,2.8,2.8,1.5c1.2-0.6,2-1.6,2.9-2.4
		c0.5-0.4,1-1.5,1.8-0.8c0.6,0.5,0.2,1.5-0.1,2.1c-1,1.9-2.8,3-4.6,3.8c-3,1.4-3.2,1.5-2.8,4.8c0.2,1.9,0.5,3.8,0.8,5.7
		c0.1,0.8,0.2,1.6-0.8,1.8c-0.9,0.2-1.4-0.5-1.7-1.2c-1-2.7-1.2-5.5-1.4-8.3C85.3,58.3,85.4,56,85.4,54.2z"/>
	<path class="st1" d="M142.4,101c-7.3-0.3-14.1-2.3-20.6-5C109.7,91,98,85.3,87.6,77.2c-3-2.4-5.9-4.9-8.8-7.4
		c-0.8-0.7-1.4-1.5-2-2.3c-0.4-0.4-0.3-0.9,0.1-1.4c0.4-0.5,0.9-0.6,1.4-0.3c1,0.6,2,1.2,2.8,2c14.4,13.5,31.6,22.1,50.2,28
		c7.7,2.5,15.8,3.1,23.4-1.4c3.9-2.3,6.7-5.5,9.2-9.1c1.8-2.5,3.4-5.1,5.2-7.6c0.3-0.4,0.5-1,1.2-0.6c0.5,0.3,0.6,0.8,0.5,1.3
		c-0.1,0.5-0.3,1-0.5,1.5c-2.8,7.4-7.6,13.2-14.3,17.5C151.6,100,147,100.7,142.4,101z"/>
	<path class="st1" d="M501.4,40.7c-0.5,0-0.6,0-0.7,0c-4.7,0.8-6.6,3.4-7.2,8.3c-1.9,15.2-9.9,27.1-21.8,36.5
		c-1,0.8-2.1,1.4-3.2,2.1c-0.9,0.6-1.7,0.4-2.3-0.5c-0.5-0.9,0.2-1.5,0.9-1.9c4-2.2,7-5.5,10.2-8.7c7.3-7.2,11.3-15.9,13.3-25.8
		c0.2-1.1,0.5-2.2,0.7-3.4c0.6-3.4,0.6-3.4-2.7-4.7c-1.3-0.5-2.1-1.3-2.2-2.7c0.7-0.5,1.2,0.2,1.8,0.3c3.3,0.6,3.4,0.6,3.9-2.9
		c0.1-0.9,0.3-2,1.3-2.1c1.3-0.2,1.4,1.2,1.7,2.1c0.7,2.6,0.7,2.6,2.9,1.5c1.6-0.8,3.1-1.8,4.4-3c0.8-0.8,1.7-1.2,2.7-0.4
		c0.8,0.7,0.7,1.5,0.3,2.4c-0.9,2-1.1,4.2-1.2,6.4c-0.1,2.1,0.5,3.7,2.4,4.8c1.8,1,3.3,0.6,5-0.5c0.7-0.5,1.6-1.9,2.5-0.8
		c0.8,1-0.2,2.3-1,3c-1.8,1.5-3.9,2.2-6.4,1.4c-3.2-1-4.8-3.3-5.3-6.4C501.2,44,501.4,42.3,501.4,40.7z"/>
	<path class="st1" d="M193.1,28.7c1.5,0,3.1-0.2,4.6,0c5.3,0.9,7.8,5.4,6.1,10.7c-1.7,5.3-5.5,9.2-9.1,13.1
		c-4,4.2-8.1,8.2-11.9,12.6c-0.2,0.3-0.5,0.6-0.8,0.8c-0.9,0.9-1.9,1.5-3,0.4c-1-1-0.1-1.9,0.6-2.6c2.7-2.9,5.5-5.8,8.2-8.6
		c3.1-3.3,6.1-6.5,9.2-9.8c1.8-1.9,3-4.2,3.8-6.6c1.4-4.3,0.2-6.3-4.3-6.9c-4.4-0.7-8.7,0-12.9,1.1c-5.4,1.3-10.5,3.3-15.1,6.5
		c-0.6,0.4-1.3,0.9-1.9,1.3c-1,0.6-2.3,1.3-3.1,0.1c-0.6-1,0.4-1.8,1.3-2.4C173.4,32.4,182.6,28.7,193.1,28.7z"/>
	<path class="st1" d="M563.3,16.4c-3.8,0.7-7.2,2.7-10.6,4.9c-1.1,0.7-2.2,1.4-3.3,2c-0.2,0.1-0.8,0-1-0.2c-0.2-0.2-0.1-0.7,0.1-1
		c1.8-3.1,13.3-8.8,16.8-8.3c3.4,0.5,4.8,3.2,3.1,6.6c-1.6,3.1-4.2,5.5-7.2,7.2c-2.3,1.3-5.4,1.7-7.1,3.5c-1.6,1.7-1.7,4.7-2.7,7
		c-2.6,5.8-5.9,11-10.9,15.1c-0.3,0.2-0.5,0.6-0.9,0.8c-1.3,0.7-2.7,2.5-4,0.7c-1.3-1.9,0.8-2.4,2.1-3.2c3.3-1.9,5.4-5,7.6-8.1
		c3.5-5,5.6-10.6,5.7-16.8c0-0.4,0-0.8,0-1.2c0-0.5,0.2-1.1,0.8-1.2c0.5-0.1,1.1,0.3,1.2,0.8c0.5,3.8,2.6,2.1,4.5,1.3
		c3.5-1.3,6-3.9,8.1-6.8c0.5-0.7,1.2-1.5,0.8-2.4C565.8,16,564.5,16.6,563.3,16.4z"/>
	<path class="st1" d="M495.2,9.4c-0.6-0.7-1-1.1-1.3-1.5c-0.7-0.8-1.7-1.8-0.8-2.6c0.9-0.9,1.7,0.4,2.4,1c2.3,1.9,4.5,2.6,7.6,1.7
		c4.6-1.3,9.4-0.9,14.1-0.7c2,0.1,3.7,0.9,5.3,2c2.4,1.6,3.5,4.5,2.4,7.1c-1.9,4.4-4.8,8.1-8.9,10.8c-0.6,0.4-1.4,0.7-2.1,0.8
		c-0.4,0.1-1.2,0-1.4-0.4c-0.5-0.6,0-1.2,0.5-1.6c2.6-1.9,4.7-4.3,6.7-6.8c0.6-0.8,1.3-1.6,1.7-2.6c1.4-3,0.6-5-2.6-5.9
		c-3.4-1-7-0.9-10.3-0.3c-8.9,1.5-18,2.5-26,7.3c-0.6,0.3-1.2,0.7-1.6-0.1c-0.4-0.6-0.1-1.4,0.3-1.8c1.5-1.4,3.2-2.5,5.1-3.3
		C489.3,11.5,491.9,9.9,495.2,9.4z"/>
	<path class="st1" d="M591.9,32.5c-1.4,14.3-6.2,27.2-15.3,38.5c-2.2,2.7-4.4,5.4-7.3,7.2c-0.9,0.5-1.6,1.3-2.7,1.4
		c-0.8,0-1.9,0.5-2.3-0.8c-0.2-0.8,0.3-1.4,1-1.9c10.9-7,16.6-17.8,20.7-29.5c2.2-6.1,3.4-12.5,3.3-19.1c0-0.5,0-1,0-1.5
		c0.1-0.5,0.2-1.1,0.8-1.2c0.8-0.1,1.2,0.4,1.3,1C592.1,28.6,591.6,30.6,591.9,32.5z"/>
	<path class="st1" d="M74.4,47.7c3,2.1,3.1,4.5,3.3,6.9c0.6,5.1-1.2,9.7-3.9,13.8c-7,10.5-16.3,18.3-28,23.2
		c-1.5,0.6-3.1,1.4-4.8,1.2c-1-0.1-2.2-0.4-2.3-1.7c-0.1-1.3,0.8-2.2,2.1-2.3c9.7-0.3,15.9-6.9,22.6-12.5c2.3-1.8,4.1-4.2,6-6.5
		C74.5,63.5,77.2,56.6,74.4,47.7z"/>
	<path class="st1" d="M583,22.2c-1,0.1-1.9-0.1-2.9-0.2c-1.4-0.3-1.8,1-2.1,2.6c-0.4,2.5-0.9,5-2.1,7.3c-0.4,0.9-1,2.1-2.3,1.4
		c-1-0.5-0.6-1.6-0.3-2.4c1-2.5,1.9-5.1,2.3-7.7c0.3-2.1,0.5-4.3-0.3-6.5c-0.5-1.4-0.3-2.6,1.7-3.1c5.1-1.4,9.1-4.4,12.1-8.8
		c0.4-0.5,0.7-1,1.2-1.5c0.4-0.4,0.9-0.6,1.3-0.2c0.5,0.4,0.5,0.9,0.2,1.4c-0.6,1.1-1.2,2.3-2,3.3c-2.2,3.1-5.2,5.3-8.5,7.1
		c-0.7,0.4-1.4,0.7-2,1.1c-1.7,1-0.9,2.6-0.6,3.8c0.4,1.7,1.6,0.5,2.5,0.3c6.4-1.2,12.1-3.9,17.7-7c1.2-0.6,2.7-2.2,3.7-0.6
		c1.1,1.7-1.1,2.3-2.2,2.9c-5,3.2-10.5,5.2-16.2,6.8C583.8,22.1,583.4,22.1,583,22.2z"/>
	<path class="st1" d="M132.4,22.3c-0.5,3.8-0.6,7.2-2.1,10.2c-0.6,1.1-1.1,2.3-2.1,3.2c-1,0.9-2.2,2.6-3.5,1.5
		c-1.6-1.4,0.6-2.3,1.3-3.3c2.1-2.6,2.8-5.7,3.2-8.9c0.2-1.1-0.5-1.4-1.4-1.1c-2.4,0.8-4.8,1.7-7.3,2.5c-1.3,0.5-1,1.5-1.1,2.5
		c-0.4,5-2.6,9.3-5.8,13c-0.5,0.6-1.1,1.2-1.8,1.4c-0.7,0.2-1.6,0-1.3-1.2c0.3-1,1-1.8,1.6-2.6c2.1-2.9,3.8-6,4.6-9.6
		c0.5-2.3-0.6-2.1-1.9-1.6c-2.2,0.9-4.4,1.5-6.7,1.2c-0.6-0.1-1.4,0.2-1.5-0.8c0-0.8,0.7-1,1.3-1.2c2-0.6,3.9-1.1,5.9-1.7
		c5-1.6,9.9-3.5,14.8-5.4C131.3,19.5,132.4,20.3,132.4,22.3z"/>
	<path class="st1" d="M313.6,31c0.8,0.1,1.3,0.2,1.4,0.8c0.2,0.8,0.1,1.6-0.7,2c-1.1,0.6-2.3,1.2-3.4,1.7
		c-13.1,5.5-24.3,13.8-34.4,23.8c-0.8,0.8-1.6,1.6-2.5,2.4c-0.6,0.6-1.5,0.7-2,0c-0.4-0.5-0.3-1.3,0.1-1.8c1.2-1.5,2.4-3,3.8-4.3
		c8.7-8.1,18.1-15.4,28.8-20.7c2.4-1.2,4.9-2.2,7.3-3.3C312.6,31.3,313.2,31.1,313.6,31z"/>
	<path class="st1" d="M409.2,29.1c-0.3,2.5-1.1,5.1-2.3,7.5c-4.2,8.7-10.9,15.4-18.1,21.6c-3.1,2.6-6.2,5.4-9.8,7.4
		c-1.2,0.7-3.3,1.4-4.2,0.9c-0.6-0.4-0.6-1-0.6-1.7c-0.1-0.8,1.6-2.2,3.1-2.4c1-0.2,1.9-0.8,2.7-1.4c7.9-5.7,15.4-11.9,21.1-19.9
		c2.8-3.9,5-8,6-12.8c0.2-0.8,0.1-2.2,1.3-1.9C409.6,26.8,409.1,28.1,409.2,29.1z"/>
	<path class="st1" d="M405.8,49c0.1-1.1,0.1-2.3,0.2-3.4c0.1-0.9,0.8-2.2,1.4-2.1c2.9,0.8,4.2-1.8,6.3-2.6c1.4-0.6,2.9-0.8,4.5-0.9
		c5.1-0.2,5.8,3.7,4,7c-2.7,5.1-7.3,8.3-12.6,10.4c-1.5,0.6-2.1-0.7-2.6-1.7C406,53.6,405.7,51.4,405.8,49z M408.5,50.3
		c0,1.9,0,3,0.8,3.6c0.9,0.7,2-0.9,3.1-1.4c2.8-1.3,5-3.5,6.7-6.1c0.6-0.9,1.1-1.8,0.5-2.8c-0.6-1-1.8-0.7-2.8-0.6
		c-3.4,0.5-5.7,2.6-7.8,5.1C408.5,48.7,408.5,49.5,408.5,50.3z"/>
	<path class="st1" d="M374.1,36.1c-0.5,1.2-1.4,1.7-2.6,1.8c-4.2,0.5-8.2,1.8-12.1,3.3c-8,3.1-15.5,7.3-21.8,13.2
		c-0.9,0.8-2,2.4-3.1,1.3c-1.4-1.4,0.3-2.5,1.3-3.4c8.2-8,18.2-12.9,29.2-16.2c2.3-0.7,4.6-1.5,7.1-1.4
		C372.9,34.8,373.8,35,374.1,36.1z"/>
	<path class="st1" d="M129.3,55.3c0.4,10.4-0.8,8.2-8.9,11.2c-0.7,0.3-1.5,0.2-2.3,0.2c-0.8-0.1-1.7-0.3-1.8-1.2
		c-0.2-1.2,0.9-1.3,1.8-1.5c0.5-0.1,1-0.1,1.5-0.2c5.6-1.3,6.7-2.7,6.6-8.3c0-1.7,0.8-4-0.6-5.1c-1.6-1.4-3.3,0.7-5,0.9
		c-1.2,0.2-3,0.9-3.4-0.5c-0.5-1.6,1.5-1.7,2.6-2.2c1.8-0.7,3.6-1.3,5.4-1.8c2.5-0.6,3.6,0.1,3.9,2.7
		C129.5,51.4,129.3,53.3,129.3,55.3z"/>
	<path class="st1" d="M226.4,48.2c-3.8,0.6-7.5,1.9-11,3.7c-0.5,0.3-1.2,1-1.7,0.2c-0.4-0.6,0.3-1.2,0.8-1.5
		c4.6-3.2,9.7-5.1,15.3-5.3c2.6-0.1,3.7,1.6,2.3,3.7c-1.8,2.8-3.5,6.1-7.2,6.9c-1.5,0.3-1.6,1.5-2.1,2.4c-1.2,2.3-2.5,4.5-4.8,5.8
		c-0.5,0.3-1.2,0.9-1.7,0.3c-0.5-0.5-0.1-1.2,0.3-1.7c2.3-2.9,4.5-5.8,5.8-9.4c0.1-0.3,0.3-0.8,0.8-0.6c0.8,0.3,1.4,2,2.5,0.3
		c0.6-1,1.4-1.8,2-2.8c0.4-0.5,1.1-1,0.8-1.6C228.1,47.7,227.2,48.3,226.4,48.2z"/>
	<path class="st1" d="M549.2,11.8c-2.4,0.1-4.6-0.3-6.4-1.9c-0.4-0.3-0.7-0.8-0.5-1.4c0.2-0.6,0.8-0.4,1.3-0.2
		c7.3,2.6,13.4-0.9,19.6-3.9c1.1-0.5,2.2-1.4,3.2-2.1c1-0.8,2.2-2,3.2-0.5c0.8,1.1-0.4,2.2-1.3,2.8C562.5,8.6,556.3,11.4,549.2,11.8
		z"/>
	<path class="st1" d="M315.3,42.5c3.4,0.1,5.5,2.6,4.9,6.3c-0.3,1.6-0.8,3.2-1.4,4.8c-1.7,4.3-4.6,5.6-9,4.3
		c-0.4-0.1-0.8-0.2-0.8-0.7c0-0.3,0.2-0.8,0.4-1c1-0.8,2.3-1.1,3.5-1.4c2.8-0.6,5.3-5.9,4-8.5c-0.5-1-1.3-1.6-2.5-1.2
		c-1.2,0.4-2.4,0.9-3.4,1.7c-0.7,0.6-1.3,0.9-1.9,0.1c-0.5-0.7-0.4-1.4,0.2-2.1C310.6,43.6,313.3,42.5,315.3,42.5z"/>
	<path class="st1" d="M435.5,24.8c-1.7,0-2.7,0-3.6-0.6c-0.5-0.3-1.4-0.3-1.2-1.2c0.2-0.6,0.8-1,1.4-1.1c1.9-0.2,3.9-0.1,5.7-0.4
		c3.4-0.7,6.4-2.5,9.1-4.6c0.6-0.5,1.2-0.9,1.8-1.4c0.7-0.6,1.6-1.1,2.3-0.2c0.6,0.8,0,1.6-0.6,2.3c-1.4,1.6-3.1,2.7-4.8,3.7
		C442.4,23.4,438.7,24.4,435.5,24.8z"/>
	<path class="st1" d="M405.2,24.4c-0.5-0.1-1.2-0.1-1.8-0.4c-0.9-0.5-2.8-0.2-2.6-1.7c0.2-1.2,1.7-0.6,2.6-0.6
		c4.9-0.3,8.7-2.8,12.5-5.5c1.2-0.8,2.6-2.8,3.8-1.4c1.5,1.7-0.8,2.8-2,3.7C414.1,21.6,410,23.6,405.2,24.4z"/>
	<path class="st1" d="M500.6,31.1c-3.8-0.1-5.1-1.9-4-5.3c0.7-2,1.3-4.2,3.1-5.6c0.4-0.3,1-0.6,1.4-0.4c0.4,0.2,0.4,0.9,0.2,1.4
		c-0.6,1.7-1.3,3.3-1.9,5c-0.4,1.3,0.2,1.9,1.6,1.8c1.8-0.1,3.1-1.2,4.5-2c0.9-0.6,1.9-1.2,2.7-0.1c1,1.3-0.1,2.2-1.1,2.7
		C504.9,29.7,503,31.5,500.6,31.1z"/>
	<path class="st1" d="M283.6,24c0.6,0.1,2.8-0.8,2.9,1.3c0.1,1.8-1.9,1.9-3.5,2c-4.4,0.4-8.8,1.1-12.5,3.8c-0.5,0.4-0.9,0.6-1.3,0.2
		c-0.3-0.3-0.6-0.9-0.5-1.4c0.1-1.3,1-1.9,2.2-2.4C274.7,25.8,278.5,24.2,283.6,24z"/>
	<path class="st1" d="M258.8,49.4c0,1.4-0.9,2.3-1.5,3.2c-1.9,2.6-4.5,4.5-7.2,6.3c-0.8,0.5-1.7,0.7-2.6,0.6
		c-1.1-0.1-1.4-0.7-0.7-1.5c0.6-0.8,1.6-1.3,2.3-2c2.6-2.2,5.5-4.1,6.9-7.5c0.4-0.9,0.9-1.7,2-1.3C259.2,47.6,258.7,48.7,258.8,49.4
		z"/>
	<path class="st1" d="M342.8,25.1c1.3,0,1.8,0,2.3,0c1.2,0.1,2.4,0.5,2.4,1.9c-0.1,1.5-1.4,1.2-2.4,1.1c-3.7-0.4-7,1.1-10.2,2.5
		c-0.8,0.4-1.7,1.1-2.4,0.1c-0.8-1.1,0.2-1.8,1.1-2.4C336.6,26.3,340,25.5,342.8,25.1z"/>
	<path class="st1" d="M287.7,34c-0.1,1-0.9,1.6-1.8,1.6c-4.5,0-8.5,1.6-12.3,3.6c-0.5,0.2-1,0.3-1.4-0.1c-0.5-0.7-0.1-1.2,0.4-1.6
		c1.4-1.3,3.1-2.2,5-2.8c2.7-0.9,5.3-1.9,8.1-1.9C286.5,32.8,287.4,32.9,287.7,34z"/>
	<path class="st1" d="M477.9,18.5c-0.1,2.1,0.2,4.1,1.1,5.9c0.3,0.6,0.4,1.3-0.3,1.7c-0.7,0.4-1.5,0.1-2-0.6
		c-0.7-0.9-0.9-2.1-1.2-3.2c-0.5-2.4,0.1-4.8,0.3-7.2c0.1-0.5,0.4-1,1-1c0.6,0,1,0.4,1,0.9C477.9,16.2,477.9,17.3,477.9,18.5z"/>
	<path class="st1" d="M111,57.9c0-1.4-0.1-2.8,0-4.2c0.1-0.8,0.5-1.5,1.4-1.5c0.8,0,0.8,0.8,1.1,1.4c0.9,1.8-0.6,3.7,0.1,5.6
		c0.4,1,0.2,2.3,0.3,3.4c0.1,0.9-0.2,1.5-1.2,1.7c-0.8,0.1-1-0.5-1.3-1.1C110.5,61.5,110.9,59.7,111,57.9z"/>
	<path class="st1" d="M492.6,25.3c-0.2,0.5-0.3,1-0.6,1.4c-1.4,1.6-2.9,3.2-4.4,4.8c-0.6,0.6-1.4,0.8-2,0c-0.5-0.6-0.3-1.3,0.1-1.8
		c1.6-1.8,3-3.8,5.1-5.1C491.7,24,492.2,24.4,492.6,25.3z"/>
	<path class="st1" d="M243,54.7c-1.7,0.1-2.6-0.9-3.3-2.1c-0.4-0.7-0.4-1.6,0.2-2.1c0.6-0.4,1.1,0.2,1.6,0.6
		c0.6,0.6,1.3,1.2,2.2,1.5c0.6,0.2,1.3,0.6,1.2,1.3C244.7,54.8,243.7,54.7,243,54.7z"/>
	<path class="st1" d="M309.9,53.3c-0.5-0.1-1.3,0.1-1.5-0.6c-0.3-0.9,0.5-1.6,1.2-1.6c1.5,0,2.9-1.2,4.4-0.3
		c0.3,0.2,0.7,0.5,0.8,0.7c0,0.3-0.3,0.7-0.6,0.8C312.7,52.9,311.4,53.2,309.9,53.3z"/>
	<path class="st1" d="M249.2,52.6c-1.1,0-3.5-2.5-3.4-3.3c0.1-0.8,0.7-0.6,1.1-0.7c1-0.1,3.3,2.2,3.3,3.1
		C250.2,52.4,249.6,52.4,249.2,52.6z"/>
	<path class="st1" d="M25.4,74.8C25.4,74.8,25.4,74.8,25.4,74.8c-0.4-0.1-0.6-0.7-0.7-1.1c-0.2-1.1-0.1-2.8,0.3-5.6l0.6-2.9
		c0.7-3.5,1.5-7.2,2.3-11c0.1-0.3,0.1-0.7,0.2-1c0-0.2,0.1-0.3,0.1-0.5l0.2-1c-0.8,0.1-1.8,0.4-2.6,0.5c-1.4,0.3-2.8,0.7-4,1.3
		c-1,0.5-2.5,1.1-3.1,2.1c-0.3,0.5-0.4,1.7-0.4,2.2c-0.4,2.2-0.6,4.5-0.8,6.7c-0.1,0.8-0.1,1.6-0.2,2.4c0,0.2,0,0.3,0,0.5
		c0,0.5-0.1,1-0.2,1.3c-0.1,0.2-0.3,0.4-0.8,0.4c0,0-0.1,0-0.1,0c-0.4,0-0.7-0.1-0.9-0.3c-0.4-0.4-0.3-1.4-0.3-2
		c0.1-1.2,0.2-2.4,0.3-3.6c0.1-0.9,0.2-1.9,0.3-2.9c0-0.7,0.2-2.7,0.2-3l0-0.8L14.5,57c-1.1,0.5-2.3,0.7-3.5,1c-1,0.3-2,0.6-3,0.7
		c0,0,0,0,0,0c-0.3,0-0.8-0.1-0.9-0.4c-0.2-0.4,0.3-0.8,0.4-0.9c1.9-1.1,4-2.3,6.3-3.1c1.8-0.7,3.1-2.3,3.3-4.2
		c0.2-1.5,0.5-3.3,1.1-5c0.2-0.6,0.4-1.5,0-2.1c-0.2-0.2-0.5-0.5-1.1-0.5c-0.3,0-0.7,0.1-1.1,0.2c-3.7,1.2-7.3,2.5-11,3.8
		c-1.1,0.4-2.2,0.9-3.3,1.3c-0.2,0.1-0.3,0.1-0.5,0.1C0.5,48,1,47,1.2,46.7c0.4-0.5,1-0.9,1.5-1.1c4.5-1.9,9.1-3.8,13.9-5.2
		c2.7-0.8,3.7-2.2,4.5-4.2c0.6-1.7,1.5-3.3,2.5-4.9c0,0,0-0.1,0.2-0.1c0.1,0,0.1,0,0.2,0c0.2,0,0.5,0.1,0.5,0.4c0,0,0,0,0,0.1
		c-0.1,1-0.3,2-0.6,3l-0.1,0.3c-0.4,1.4-0.6,2-0.2,2.5c0.3,0.4,0.7,0.4,1.1,0.4c0.4,0,0.9-0.1,1.5-0.2c0.2,0,0.4-0.1,0.7-0.1
		c1.3-0.2,2.4-0.3,3.4-0.5c1.9-0.5,2.5-3.1,2.7-4.8c0.4-2.6,0.9-5.2,1.6-7.8c0,0,0-0.1,0-0.1c0.2-0.4,0.6-0.4,0.8-0.4
		c0.4,0,0.8,0.2,1,0.7c0,0.1,0,0.2,0,0.2c-0.2,1.5-0.5,3-0.8,4.5c-0.4,1.9-0.8,3.9-0.8,5.9c0,0.1,0.1,0.2,0.2,0.2
		c0.8,0.1,1.7-0.3,2.5-0.4c1.2-0.1,3.4-1.1,4.5-0.3c0.4,0.3,0.5,0.8,0.2,1.2c-0.1,0.2-0.3,0.4-0.4,0.4c-1.2,0.5-2.5,0.7-3.8,1
		c-1.1,0.2-2.6,0.2-3.5,0.9l-0.1,0.1l-0.1,0.1c-0.6,1.2-1.1,3.2-1.6,6.3c-0.1,0.4-0.1,0.9,0.2,1.3c0.1,0.2,0.4,0.3,0.8,0.3
		c0.5,0,1-0.2,1.5-0.3c0.6-0.1,1.3-0.2,1.9-0.3c0.6-0.1,1.2-0.2,1.8-0.2c0,0,0.1,0,0.1,0c0.4,0.1,0.5,0.3,0.6,0.5
		c0.1,0.3,0.1,0.7-0.1,1c-0.1,0.2-0.2,0.3-0.3,0.3c-1.3,0.6-2.6,1-4,1.3c-0.7,0.2-1.3,0.3-2,0.5c-0.4,0.1-1.2,0.2-1.6,0.5
		c-0.1,0-0.1,0.1-0.2,0.2c-0.2,0.4-0.2,0.7-0.2,1.2c-0.4,6-2.2,14.9-4.2,19.8c-0.2,0.5-0.5,1.2-0.8,1.9c-0.2,0.5-0.4,0.9-0.5,1.1
		C25.8,74.3,25.6,74.8,25.4,74.8z M29,39.7c-0.3,0-0.7,0.1-1,0.1c-1.3,0.2-2.6,0.6-3.9,0.9c-1.6,0.3-2.5,1.2-2.9,2.8
		c-0.2,0.9-0.4,1.7-0.7,2.6c-0.3,0.8-0.5,1.6-0.7,2.5c-0.2,0.9-0.4,1.8-0.2,2.3c0.1,0.3,0.2,0.6,1,0.4l0.5-0.2
		c0.4-0.2,0.8-0.1,1.3-0.3c0.7-0.3,1.4-0.6,2.1-0.8c0.2-0.1,0.3-0.1,0.5-0.2c0.9-0.3,2.5-0.8,3.7-1.4c0.7-0.3,1.1-1,1.3-1.7
		c0.2-1,0.5-1.9,0.7-2.9c0.2-0.9,0.3-1.9,0.4-2.8c0.1-0.6,0.1-1.1,0.2-1.6c-0.1,0-0.3,0.1-0.4,0.1C30.2,39.6,29.6,39.6,29,39.7z"/>
</g>
</svg>
