<?xml version="1.0" encoding="utf-8"?>
<!-- Generator: Adobe Illustrator 25.2.1, SVG Export Plug-In . SVG Version: 6.00 Build 0)  -->
<svg version="1.1" id="レイヤー_1" xmlns="http://www.w3.org/2000/svg" xmlns:xlink="http://www.w3.org/1999/xlink" x="0px"
	 y="0px" viewBox="0 0 261 174.1" style="enable-background:new 0 0 261 174.1;" xml:space="preserve">
<g>
	<path class="st0" d="M3.9,12.6c6.9-0.6,15.5-2.1,18-3.2l1.1,2.2c-0.4,0.1-0.9,0.7-1.6,1.4c-3.5,3.4-8.5,7.8-12.6,11.3
		c5-1.5,15.4-4.1,22.3-4.6l0.2,2.6c-0.5,0-1.1,0.1-1.7,0.1c-2,0.2-4.1,0.5-5.6,1.1C20.9,24.7,13.6,29.9,14,35
		c0.2,2.3,1.7,2.9,2.2,3.2c1.7,0.8,5.8,1.1,9.3,1L25,41.8c-9,0.1-13.3-1.6-13.7-6.3c-0.4-4.8,4.4-9.3,7.8-11.5
		C12.8,25.2,6.7,27,0.7,29.2L0,26.7c2.1-0.6,3.6-1.3,4.7-2.1C7.3,22.7,15,16,17.8,12.8c-2.3,0.6-6.9,1.4-9,1.7
		c-1.1,0.2-2.5,0.3-3.5,0.5c-0.1,0.2-0.6,0.5-0.9,0.5L3.9,12.6z"/>
	<path class="st0" d="M36.8,15.3c3-0.3,5.7-0.8,6.9-1.2c-0.1-2.2-0.2-3.5-0.4-6.8l3.8-0.1c0,0.4-0.3,0.7-1,0.8
		c0,1.6,0.1,3.9,0.1,5.3l1.2,0.3c-0.7,1.9-0.9,4.1-1,5.4c3.7-4.2,8-7.3,11.1-7.6c3.5-0.3,5.4,2,5.8,6.3c0,0.5,0.1,1,0.1,1.4
		c0,3.3,0.1,7.9,0.4,10.9c0.2,2.2,0.6,3.4,2.1,3.2c1.1-0.1,3.2-1.4,4.7-2.9c0.1,0.7,0.6,2.2,0.8,2.8c-1.8,1.5-3.9,2.8-5.6,2.9
		c-3.1,0.3-4.3-1.5-4.7-5.3C61,29,60.7,18.8,60.7,18.7c-0.3-3.2-1.5-4.6-3.3-4.4c-2.8,0.3-7.2,3.7-10.6,8.1c0.5,5.4,1.1,12,1.6,17
		l-2.6,0.2c-0.2-2.1-1.2-12.7-1.3-15.1c-1.1,2.7-3.3,6.3-5.9,9.5l-1.5-2.2c2.8-3.2,5.8-8,7.1-11.9c-0.1-1.1-0.2-2.1-0.2-3.3
		c-1.3,0.4-3.9,1-6.8,1.2L36.8,15.3z"/>
	<path class="st0" d="M73.5,8.5c2.8-0.4,25.4-4.1,30.2-4.5l0.3,2.8c-0.5,0-0.9,0-1.4,0.1c-2.1,0.2-3.9,0.7-6.2,2.5
		c-5.2,3.8-10.1,10.3-9.6,15.1c0.5,5.2,4.4,7.9,13.7,8.3l-1,2.7C88.8,34.7,84.6,31.2,84,24.6c-0.5-5.2,4.1-12,10.5-16.9
		c-4,0.7-14.9,2.5-19.6,3.4c-0.1,0.3-0.5,0.6-0.8,0.7L73.5,8.5z M98.1,13.6c1.9,1.2,4.2,3.2,5.5,4.6l-1.3,1.3
		c-1.2-1.5-3.6-3.6-5.4-4.7L98.1,13.6z M101.8,10c1.9,1.2,4.3,3.1,5.5,4.6l-1.3,1.2c-1.1-1.4-3.5-3.5-5.3-4.7L101.8,10z"/>
	<path class="st0" d="M131.9,18.6c-2.3,0.5-5.7,1-8.8,1.2c0,1.3,0,2.8,0.1,3.5c0.5,5.9,4.5,6,7.9,5.7c5.8-0.5,8.5-2.5,8.2-5.9
		c-0.2-1.9-1.4-4.2-3.7-6.5c0.7-0.3,1.7-0.8,2.3-1.1c2.5,2.7,3.9,5.4,4.1,7.8c0.6,6.2-6.3,7.8-10.8,8.2c-3.6,0.3-9.9,0.6-10.7-8
		c-0.2-1.7-0.1-2.9-0.1-3.5c-3.1,0.2-8.1,0.4-8.5-3.4c-0.2-1.7,0.7-3.3,2.7-5.1l2.1,1c-1.5,1.1-2.4,2.5-2.3,3.5c0.2,2,3.1,1.8,6,1.6
		c0-2.5,0.1-5.5,0.2-8.4c-2.7-0.1-5.8-0.5-8-1.3l0.4-2.5c2.1,0.8,4.8,1.2,7.6,1.3c0.1-2.4,0.1-4.7,0.2-6.7l3.9,0.1
		c-0.1,0.5-0.5,0.8-1.1,0.8c-0.1,1.6-0.2,3.6-0.3,5.8c1.1,0,2.2-0.1,3.4-0.2c1.4-0.1,2.8-0.3,4.2-0.5l0.1,2.5
		c-1.1,0.2-2.4,0.3-3.6,0.4c-1.4,0.1-2.9,0.2-4.2,0.3c-0.1,2.8-0.2,5.7-0.2,8.2c2.9-0.3,6.2-0.7,8.6-1.3L131.9,18.6z"/>
	<path class="st0" d="M35,78.1c-0.1,0.2-0.2,0.4-0.4,0.5c-1.6,14.3-8.1,23.3-19.9,28.6c-0.5-0.6-1.4-1.5-1.9-2
		c11.1-4.8,17.4-13.7,18.6-25.1L7.2,82.3L7,79.8l25.2-2.3l0.5-0.4L35,78.1z"/>
	<path class="st0" d="M71.3,79.3c0,0.1-0.2,0.2-0.3,0.3c-1.3,3.8-4.1,8-6.7,10.5c-0.4-0.3-1.4-0.9-1.9-1.2c2.5-2.2,5-5.8,5.7-8.3
		l-21.4,1.9l-0.2-2.1l22.5-2.1l0.3-0.2L71.3,79.3z M59.9,85.7c-0.1,0.2-0.3,0.5-0.7,0.6C59,93,57.1,99.4,51.4,104
		c-0.5-0.3-1.4-1-2.1-1.2c5.7-4.4,7.4-10,7.5-17.2L59.9,85.7z"/>
	<path class="st0" d="M85.2,78.7c1.3,2.2,2.9,5.6,3.5,7.7l-2,0.7c-0.6-2.1-2.1-5.4-3.4-7.6L85.2,78.7z M107.3,77
		c0,0.3-0.4,0.4-0.7,0.4c-1.9,11.1-6.7,18.2-15.4,22.6c-0.3-0.4-1.1-1.2-1.6-1.6c8.5-4.3,13-10.8,14.7-22.1L107.3,77z M94.1,76.1
		c1,2.4,2,5.9,2.5,8.2L94.4,85c-0.4-2.3-1.5-5.7-2.5-8.2L94.1,76.1z"/>
	<path class="st0" d="M118.3,76.4c3.4,0.4,7.7,1.5,10.3,2.4l-0.9,2.4c-2.5-1-6.9-2.1-10.3-2.5L118.3,76.4z M121.5,66.9
		c3.4,0.6,7.6,1.7,10.2,2.7l-1,2.4c-2.7-1.1-6.7-2.2-10.1-2.8L121.5,66.9z M122.1,94.3c11.7-5.1,19.3-12.3,23.2-23.8
		c0.6,0.4,1.8,1.1,2.4,1.4c-4,11.4-12,19.1-22.9,24.1c0.1,0.3,0,0.8-0.4,1L122.1,94.3z"/>
	<path class="st0" d="M178.3,70l2,22.5l-2.2,0.2l-0.1-1.6l-16.6,1.5l-0.2-2.1l16.6-1.5l-0.7-7.5l-15.1,1.4l-0.2-2.1l15.1-1.4
		l-0.7-7.2l-15.7,1.4l-0.2-2L178.3,70z"/>
	<path class="st0" d="M193,61.9c4,0.9,8.6,2.4,11.5,4l-1.2,2.5c-2.8-1.6-7.4-3.2-11.3-4.2L193,61.9z M195.1,87.6
		c12.8-5.3,20.8-13.4,24.3-24.1c0.8,0.6,1.7,1,2.5,1.3c-3.7,10.6-12,19.3-24.2,24.6c0,0.3-0.2,0.7-0.4,0.9L195.1,87.6z"/>
	<path class="st0" d="M239.7,55.4c0,0.5-0.5,0.7-1.2,0.8c-0.2,2.1-0.6,5.8-0.8,8c1.6-0.3,3.2-0.6,4.1-0.7c5.6-0.6,7.9,3,8.4,8.5
		c0.3,2.8,0,6.1-0.5,8.4c-0.8,3.9-3,5.9-6.1,6.2c-1.5,0.1-3.6-0.3-7-2.6c0.3-0.7,0.6-1.5,0.8-2.3c3.2,2,4.8,2.4,5.9,2.3
		c2.1-0.2,3.2-1.6,3.8-4.1c0.6-2.4,0.7-5.8,0.5-7.7c-0.4-4.2-2-6.6-5.7-6.2c-1.1,0.1-2.6,0.4-4.5,0.8c-1.2,7.7-2.8,14.4-5.8,20.7
		l-2.5-1c3.1-6.1,4.6-12,5.7-19.2c-1.9,0.4-4.5,1-6.5,1.5l-0.5-2.6c1.8-0.4,4.8-1,7.2-1.5c0.3-2.8,0.6-6.1,0.7-9.4L239.7,55.4z
		 M248.2,53.5c1.9,1.2,4.2,3.2,5.4,4.7l-1.3,1.2c-1.2-1.5-3.6-3.6-5.4-4.7L248.2,53.5z M258.4,74.3c-1.7-5.2-5-9.4-8.7-11.9l2-1.6
		c3.9,2.7,7.5,7.1,9.3,12.3L258.4,74.3z M253.6,51.5c1.9,1.2,4.2,3.2,5.5,4.7l-1.3,1.2c-1.2-1.5-3.6-3.7-5.4-4.7L253.6,51.5z"/>
	<path class="st0" d="M22.6,146.4l1.4,0.2l-0.2,0.5c0.1,6.6-0.6,12-2.1,16.2c1.9,1.2,3.6,2.5,4.7,3.6l-1.3,2.2
		c-1-1.1-2.6-2.3-4.3-3.5c-1.6,3.6-3.8,6.4-6.6,8.4c-0.4-0.6-1.2-1.4-1.7-1.9c2.6-1.7,4.8-4.4,6.3-7.8c-1.5-0.9-3-1.7-4.5-2.5
		l-0.3,1.7l-2.2-0.9c0.6-3.3,1.3-8.1,2-13l-3.7,0.3l-0.2-2.3l4.2-0.4c0.3-2.8,0.6-5.5,0.8-7.9l3.1,0.1c0,0.3-0.2,0.4-0.7,0.5
		c-0.2,2.1-0.5,4.6-0.8,7.1l5.7-0.5L22.6,146.4z M16.2,149.5c-0.5,3.5-1,7.1-1.5,10.2c1.6,0.7,3.3,1.6,5,2.5c1.2-3.6,1.8-8,1.9-13.2
		L16.2,149.5z M45,153.3l0.2,2.4l-8.9,0.8l1.1,12.2c0.3,2.8-0.8,3.4-7.4,3.9c-0.2-0.7-0.7-1.7-1.2-2.4c1.8-0.1,3.4-0.2,4.4-0.3
		c1.3-0.1,1.6-0.1,1.6-0.9l-1.1-12.3l-9.1,0.8l-0.2-2.4l9.1-0.8L33,148l1.2,0c1.8-1.8,3.6-4.3,4.9-6.5l-14.2,1.3l-0.2-2.3l16.1-1.5
		l0.5-0.2l2.1,1c-0.1,0.2-0.3,0.3-0.6,0.4c-1.7,2.9-4.5,6.7-7.1,9.3l0.4,4.6L45,153.3z"/>
	<path class="st0" d="M79.1,146.9c-3.2,1.4-7.2,2.5-11,3.3c1.3,1.9,3.8,4.5,6.6,5.3l-1.3,2.2c-0.5-0.2-1.5-0.6-2.2-0.9
		c-0.8-0.2-2.7-0.3-4.4-0.2c-0.5,0-1,0.1-1.5,0.2l-0.7-2c1.2-0.2,3.1-0.3,4.2-0.2c-1.1-1-2.4-2.5-3.3-3.9c-2.5,0.5-5.2,0.8-9.9,1.3
		c-1.8,0.2-3.8,0.4-5.5,0.5l-0.2-2.3c1.7-0.1,3.8-0.3,5.7-0.4c3-0.3,6-0.5,9-1.1c-0.5-1.1-1.3-3.2-1.9-4.8c-1.5,0.3-3.1,0.5-4.6,0.6
		c-2,0.2-4.6,0.4-6.3,0.5l-0.2-2.3c2.2-0.1,4.7-0.3,6.3-0.5c1.3-0.1,2.8-0.3,4.2-0.6c-0.5-1.7-1-3.7-1.5-5.7l3.8-0.3
		c0,0.4-0.3,0.7-0.9,0.9c0.4,1.6,0.8,3.2,1.2,4.7c3.4-0.6,7.1-1.7,9.7-3l0.8,2.2c-2.6,1.2-6.2,2.3-9.9,3c0.7,1.9,1.3,3.6,1.8,4.7
		c3.9-0.8,8.1-2,11.3-3.5L79.1,146.9z M74.3,167c-2,0.3-4.5,0.6-8.1,1c-6,0.5-10.8-1-11.1-5.2c-0.2-2.2,1.5-4.7,3.8-6.2l1.8,1.6
		c-2,1.3-3.2,3-3,4.4c0.2,2.6,3.6,3.5,8.3,3.1c2.8-0.3,5.7-0.7,8.2-1.1L74.3,167z"/>
	<path class="st0" d="M106.7,139.2c-3,1.4-7.2,2.5-11.2,3.1c-0.8,8.6-2.3,17.3-4.7,23.7l-2.8-0.8c2.5-6.2,4-14.1,4.7-22.6
		c-0.7,0.1-5.7,0.6-6.8,0.7l-0.3-2.5c0.6,0,1.4-0.1,2.2-0.2c0.3,0,4-0.4,5-0.5c0.2-2.4,0.3-5,0.3-7.3l3.8,0c0,0.4-0.5,0.8-1,0.8
		c-0.1,1.6-0.3,3.7-0.4,6c3.6-0.7,7.2-1.6,10.2-3L106.7,139.2z M118.8,162.7c-1.4,0.2-3,0.5-4.5,0.6c-3,0.3-5.9,0.3-7.8,0
		c-2.7-0.5-4.4-2.3-4.6-4.7c-0.1-1.6,0.4-3.5,1.8-5.6l2.3,0.8c-1.2,1.6-1.7,3.1-1.5,4.3c0.3,2.9,3.1,3.3,9.2,2.8
		c1.6-0.1,3.3-0.4,4.8-0.7L118.8,162.7z M102.7,146.4c3.7-1.6,8.9-2.8,13.3-3.1l0.2,2.5c-4.2,0.3-9,1.3-12.7,2.8L102.7,146.4z
		 M108,133c1.9,1.2,4.3,3.1,5.6,4.6l-1.3,1.3c-1.2-1.5-3.8-3.6-5.5-4.6L108,133z M112.6,130.1c1.9,1.2,4.3,3,5.6,4.5l-1.3,1.3
		c-1.2-1.3-3.6-3.4-5.4-4.6L112.6,130.1z"/>
	<path class="st0" d="M133.1,158c0.3,2.8-1.9,5.4-4.7,5.7c-2.8,0.3-5.4-1.9-5.7-4.7c-0.3-2.8,1.9-5.4,4.7-5.7
		C130.3,153.1,132.8,155.3,133.1,158z M131.7,158.2c-0.2-2.1-2.1-3.7-4.2-3.5c-2.1,0.2-3.7,2-3.5,4.2c0.2,2.1,2,3.7,4.2,3.5
		C130.5,162.1,131.9,160.2,131.7,158.2z"/>
</g>
</svg>
