<?xml version="1.0" encoding="utf-8"?>
<!-- Generator: Adobe Illustrator 25.2.1, SVG Export Plug-In . SVG Version: 6.00 Build 0)  -->
<svg version="1.1" id="レイヤー_1" xmlns="http://www.w3.org/2000/svg" xmlns:xlink="http://www.w3.org/1999/xlink" x="0px"
	 y="0px" viewBox="0 0 37.9 188.4" style="enable-background:new 0 0 37.9 188.4;" xml:space="preserve">
<style type="text/css">
	.st0{fill:#040000;}
	.st1{fill:none;stroke:#FFFFFF;stroke-miterlimit:10;}
	.st2{fill:#FFFFFF;}
</style>
<rect class="st0" width="37.9" height="188.4"/>
<g>
	<polyline class="st1" points="9,20.9 11.2,20.9 14.7,33.7 23.1,33.7 	"/>
	<path class="st1" d="M12.2,24.4H26L24,31.2c0,0,0,0.8-1.1,0.8c-1.1,0-8.7,0-8.7,0"/>
	<circle class="st1" cx="22.9" cy="35.3" r="1.6"/>
	<circle class="st1" cx="15.2" cy="35.3" r="1.6"/>
</g>
<g>
	<path class="st2" d="M22.7,48.1c0.9,0.8,1.4,1.9,1.4,3.2s-0.5,2.4-1.4,3.2s-2.2,1.2-3.8,1.2c-1.6,0-2.8-0.4-3.8-1.2
		c-0.9-0.8-1.4-1.9-1.4-3.2s0.5-2.4,1.4-3.2c0.9-0.8,2.2-1.2,3.8-1.2C20.5,46.9,21.8,47.3,22.7,48.1z M23.3,51.4
		c0-1.1-0.4-1.9-1.2-2.5s-1.8-0.9-3.1-0.9c-1.3,0-2.4,0.3-3.1,0.9c-0.8,0.6-1.2,1.5-1.2,2.5c0,1.1,0.4,1.9,1.2,2.5
		c0.8,0.6,1.8,0.9,3.1,0.9c1.3,0,2.4-0.3,3.1-0.9C22.9,53.3,23.3,52.4,23.3,51.4z"/>
	<path class="st2" d="M23.9,67.6H14v-1.4l4.4-2.6c0.6-0.3,1.4-0.8,2.4-1.4c1-0.6,1.8-1,2.2-1.3v0c-0.6,0-1.4,0-2.5,0
		c-1.1,0-1.9,0-2.5,0H14V60h10v1.4l-4.4,2.6c-0.6,0.3-1.4,0.8-2.4,1.4c-1,0.6-1.8,1-2.2,1.3v0c1.1,0,2.8,0,5,0h4.1V67.6z"/>
	<path class="st2" d="M23.9,73.4h-9.1v5.3H14v-6.2h10V73.4z"/>
	<path class="st2" d="M23.9,83.2H14v-0.9h10V83.2z"/>
	<path class="st2" d="M23.9,95.8H14v-1.4l4.4-2.6c0.6-0.3,1.4-0.8,2.4-1.4c1-0.6,1.8-1,2.2-1.3v0c-0.6,0-1.4,0-2.5,0
		c-1.1,0-1.9,0-2.5,0H14v-0.9h10v1.4l-4.4,2.6c-0.6,0.3-1.4,0.8-2.4,1.4c-1,0.6-1.8,1-2.2,1.3v0c1.1,0,2.8,0,5,0h4.1V95.8z"/>
	<path class="st2" d="M23.9,106.9h-0.8v-5.3h-3.6v5h-0.8v-5h-3.9v5.5H14v-6.4h10V106.9z"/>
	<path class="st2" d="M24.1,119.2c0,2.3-1.1,3.5-3.3,3.5v-0.9c1.6,0,2.5-0.8,2.5-2.5c0-0.7-0.2-1.2-0.5-1.6s-0.8-0.6-1.3-0.6
		c-0.6,0-1,0.2-1.2,0.6s-0.5,1-0.7,2c-0.1,0.4-0.2,0.8-0.3,1.1s-0.2,0.6-0.4,0.9s-0.3,0.6-0.5,0.7c-0.2,0.2-0.4,0.3-0.7,0.4
		c-0.3,0.1-0.6,0.2-1,0.2c-0.9,0-1.6-0.3-2.1-0.9s-0.8-1.4-0.8-2.5c0-1.1,0.3-2,0.9-2.6c0.6-0.6,1.5-0.9,2.6-0.9v0.9
		c-0.9,0-1.6,0.2-2,0.7c-0.4,0.5-0.7,1.1-0.7,2c0,0.8,0.2,1.4,0.5,1.8c0.3,0.4,0.8,0.6,1.5,0.6c0.6,0,1-0.2,1.2-0.6
		c0.3-0.4,0.5-1.1,0.8-2c0.1-0.6,0.3-1,0.4-1.3s0.3-0.7,0.5-1s0.5-0.5,0.8-0.7s0.7-0.2,1.2-0.2c0.8,0,1.4,0.3,1.9,0.8
		C23.9,117.5,24.1,118.2,24.1,119.2z"/>
	<path class="st2" d="M23.9,133.9h-0.8v-3.6H14v-0.9h9.1v-3.5h0.8V133.9z"/>
	<path class="st2" d="M22.7,138c0.9,0.8,1.4,1.9,1.4,3.2s-0.5,2.4-1.4,3.2s-2.2,1.2-3.8,1.2c-1.6,0-2.8-0.4-3.8-1.2
		c-0.9-0.8-1.4-1.9-1.4-3.2s0.5-2.4,1.4-3.2c0.9-0.8,2.2-1.2,3.8-1.2C20.5,136.7,21.8,137.2,22.7,138z M23.3,141.2
		c0-1.1-0.4-1.9-1.2-2.5c-0.8-0.6-1.8-0.9-3.1-0.9c-1.3,0-2.4,0.3-3.1,0.9c-0.8,0.6-1.2,1.5-1.2,2.5c0,1.1,0.4,1.9,1.2,2.5
		c0.8,0.6,1.8,0.9,3.1,0.9c1.3,0,2.4-0.3,3.1-0.9S23.3,142.2,23.3,141.2z"/>
	<path class="st2" d="M14,149.8h10v2.9c0,1.1-0.2,2-0.7,2.6c-0.5,0.6-1.1,0.8-2,0.8c-0.6,0-1.2-0.2-1.6-0.5
		c-0.5-0.4-0.7-0.8-0.9-1.4h0c-0.1,0.4-0.3,0.6-0.6,0.8c-0.3,0.2-0.7,0.4-1.3,0.6l-2.9,1v-1l2.8-1c0.6-0.2,1-0.5,1.3-0.8
		s0.4-0.7,0.4-1.3v-2.1H14V149.8z M23.1,152.7v-2h-3.9v2.1c0,0.8,0.2,1.4,0.6,1.8c0.4,0.4,0.9,0.6,1.5,0.6
		C22.5,155.2,23.1,154.3,23.1,152.7z"/>
	<path class="st2" d="M23.9,166.8h-0.8v-5.3h-3.6v5h-0.8v-5h-3.9v5.5H14v-6.4h10V166.8z"/>
</g>
</svg>
