<?xml version="1.0" encoding="utf-8"?>
<!-- Generator: Adobe Illustrator 25.2.1, SVG Export Plug-In . SVG Version: 6.00 Build 0)  -->
<svg version="1.1" id="レイヤー_1" xmlns="http://www.w3.org/2000/svg" xmlns:xlink="http://www.w3.org/1999/xlink" x="0px"
	 y="0px" viewBox="0 0 241.1 28.5" style="enable-background:new 0 0 241.1 28.5;" xml:space="preserve">
<style type="text/css">
	.st0{enable-background:new    ;}
	.st1{fill:#E73556;}
	.st2{fill:#68C3C4;}
	.st3{fill:#FFFFFF;}
</style>
<g class="st0">
	<path class="st1" d="M13.3,10.3H16l-0.5,2.2h-2.7L12,16.3h2.8l-0.5,2.2h-2.7l-1.1,5.2H9.3l1.1-5.2H6.7l-1.1,5.2H4.4l1.1-5.2H2.7
		l0.5-2.2h2.6l0.8-3.8H3.9l0.5-2.2h2.8l1.1-5.2h1.2l-1.1,5.2H12l1.1-5.2h1.2L13.3,10.3z M7.9,12.5l-0.8,3.8h3.7l0.8-3.8
		C11.6,12.5,7.9,12.5,7.9,12.5z"/>
</g>
<g class="st0">
	<path class="st1" d="M31,7.7v2.4h0.3c2,0,2.6,0,2.8,0s0.3,0,0.3,0.3c2.1-0.9,3.1-2.2,3.3-4.6c-1.8,0-2.5,0-2.6,0
		c-0.2,0-0.3,0-0.3-0.3V3.9c0-0.2,0-0.3,0.3-0.3c0.1,0,0.8,0,2.8,0H42c2,0,2.7,0,2.8,0c0.3,0,0.3,0,0.3,0.3c0,0.5-0.1,0.9-0.1,1.3
		c0,2.7-0.2,4.4-0.6,5.2c-0.3,0.6-0.8,1-1.5,1.2c-0.5,0.1-1.2,0.1-2,0.1s-0.8,0-0.9-0.8c-0.1-0.5-0.3-1.2-0.5-1.6
		c0.7,0.1,1.3,0.2,1.8,0.2s0.8-0.1,1-0.5c0.2-0.6,0.4-1.9,0.4-3.5H40c-0.2,3-1.2,4.8-3.7,6.3C36,11.9,35.9,12,35.7,12
		c-0.2,0-0.3-0.1-0.5-0.5c-0.3-0.4-0.6-0.7-0.9-1v1.4c0,0.2,0,0.3-0.3,0.3c-0.1,0-0.8,0-2.8,0H31v2.5h1c1.1,0,1.5,0,1.6,0
		c0.2,0,0.3,0,0.3,0.3v1.8c0,0.2,0,0.2-0.3,0.2c-0.1,0-0.6,0-1.6,0h-1v3.6c1.4,0.6,3.2,0.9,6,0.9c3.1,0,5.9-0.2,9.1-0.6
		c-0.3,0.6-0.5,1.2-0.7,1.9c-0.1,0.8-0.1,0.8-0.9,0.8c-2.4,0.2-4.8,0.3-7.4,0.3c-3.4,0-5.4-0.4-7.2-1.4c-1.3-0.7-2.4-1.6-3.1-2.8
		c-0.3,1.3-0.7,2.7-1.2,3.9c-0.1,0.3-0.2,0.5-0.4,0.5c-0.1,0-0.2-0.1-0.5-0.3c-0.4-0.5-0.9-1-1.4-1.2c1.2-2.2,1.8-4.9,1.8-7.8
		c0-0.4,0-0.9,0-1.4c0.7,0.1,1.5,0.2,2,0.4c0.3,0.1,0.4,0.1,0.4,0.3c0,0.1,0,0.2-0.1,0.3s-0.1,0.6-0.2,1c0,0.6,0,1.2-0.1,1.8
		c0.4,0.8,0.9,1.4,1.6,2v-6.8h-1.8c-2,0-2.6,0-2.8,0c-0.2,0-0.2,0-0.2-0.3v-1.8c0-0.3,0-0.3,0.2-0.3s0.8,0,2.8,0h1.5V7.7h-0.9
		c-1.8,0-2.5,0-2.6,0c-0.2,0-0.3,0-0.3-0.3V5.8c0-0.3,0-0.3,0.3-0.3c0.1,0,0.8,0,2.6,0h0.9V5.4c0-1.3,0-2-0.2-2.9
		c0.9,0,1.6,0.1,2.4,0.2c0.2,0,0.4,0.1,0.4,0.2c0,0.1,0,0.2-0.1,0.4C31,3.5,31,4,31,5.3v0.2h0.2c1.8,0,2.4,0,2.6,0
		c0.3,0,0.3,0,0.3,0.3v1.7c0,0.2,0,0.3-0.3,0.3c-0.1,0-0.7,0-2.6,0H31V7.7z M41.6,12.8c1.8,0,2.5,0,2.6,0c0.2,0,0.3,0,0.3,0.3
		c0,0.1,0,0.7,0,2.1V18c0,1.3,0,1.9,0,2.1s0,0.3-0.3,0.3c-0.2,0-0.8,0-2.6,0h-3.4c-1.9,0-2.5,0-2.6,0c-0.2,0-0.3,0-0.3-0.3
		c0-0.2,0-0.7,0-2.1v-2.9c0-1.3,0-1.9,0-2.1c0-0.2,0-0.3,0.3-0.3c0.1,0,0.7,0,2.6,0h3.4V12.8z M42.2,14.9h-4.7v3.3h4.7V14.9z"/>
	<path class="st1" d="M53.2,8.5c-1.6,0-2.9,0.1-4,0.1c-0.3,0-0.4-0.1-0.5-0.5c-0.1-0.5-0.2-1.7-0.2-2.4c1.1,0.1,2.4,0.2,4.6,0.2h8.6
		c0.7,0,1,0,1.3-0.2c0.1-0.1,0.2-0.1,0.4-0.1c0.1,0,0.3,0,0.5,0.1c0.6,0.4,1.3,1,1.8,1.6c0.1,0.1,0.2,0.3,0.2,0.4
		c0,0.2-0.1,0.4-0.3,0.6c-0.2,0.2-0.3,0.5-0.6,0.9c-1.2,2.8-2.6,5.5-4.7,7.8c-2.1,2.4-4.4,4.3-6.8,5.7C53.2,22.9,53,23,52.8,23
		s-0.4-0.1-0.6-0.3c-0.6-0.5-1.3-1-2.2-1.3c3.5-1.8,5.6-3.4,7.8-6c1.9-2.1,3.1-4.2,4.1-6.8h-8.7V8.5z"/>
	<path class="st1" d="M73.4,11.6c-1.4,0-2.2,0.1-3.2,0.1c-0.2,0-0.5-0.1-0.5-0.3c-0.1-0.5-0.2-1.4-0.3-2.2c1.4,0.1,2.2,0.1,3.9,0.1
		h8c0.7,0,1,0,1.3-0.2c0.1,0,0.2-0.1,0.3-0.1s0.2,0.1,0.4,0.2c0.5,0.4,0.9,0.9,1.4,1.6c0.1,0.1,0.1,0.3,0.1,0.4
		c0,0.1-0.1,0.3-0.2,0.3c-0.3,0.2-0.5,0.3-0.6,0.5c-1,1.4-2.2,2.9-3.1,3.7c-0.1,0.1-0.3,0.2-0.4,0.2c-0.2,0-0.4-0.1-0.5-0.2
		c-0.5-0.4-0.9-0.6-1.6-0.8c1.2-1.1,2.2-2.1,2.9-3.2L73.4,11.6L73.4,11.6z M77.6,13c0.3,0.1,0.4,0.2,0.4,0.4c0,0.1,0,0.2-0.1,0.3
		c-0.1,0.2-0.2,0.6-0.2,0.9c0,3.6-1.4,6.7-4.5,8.7c-0.2,0.1-0.4,0.2-0.6,0.2c-0.1,0-0.3-0.1-0.5-0.2c-0.5-0.4-1.2-0.8-1.9-1
		c3.3-1.8,4.9-4.1,4.9-7.8c0-0.8,0-1.1-0.2-2C76,12.7,77,12.8,77.6,13z"/>
	<path class="st1" d="M89.8,10.3c0.3-0.1,0.4-0.1,0.6,0.2c0.8,1.1,1.6,2.3,2.1,3.6c0,0.2,0.1,0.3,0.1,0.4c0,0.1-0.1,0.2-0.3,0.3
		c-0.6,0.3-1,0.5-1.5,0.7c-0.3,0.1-0.5,0-0.6-0.3c-0.6-1.4-1.3-2.7-2.3-3.9C88.7,10.8,89.3,10.5,89.8,10.3z M103,10.6
		c0.2,0.1,0.3,0.3,0.3,0.4c0,0.1-0.1,0.3-0.3,0.4c-0.4,0.3-0.5,0.8-0.7,1.2c-1,2.4-2.3,4.6-3.6,6.4c-1.6,2-2.9,3.3-4.9,4.6
		c-0.2,0.1-0.4,0.3-0.6,0.3c-0.1,0-0.3,0-0.4-0.2c-0.6-0.5-1.2-0.7-2-1c2.9-1.9,4.3-3.1,5.8-5c1.2-1.6,2.5-3.9,3.2-5.8
		c0.3-0.9,0.5-1.4,0.6-2.5C101.3,9.7,102.4,10.2,103,10.6z M94.6,9.1C94.9,9,95.1,9,95.2,9.3c0.6,0.8,1.5,2.4,1.8,3.5
		c0.1,0.4,0.1,0.5-0.2,0.6c-0.5,0.3-1,0.5-1.7,0.7c-0.3,0.1-0.4,0-0.5-0.4c-0.6-1.4-1.1-2.6-2-3.8C93.7,9.5,94.2,9.3,94.6,9.1z"/>
	<path class="st1" d="M108.4,10c0.1-0.2,0.2-0.3,0.5-0.2c1.8,0.6,3.2,1.4,4.6,2.4c0.2,0.1,0.3,0.2,0.3,0.4c0,0.1,0,0.2-0.1,0.3
		c-0.3,0.6-0.7,1.3-1.1,1.8c-0.1,0.1-0.2,0.2-0.3,0.2s-0.2,0-0.3-0.1c-1.5-1.1-3.1-1.9-4.8-2.6C107.7,11.1,108.1,10.4,108.4,10z
		 M112.3,18.9c2.3-1.2,4.2-2.3,6.6-4.2c1.9-1.5,4.5-3.8,6.9-6.7c0.1,1.1,0.3,1.7,0.7,2.7c0.1,0.2,0.1,0.3,0.1,0.5s-0.1,0.4-0.3,0.6
		c-2.2,2.4-3.7,3.7-6.1,5.5c-2.1,1.6-4.3,3-7.2,4.5c-0.6,0.3-1.2,0.6-1.4,0.8c-0.1,0.1-0.3,0.2-0.4,0.2c-0.2,0-0.3-0.1-0.5-0.3
		c-0.5-0.5-1.2-1.4-1.8-2.4C110,19.9,110.9,19.7,112.3,18.9z M111.3,4.5c0.2-0.3,0.3-0.3,0.6-0.2c1.5,0.6,3.2,1.5,4.5,2.7
		c0.1,0.1,0.2,0.2,0.2,0.3c0,0.1,0,0.2-0.1,0.3c-0.3,0.6-0.8,1.4-1.2,1.8c-0.1,0.1-0.2,0.1-0.2,0.1c-0.1,0-0.2-0.1-0.4-0.2
		c-1.2-1-3.1-2.3-4.7-3C110.4,5.8,110.9,5.1,111.3,4.5z"/>
	<path class="st1" d="M140,12.5h-5.5c-1.1,0-2.3,0.1-3.4,0.1c-0.2,0-0.3-0.2-0.4-0.6c0-0.6-0.1-1.1-0.1-2c1.4,0.1,2.1,0.1,3.8,0.1
		h4.2c1.2,0,2.5,0,3.6,0c0.3,0,0.4,0.1,0.4,0.4c0,1.1,0,2.1,0,3.1v5.5c0,1.1,0,2.2,0.1,3.4c0,0.4-0.1,0.4-0.5,0.5
		c-0.4,0-1.2,0-1.6,0c-0.4,0-0.4-0.1-0.4-0.4v-0.7h-5.7c-1.1,0-2.2,0-3.3,0.1c-0.2,0-0.3-0.1-0.3-0.5c-0.1-0.5-0.1-1.2-0.1-2
		c1.3,0.1,2.5,0.1,3.9,0.1h5.6v-2.7h-5.1c-1.1,0-2.3,0-3.3,0.1c-0.3,0-0.4-0.1-0.4-0.5c-0.1-0.5-0.1-1.1-0.1-1.9
		c1.3,0.1,2.2,0.1,3.7,0.1h5.1v-2.2H140z"/>
	<path class="st1" d="M149.1,5.7c0.1-0.1,0.2-0.2,0.3-0.2s0.2,0,0.3,0.1c1.2,0.6,3.2,2.1,4.6,3.4c0.1,0.1,0.2,0.2,0.2,0.3
		s0,0.2-0.1,0.3c-0.4,0.5-1.2,1.4-1.5,1.8c-0.1,0.1-0.2,0.2-0.3,0.2s-0.2-0.1-0.3-0.2c-1.4-1.5-3.2-2.9-4.9-3.9
		C148,6.9,148.7,6.2,149.1,5.7z M151.2,18.3c2.9-1.5,4.5-2.5,6.9-4.5c2.9-2.4,4.5-3.9,6.6-6.5c0.1,1.2,0.4,2,0.7,2.8
		c0.1,0.2,0.1,0.3,0.1,0.5s-0.1,0.4-0.4,0.7c-1.3,1.5-3.3,3.4-5.5,5.1c-2,1.6-4,2.9-7.2,4.7c-1.1,0.6-1.4,0.9-1.6,1.1
		c-0.1,0.1-0.3,0.2-0.4,0.2c-0.1,0-0.3-0.1-0.4-0.3c-0.6-0.7-1.3-1.7-1.9-2.7C149.2,19.2,149.9,19,151.2,18.3z"/>
	<path class="st1" d="M173.4,6.2c-0.3,1.8-0.8,3.4-1.4,5h2.3c1.1,0,1.6,0,1.7,0c0.2,0,0.3,0,0.3,0.3c0,0.2,0,0.9,0,3.2V17
		c0,3.4,0,4.1,0,4.2c0,0.3,0,0.3-0.3,0.3h-1.6c-0.2,0-0.3,0-0.3-0.3v-0.6H172v2c0,0.2,0,0.3-0.3,0.3h-1.6c-0.3,0-0.3,0-0.3-0.3
		c0-0.1,0-0.9,0-4.3V15c-0.3,0.5-0.7,1-1.1,1.4c-0.2,0.2-0.3,0.3-0.4,0.3c-0.1,0-0.2-0.1-0.3-0.5c-0.1-0.8-0.3-1.5-0.6-2.1
		c1.8-2,3-4.7,3.5-8.1h0.1c-1.7,0-2.3,0-2.4,0c-0.2,0-0.3,0-0.3-0.3V4.2c0-0.2,0-0.3,0.3-0.3c0.2,0,0.7,0,2.4,0h3c1.8,0,2.3,0,2.4,0
		c0.2,0,0.3,0,0.3,0.3V6c0,0.2,0,0.3-0.3,0.3c-0.1,0-0.7,0-2.4,0h-0.6V6.2z M172.1,13.3v5.3h2.1v-5.3H172.1z M182,13.9
		c-0.1,2.3-0.3,4-0.8,5.3c-0.6,1.9-1.6,3.4-3.1,4.8c-0.2,0.3-0.4,0.4-0.5,0.4s-0.3-0.1-0.6-0.4c-0.5-0.5-1.1-0.8-1.6-1.1
		c1.6-1.1,2.7-2.5,3.3-4.2c0.5-1.3,0.7-2.8,0.8-4.9c-1.5,0-2.1,0-2.2,0c-0.2,0-0.3,0-0.3-0.3v-1.8c0-0.3,0-0.3,0.3-0.3
		c0.1,0,0.7,0,2.3,0V5.8c-1.2,0-1.7,0-1.8,0c-0.2,0-0.2,0-0.2-0.2V3.8c0-0.2,0-0.3,0.2-0.3c0.1,0,0.9,0,3,0h5.3c2.2,0,2.9,0,3,0
		c0.2,0,0.3,0,0.3,0.3v1.8c0,0.2,0,0.2-0.3,0.2c-0.1,0-0.6,0-2,0v5.8c1.8,0,2.5,0,2.6,0c0.2,0,0.3,0,0.3,0.3v1.8
		c0,0.2,0,0.3-0.3,0.3c-0.1,0-0.8,0-2.6,0v6.9c0,2.4,0,3.1,0,3.3c0,0.2,0,0.3-0.3,0.3h-2c-0.2,0-0.2,0-0.2-0.3c0-0.2,0-0.9,0-3.3V14
		H182V13.9z M184.8,11.6V5.8h-2.7v5.8H184.8z"/>
	<path class="st1" d="M202.4,16.7c-0.8,3.7-3.2,5.9-7.9,7.5c-0.3,0.1-0.4,0.1-0.5,0.1c-0.2,0-0.3-0.2-0.5-0.6
		c-0.3-0.6-0.7-1-1.2-1.4c4.5-1.2,6.8-2.7,7.6-5.6h-2.6c-2.2,0-2.9,0.1-3.2,0.1s-0.3,0-0.3-0.3v-1.8c0-0.2,0-0.2,0.3-0.2
		c0.2,0,1,0.1,3.2,0h3c0-0.3,0-0.6,0-0.9c0-0.6,0-1.3-0.1-2c1,0,1.8,0.1,2.5,0.2c0.3,0,0.5,0.1,0.5,0.3c0,0.1,0,0.3-0.2,0.5
		c-0.1,0.2-0.2,0.5-0.2,1.2v0.7h1.8c2.5,0,3.4-0.1,3.5-0.1c0.2,0,0.3,0,0.3,0.3c0,0.7-0.1,1.5-0.1,2.4l-0.1,3.5c0,0.5,0,0.8,0.2,0.9
		s0.6,0.3,1.5,0.3s1.3-0.1,1.5-0.5s0.3-1.4,0.3-2.4c0.5,0.3,1.1,0.5,1.8,0.6c0.6,0.2,0.6,0.2,0.5,0.9c-0.2,1.8-0.5,2.6-1,3
		c-0.6,0.5-1.3,0.7-3.3,0.7s-3-0.2-3.4-0.6s-0.7-0.9-0.7-2.1l0.2-4.8L202.4,16.7z M205.8,9.8c0,0.4,0,0.6,0.2,0.7
		c0.2,0.1,0.7,0.1,1.4,0.1s1.1-0.1,1.4-0.3c0.2-0.3,0.3-0.9,0.4-1.8c0.4,0.2,0.9,0.4,1.5,0.5V6.9h-15.6v2.7c0,0.2,0,0.3-0.3,0.3h-2
		c-0.2,0-0.3,0-0.3-0.3c0-0.2,0-0.5,0-2.5V6.3c0-0.8,0-1.2,0-1.3c0-0.2,0-0.3,0.3-0.3c0.1,0,0.9,0,3.1,0h5.4V4.1c0-0.5,0-1-0.2-1.5
		c0.8,0,1.8,0.1,2.6,0.1c0.3,0,0.4,0.1,0.4,0.2c0,0.2-0.1,0.3-0.2,0.5c0.1,0.2,0.1,0.4,0.1,0.7v0.6h5.8c2.2,0,3,0,3.1,0
		c0.2,0,0.3,0,0.3,0.3c0,0.1,0,0.5,0,1.1v1c0,2,0,2.4,0,2.5c0,0.2,0,0.3-0.3,0.3h-1.5c-0.1,1.2-0.4,1.9-1,2.2
		c-0.7,0.4-1.7,0.6-3.2,0.6c-1.7,0-2.6-0.1-3.1-0.4c-0.5-0.3-0.6-0.8-0.6-1.7V9.3c0-1,0-1.4-0.1-2c0.8,0,1.6,0.1,2.4,0.2
		c0.2,0,0.4,0.1,0.4,0.2c0,0.2,0,0.3-0.2,0.5s-0.1,0.5-0.1,1.3L205.8,9.8L205.8,9.8z M201.3,8c0.3,0.1,0.4,0.3,0.4,0.4
		c0,0.2-0.1,0.3-0.3,0.4c-0.1,0.1-0.4,0.5-0.7,0.9c-1.1,1.7-2.8,2.9-5,3.6c-0.3,0.1-0.4,0.1-0.6,0.1c-0.2,0-0.3-0.2-0.5-0.6
		c-0.3-0.5-0.7-1-1.1-1.3c2.4-0.7,4.1-1.4,5.1-3c0.3-0.5,0.6-1,0.7-1.5C200.1,7.4,200.7,7.7,201.3,8z"/>
	<path class="st1" d="M220,15.7c-0.2,3.2-0.7,5.6-1.8,7.9c-0.2,0.3-0.3,0.5-0.4,0.5c-0.1,0-0.3-0.1-0.5-0.4c-0.5-0.6-1.1-1-1.6-1.3
		c1.7-2.5,2-5.8,2-10.2c0-2.6,0-3.9,0-4c0-0.2,0-0.3,0.3-0.3c0.2,0,0.7,0,2.4,0h3c1.7,0,2.3,0,2.4,0c0.2,0,0.3,0,0.3,0.3
		c0,0.1,0,0.8,0,2.2v3.7c0,1.5,0,2,0,2.2c0,0.3,0,0.3-0.3,0.3H224c-0.2,0-0.3,0-0.3-0.3v-0.6C223.7,15.7,220,15.7,220,15.7z
		 M223.6,3.7c2,0,2.6,0,2.8,0s0.3,0,0.3,0.3v1.8c0,0.3,0,0.3-0.3,0.3c-0.1,0-0.8,0-2.8,0h-4c-2,0-2.6,0-2.8,0s-0.3,0-0.3-0.3V3.9
		c0-0.2,0-0.3,0.3-0.3c0.1,0,0.8,0,2.8,0L223.6,3.7L223.6,3.7z M220.1,10.2v3.4h3.5v-3.4C223.6,10.2,220.1,10.2,220.1,10.2z
		 M230.1,12.4c0,2.7-0.3,4.6-0.8,6.4c-0.6,1.9-1.6,3.5-3,4.9c-0.2,0.3-0.4,0.4-0.5,0.4s-0.2-0.1-0.5-0.4c-0.4-0.5-1-1-1.5-1.3
		c1.5-1.3,2.6-2.9,3.2-4.8c0.4-1.4,0.7-2.9,0.7-6.2v-3c0-1.4,0-2.6-0.2-3.9c0.8,0.1,1.6,0.3,2.3,0.6c1.5-0.3,3.3-1,4.7-1.7
		c0.6-0.3,0.9-0.5,1.3-0.8c0.6,0.5,1.1,1.1,1.6,1.7c0.1,0.2,0.2,0.3,0.2,0.5c0,0.1-0.2,0.2-0.4,0.3c-0.3,0-0.5,0.1-0.9,0.3
		c-2,0.8-4.1,1.5-6.1,2v3h4.4c2.4,0,3.1,0,3.3,0s0.3,0,0.3,0.3v1.8c0,0.2,0,0.3-0.3,0.3c-0.1,0-0.8,0-2.6,0v8.7c0,1.9,0,2.9,0,3
		c0,0.2,0,0.2-0.2,0.2h-2c-0.2,0-0.2,0-0.2-0.2s0-1.1,0-3v-8.7h-2.8V12.4z"/>
</g>
<g class="st0">
	<path class="st2" d="M11.4,7.7h2.7l-0.5,2.2h-2.7l-0.8,3.8H13L12.4,16H9.7l-1.1,5.2H7.4L8.5,16H4.8l-1.1,5.2H2.4L3.6,16H0.8
		l0.5-2.2H4L4.8,10H1.9l0.5-2.2h2.8l1.1-5.2h1.2l-1,5.1h3.7l1.1-5.2h1.2L11.4,7.7z M6,9.9l-0.8,3.8h3.7l0.8-3.8H6z"/>
</g>
<g class="st0">
	<path class="st2" d="M29.1,5.2v2.4h0.3c2,0,2.6,0,2.8,0s0.3,0,0.3,0.3c2.1-0.9,3.1-2.2,3.3-4.6c-1.8,0-2.5,0-2.6,0
		c-0.2,0-0.3,0-0.3-0.3V1.3c0-0.2,0-0.3,0.3-0.3C33.3,1,34,1,36,1h4c2,0,2.7,0,2.8,0c0.3,0,0.3,0,0.3,0.3c0,0.5-0.1,0.9-0.1,1.3
		c0,2.7-0.2,4.4-0.6,5.2c-0.3,0.6-0.8,1-1.5,1.2c-0.5,0.1-1.2,0.1-2,0.1s-0.8,0-0.9-0.8c-0.1-0.5-0.3-1.2-0.5-1.6
		c0.7,0.1,1.3,0.2,1.8,0.2s0.8-0.1,1-0.5c0.2-0.6,0.4-1.9,0.4-3.5h-2.6c-0.2,3-1.2,4.8-3.7,6.3c-0.3,0.1-0.4,0.2-0.6,0.2
		c-0.2,0-0.3-0.1-0.5-0.5c-0.3-0.4-0.6-0.7-0.9-1v1.4c0,0.2,0,0.3-0.3,0.3c-0.1,0-0.8,0-2.8,0h-0.2v2.5h1c1.1,0,1.5,0,1.6,0
		c0.2,0,0.3,0,0.3,0.3v1.8c0,0.2,0,0.2-0.3,0.2c-0.1,0-0.6,0-1.6,0h-1V18c1.4,0.6,3.2,0.9,6,0.9c3.1,0,5.9-0.2,9.1-0.6
		c-0.3,0.6-0.5,1.2-0.7,1.9C43.4,21,43.4,21,42.6,21c-2.4,0.2-4.8,0.3-7.4,0.3c-3.4,0-5.4-0.4-7.2-1.4c-1.3-0.7-2.4-1.6-3.1-2.8
		c-0.3,1.3-0.7,2.7-1.2,3.9c-0.1,0.3-0.2,0.5-0.4,0.5c-0.1,0-0.2-0.1-0.5-0.3c-0.4-0.5-0.9-1-1.4-1.2c1.2-2.2,1.8-4.9,1.8-7.8
		c0-0.4,0-0.9,0-1.4c0.7,0.1,1.5,0.2,2,0.4c0.3,0.1,0.4,0.1,0.4,0.3c0,0.1,0,0.2-0.1,0.3s-0.1,0.6-0.2,1c0,0.6,0,1.2-0.1,1.8
		c0.4,0.8,0.9,1.4,1.6,2V9.8H25c-2,0-2.6,0-2.8,0c-0.2,0-0.2,0-0.2-0.3V7.8c0-0.3,0-0.3,0.2-0.3s0.8,0,2.8,0h1.5V5.2h-0.9
		c-1.8,0-2.5,0-2.6,0c-0.2,0-0.3,0-0.3-0.3V3.2c0-0.3,0-0.3,0.3-0.3c0.1,0,0.8,0,2.6,0h0.9V2.8c0-1.3,0-2-0.2-2.9
		c0.9,0,1.6,0.1,2.4,0.2c0.2,0,0.4,0.1,0.4,0.2s0,0.2-0.1,0.4s-0.1,0.7-0.1,2V3h0.2c1.8,0,2.4,0,2.6,0C32,3,32,3,32,3.3V5
		c0,0.2,0,0.3-0.3,0.3c-0.1,0-0.7,0-2.6,0h0V5.2z M39.6,10.2c1.8,0,2.5,0,2.6,0c0.2,0,0.3,0,0.3,0.3c0,0.1,0,0.7,0,2.1v2.9
		c0,1.3,0,1.9,0,2.1s0,0.3-0.3,0.3c-0.2,0-0.8,0-2.6,0h-3.4c-1.9,0-2.5,0-2.6,0c-0.2,0-0.3,0-0.3-0.3c0-0.2,0-0.7,0-2.1v-2.9
		c0-1.3,0-1.9,0-2.1c0-0.2,0-0.3,0.3-0.3c0.1,0,0.7,0,2.6,0H39.6z M40.3,12.3h-4.7v3.3h4.7V12.3z"/>
	<path class="st2" d="M51.3,6c-1.6,0-2.9,0.1-4,0.1c-0.3,0-0.4-0.1-0.5-0.5c-0.1-0.5-0.2-1.7-0.2-2.4c1.1,0.1,2.4,0.2,4.6,0.2h8.6
		c0.7,0,1,0,1.3-0.2C61.3,3,61.4,3,61.5,3s0.3,0,0.5,0.1c0.6,0.4,1.3,1,1.8,1.6C63.9,4.8,64,5,64,5.1c0,0.2-0.1,0.4-0.3,0.6
		s-0.3,0.5-0.6,0.9c-1.2,2.8-2.6,5.5-4.7,7.8c-2.1,2.4-4.4,4.3-6.8,5.7c-0.2,0.1-0.4,0.2-0.6,0.2c-0.2,0-0.4-0.1-0.6-0.3
		c-0.6-0.5-1.3-1-2.2-1.3c3.5-1.8,5.6-3.4,7.8-6c1.8-2,3-4.1,4-6.7H51.3z"/>
	<path class="st2" d="M71.5,9c-1.4,0-2.2,0.1-3.2,0.1c-0.2,0-0.5-0.1-0.5-0.3c-0.1-0.5-0.2-1.4-0.3-2.2c1.4,0.1,2.2,0.1,3.9,0.1h8
		c0.7,0,1,0,1.3-0.2c0.1-0.1,0.2-0.1,0.3-0.1c0.1,0,0.2,0.1,0.4,0.2c0.5,0.4,0.9,0.9,1.4,1.6c0.1,0.1,0.1,0.3,0.1,0.4
		c0,0.1-0.1,0.3-0.2,0.3c-0.3,0.2-0.5,0.3-0.6,0.5c-1,1.4-2.2,2.9-3.1,3.7c-0.1,0.1-0.3,0.2-0.4,0.2c-0.2,0-0.4-0.1-0.5-0.2
		c-0.5-0.4-0.9-0.6-1.6-0.8c1.2-1.1,2.2-2.1,2.9-3.2h-7.9V9z M75.6,10.4c0.3,0.1,0.4,0.2,0.4,0.4c0,0.1,0,0.2-0.1,0.3
		c-0.1,0.2-0.2,0.6-0.2,0.9c0,3.6-1.4,6.7-4.5,8.7C71,20.9,70.8,21,70.7,21c-0.1,0-0.3-0.1-0.5-0.2c-0.5-0.4-1.2-0.8-1.9-1
		c3.3-1.8,4.9-4.1,4.9-7.8c0-0.8,0-1.1-0.2-2C74.1,10.2,75,10.3,75.6,10.4z"/>
	<path class="st2" d="M87.9,7.7c0.3-0.1,0.4-0.1,0.6,0.2c0.8,1.1,1.6,2.3,2.1,3.6c0,0.2,0.1,0.3,0.1,0.4c0,0.1-0.1,0.2-0.3,0.3
		c-0.6,0.3-1,0.5-1.5,0.7c-0.3,0.1-0.5,0-0.6-0.3C87.7,11.2,87,9.9,86,8.7C86.8,8.2,87.4,7.9,87.9,7.7z M101,8
		c0.2,0.1,0.3,0.3,0.3,0.4c0,0.1-0.1,0.3-0.3,0.4c-0.4,0.3-0.5,0.8-0.7,1.2c-1,2.4-2.3,4.6-3.6,6.4c-1.6,2-2.9,3.3-4.9,4.6
		c-0.2,0.1-0.4,0.3-0.6,0.3c-0.1,0-0.3,0-0.4-0.2c-0.6-0.5-1.2-0.7-2-1c2.9-1.9,4.3-3.1,5.8-5c1.2-1.6,2.5-3.9,3.2-5.8
		c0.3-0.9,0.5-1.4,0.6-2.5C99.4,7.1,100.4,7.6,101,8z M92.7,6.5c0.3-0.1,0.4-0.1,0.6,0.2c0.6,0.8,1.5,2.4,1.8,3.5
		c0.1,0.4,0.1,0.5-0.2,0.6c-0.5,0.3-1,0.5-1.7,0.7c-0.3,0.1-0.4,0-0.5-0.4c-0.6-1.4-1.1-2.6-2-3.8C91.7,7,92.3,6.7,92.7,6.5z"/>
	<path class="st2" d="M106.5,7.5c0.1-0.2,0.2-0.3,0.5-0.2c1.8,0.6,3.2,1.4,4.6,2.4c0.2,0.1,0.3,0.2,0.3,0.4c0,0.1,0,0.2-0.1,0.3
		c-0.3,0.6-0.7,1.3-1.1,1.8c-0.1,0.1-0.2,0.2-0.3,0.2s-0.2,0-0.3-0.1c-1.5-1.1-3.1-1.9-4.8-2.6C105.8,8.5,106.2,7.8,106.5,7.5z
		 M110.4,16.4c2.3-1.2,4.2-2.3,6.6-4.2c1.9-1.5,4.5-3.8,6.9-6.7c0.1,1.1,0.3,1.7,0.7,2.7c0.1,0.2,0.1,0.3,0.1,0.5s-0.1,0.4-0.3,0.6
		c-2.2,2.4-3.7,3.7-6.1,5.5c-2.1,1.6-4.3,3-7.2,4.5c-0.6,0.3-1.2,0.6-1.4,0.8c-0.1,0.1-0.3,0.2-0.4,0.2c-0.2,0-0.3-0.1-0.5-0.3
		c-0.5-0.5-1.2-1.4-1.8-2.4C108.1,17.4,109,17.1,110.4,16.4z M109.4,1.9c0.2-0.3,0.3-0.3,0.6-0.2c1.5,0.6,3.2,1.5,4.5,2.7
		c0.1,0.1,0.2,0.2,0.2,0.3c0,0.1,0,0.2-0.1,0.3c-0.3,0.6-0.8,1.4-1.2,1.8C113.3,7,113.2,7,113.1,7s-0.2-0.1-0.4-0.2
		c-1.2-1-3.1-2.3-4.7-3C108.5,3.2,109,2.6,109.4,1.9z"/>
	<path class="st2" d="M138.1,10h-5.5c-1.1,0-2.3,0.1-3.4,0.1c-0.2,0-0.3-0.2-0.4-0.6c0-0.6-0.1-1.1-0.1-2c1.4,0.1,2.1,0.1,3.8,0.1
		h4.2c1.2,0,2.5,0,3.6,0c0.3,0,0.4,0.1,0.4,0.4c0,1.1,0,2.1,0,3.1v5.5c0,1.1,0,2.2,0.1,3.4c0,0.4-0.1,0.4-0.5,0.5
		c-0.4,0-1.2,0-1.6,0c-0.4,0-0.4-0.1-0.4-0.4v-0.7h-5.7c-1.1,0-2.2,0-3.3,0.1c-0.2,0-0.3-0.1-0.3-0.5c-0.1-0.5-0.1-1.2-0.1-2
		c1.3,0.1,2.5,0.1,3.9,0.1h5.6v-2.7H133c-1.1,0-2.3,0-3.3,0.1c-0.3,0-0.4-0.1-0.4-0.5c-0.1-0.5-0.1-1.1-0.1-1.9
		c1.3,0.1,2.2,0.1,3.7,0.1h5.1V10H138.1z"/>
	<path class="st2" d="M147.2,3.1c0.1-0.1,0.2-0.2,0.3-0.2s0.2,0,0.3,0.1c1.2,0.6,3.2,2.1,4.6,3.4c0.1,0.1,0.2,0.2,0.2,0.3
		c0,0.1,0,0.2-0.1,0.3c-0.4,0.5-1.2,1.4-1.5,1.8c-0.1,0.1-0.2,0.2-0.3,0.2s-0.2-0.1-0.3-0.2C149,7.4,147.3,6,145.5,5
		C146.1,4.3,146.8,3.6,147.2,3.1z M149.3,15.8c2.9-1.5,4.5-2.5,6.9-4.5c2.9-2.4,4.5-3.9,6.6-6.5c0.1,1.2,0.4,2,0.7,2.8
		c0.1,0.2,0.1,0.3,0.1,0.5s-0.1,0.4-0.4,0.7c-1.3,1.5-3.3,3.4-5.5,5.1c-2,1.6-4,2.9-7.2,4.7c-1.1,0.6-1.4,0.9-1.6,1.1
		c-0.1,0.1-0.3,0.2-0.4,0.2c-0.1,0-0.3-0.1-0.4-0.3c-0.6-0.7-1.3-1.7-1.9-2.7C147.3,16.6,148,16.4,149.3,15.8z"/>
	<path class="st2" d="M171.5,3.6c-0.3,1.8-0.8,3.4-1.4,5h2.3c1.1,0,1.6,0,1.7,0c0.2,0,0.3,0,0.3,0.3c0,0.2,0,0.9,0,3.2v2.4
		c0,3.4,0,4.1,0,4.2c0,0.3,0,0.3-0.3,0.3h-1.6c-0.2,0-0.3,0-0.3-0.3v-0.6h-2.1v2c0,0.2,0,0.3-0.3,0.3h-1.6c-0.3,0-0.3,0-0.3-0.3
		c0-0.1,0-0.9,0-4.3v-3.3c-0.3,0.5-0.7,1-1.1,1.4c-0.2,0.2-0.3,0.3-0.4,0.3c-0.1,0-0.2-0.1-0.3-0.5c-0.1-0.8-0.3-1.5-0.6-2.1
		c1.8-2,3-4.7,3.5-8.1h-0.1c-1.7,0-2.3,0-2.4,0c-0.2,0-0.3,0-0.3-0.3V1.6c0-0.2,0-0.3,0.3-0.3c0.2,0,0.7,0,2.4,0h3
		c1.8,0,2.3,0,2.4,0c0.2,0,0.3,0,0.3,0.3v1.8c0,0.2,0,0.3-0.3,0.3c-0.1,0-0.7,0-2.4,0L171.5,3.6L171.5,3.6z M170.2,10.7V16h2.1v-5.3
		H170.2z M180.1,11.3c-0.1,2.3-0.3,4-0.8,5.3c-0.6,1.9-1.6,3.4-3.1,4.8c-0.2,0.3-0.4,0.4-0.5,0.4s-0.3-0.1-0.6-0.4
		c-0.5-0.5-1.1-0.8-1.6-1.1c1.6-1.1,2.7-2.5,3.3-4.2c0.5-1.3,0.7-2.8,0.8-4.9c-1.5,0-2.1,0-2.2,0c-0.2,0-0.3,0-0.3-0.3V9.3
		c0-0.3,0-0.3,0.3-0.3c0.1,0,0.7,0,2.3,0V3.2c-1.2,0-1.7,0-1.8,0c-0.2,0-0.2,0-0.2-0.2V1.2c0-0.2,0-0.3,0.2-0.3c0.1,0,0.9,0,3,0h5.3
		c2.2,0,2.9,0,3,0c0.2,0,0.3,0,0.3,0.3V3c0,0.2,0,0.2-0.3,0.2c-0.1,0-0.6,0-2,0V9c1.8,0,2.5,0,2.6,0c0.2,0,0.3,0,0.3,0.3v1.8
		c0,0.2,0,0.3-0.3,0.3c-0.1,0-0.8,0-2.6,0v6.9c0,2.4,0,3.1,0,3.3c0,0.2,0,0.3-0.3,0.3h-2c-0.2,0-0.2,0-0.2-0.3c0-0.2,0-0.9,0-3.3
		v-6.9h-2.6V11.3z M182.9,9V3.2h-2.7V9H182.9z"/>
	<path class="st2" d="M200.5,14.1c-0.8,3.7-3.2,5.9-7.9,7.5c-0.3,0.1-0.4,0.1-0.5,0.1c-0.2,0-0.3-0.2-0.5-0.6
		c-0.3-0.6-0.7-1-1.2-1.4c4.5-1.2,6.8-2.7,7.6-5.6h-2.6c-2.2,0-2.9,0.1-3.2,0.1s-0.3,0-0.3-0.3v-1.8c0-0.2,0-0.2,0.3-0.2
		c0.2,0,1,0.1,3.2,0h3c0-0.3,0-0.6,0-0.9c0-0.6,0-1.3-0.1-2c1,0,1.8,0.1,2.5,0.2c0.3,0,0.5,0.1,0.5,0.3c0,0.1,0,0.3-0.2,0.5
		c-0.1,0.2-0.2,0.5-0.2,1.2v0.7h1.8c2.5,0,3.4-0.1,3.5-0.1c0.2,0,0.3,0,0.3,0.3c0,0.7-0.1,1.5-0.1,2.4l-0.1,3.5c0,0.5,0,0.8,0.2,0.9
		s0.6,0.3,1.5,0.3s1.3-0.1,1.5-0.5s0.3-1.4,0.3-2.4c0.5,0.3,1.1,0.5,1.8,0.6c0.6,0.2,0.6,0.2,0.5,0.9c-0.2,1.8-0.5,2.6-1,3
		c-0.6,0.5-1.3,0.7-3.3,0.7s-3-0.2-3.4-0.6s-0.7-0.9-0.7-2.1l0.2-4.8L200.5,14.1z M203.9,7.2c0,0.4,0,0.6,0.2,0.7s0.7,0.1,1.4,0.1
		s1.1-0.1,1.4-0.3c0.2-0.3,0.3-0.9,0.4-1.8c0.4,0.2,0.9,0.4,1.5,0.5V4.3h-15.6V7c0,0.2,0,0.3-0.3,0.3h-2c-0.2,0-0.3,0-0.3-0.3
		c0-0.2,0-0.5,0-2.5V3.7c0-0.8,0-1.2,0-1.3c0-0.2,0-0.3,0.3-0.3c0.1,0,0.9,0,3.1,0h5.4V1.5c0-0.5,0-1-0.2-1.5c0.8,0,1.8,0.1,2.6,0.1
		c0.3,0,0.4,0.1,0.4,0.2c0,0.2-0.1,0.3-0.2,0.5c-0.1,0.2-0.1,0.4-0.1,0.8v0.6h5.8c2.2,0,3,0,3.1,0c0.2,0,0.3,0,0.3,0.3
		c0,0.1,0,0.5,0,1.1v1c0,2,0,2.4,0,2.5c0,0.2,0,0.3-0.3,0.3h-1.5c-0.1,1.2-0.4,1.9-1,2.2c-0.7,0.4-1.7,0.6-3.2,0.6
		c-1.7,0-2.6-0.1-3.1-0.4c-0.5-0.3-0.6-0.8-0.6-1.7V6.7c0-1,0-1.4-0.1-2c0.8,0,1.6,0.1,2.4,0.2c0.2,0,0.4,0.1,0.4,0.2
		c0,0.2,0,0.3-0.2,0.5s-0.1,0.5-0.1,1.3v0.3H203.9z M199.4,5.4c0.3,0.1,0.4,0.3,0.4,0.4c0,0.2-0.1,0.3-0.3,0.4
		c-0.1,0.1-0.4,0.5-0.7,0.9c-1.1,1.7-2.8,2.9-5,3.6c-0.3,0.1-0.4,0.1-0.6,0.1c-0.2,0-0.3-0.2-0.5-0.6c-0.3-0.5-0.7-1-1.1-1.3
		c2.4-0.7,4.1-1.4,5.1-3c0.3-0.5,0.6-1,0.7-1.5C198.2,4.8,198.8,5.1,199.4,5.4z"/>
	<path class="st2" d="M218.1,13.1c-0.2,3.2-0.7,5.6-1.8,7.9c-0.2,0.3-0.3,0.5-0.4,0.5c-0.1,0-0.3-0.1-0.5-0.4
		c-0.5-0.6-1.1-1-1.6-1.3c1.7-2.5,2-5.8,2-10.2c0-2.6,0-3.9,0-4c0-0.2,0-0.3,0.3-0.3c0.2,0,0.7,0,2.4,0h3c1.7,0,2.3,0,2.4,0
		c0.2,0,0.3,0,0.3,0.3c0,0.1,0,0.8,0,2.2v3.7c0,1.5,0,2,0,2.2c0,0.3,0,0.3-0.3,0.3h-1.8c-0.2,0-0.3,0-0.3-0.3v-0.6H218.1z
		 M221.7,1.1c2,0,2.6,0,2.8,0s0.3,0,0.3,0.3v1.8c0,0.3,0,0.3-0.3,0.3c-0.1,0-0.8,0-2.8,0h-4c-2,0-2.6,0-2.8,0s-0.3,0-0.3-0.3V1.3
		c0-0.2,0-0.3,0.3-0.3c0.1,0,0.8,0,2.8,0h4V1.1z M218.2,7.6V11h3.5V7.6H218.2z M228.2,9.9c0,2.7-0.3,4.6-0.8,6.4
		c-0.6,1.9-1.6,3.5-3,4.9c-0.2,0.3-0.4,0.4-0.5,0.4s-0.2-0.1-0.5-0.4c-0.4-0.5-1-1-1.5-1.3c1.5-1.3,2.6-2.9,3.2-4.8
		c0.4-1.4,0.7-2.9,0.7-6.2v-3c0-1.4,0-2.6-0.2-3.9c0.8,0.1,1.6,0.3,2.3,0.6c1.5-0.3,3.3-1,4.7-1.7c0.6-0.3,0.9-0.5,1.3-0.8
		c0.6,0.5,1.1,1.1,1.6,1.7c0.1,0.2,0.2,0.3,0.2,0.5c0,0.1-0.2,0.2-0.4,0.3c-0.3,0-0.5,0.1-0.9,0.3c-2,0.8-4.1,1.5-6.1,2v3h4.4
		c2.4,0,3.1,0,3.3,0s0.3,0,0.3,0.3V10c0,0.2,0,0.3-0.3,0.3c-0.1,0-0.8,0-2.6,0V19c0,1.9,0,2.9,0,3c0,0.2,0,0.2-0.2,0.2h-2
		c-0.2,0-0.2,0-0.2-0.2s0-1.1,0-3V9.9H228.2z"/>
</g>
<g class="st0">
	<path class="st3" d="M12.5,8.5h2.7l-0.5,2.2H12l-0.8,3.8H14l-0.5,2.2h-2.7l-1.1,5.2H8.6l1.1-5.2H6l-1.1,5.2H3.6l1.1-5.2H2l0.5-2.2
		h2.6l0.8-3.8H3.1l0.5-2.2h2.8l1.1-5.2h1.2L7.6,8.5h3.7l1.1-5.2h1.2L12.5,8.5z M7.1,10.7l-0.8,3.8H10l0.8-3.8H7.1z"/>
</g>
<g class="st0">
	<path class="st3" d="M30.2,5.9v2.4h0.3c2,0,2.6,0,2.8,0s0.3,0,0.3,0.3c2.1-0.9,3.1-2.2,3.3-4.6c-1.8,0-2.5,0-2.6,0
		C34,4,34,4,34,3.8V2.1c0-0.2,0-0.3,0.3-0.3c0.1,0,0.8,0,2.8,0h4.1c2,0,2.7,0,2.8,0c0.3,0,0.3,0,0.3,0.3c0,0.5-0.1,0.9-0.1,1.3
		c0,2.7-0.2,4.4-0.6,5.2c-0.3,0.6-0.8,1-1.5,1.2c-0.5,0.1-1.2,0.1-2,0.1s-0.8,0-0.9-0.8C39,8.8,38.9,8,38.7,7.7
		c0.7,0.1,1.3,0.2,1.8,0.2s0.8-0.1,1-0.5c0.2-0.6,0.4-1.9,0.4-3.5h-2.6c-0.2,3-1.2,4.8-3.7,6.3c-0.3,0.1-0.4,0.2-0.6,0.2
		c-0.2,0-0.3-0.1-0.5-0.5c-0.3-0.4-0.6-0.7-0.9-1v1.4c0,0.2,0,0.3-0.3,0.3c-0.1,0-0.8,0-2.8,0h-0.2v2.5h1c1.1,0,1.5,0,1.6,0
		c0.2,0,0.3,0,0.3,0.3v1.8c0,0.2,0,0.2-0.3,0.2c-0.1,0-0.6,0-1.6,0h-1V19c1.4,0.6,3.2,0.9,6,0.9c3.1,0,5.9-0.2,9.1-0.6
		c-0.3,0.6-0.5,1.2-0.7,1.9C44.6,22,44.6,22,43.8,22c-2.4,0.2-4.8,0.3-7.4,0.3c-3.4,0-5.4-0.4-7.2-1.4c-1.2-0.9-2.2-1.8-3-3
		c-0.3,1.3-0.7,2.7-1.2,3.9c-0.1,0.3-0.2,0.5-0.4,0.5c-0.1,0-0.2-0.1-0.5-0.3c-0.4-0.5-0.9-1-1.4-1.2c1.2-2.2,1.8-4.9,1.8-7.8
		c0-0.4,0-0.9,0-1.4c0.7,0.1,1.5,0.2,2,0.4c0.3,0.1,0.4,0.1,0.4,0.3c0,0.1,0,0.2-0.1,0.3s-0.1,0.6-0.2,1c0,0.6,0,1.2-0.1,1.8
		c0.4,0.8,0.9,1.4,1.6,2v-6.8h-1.8c-2,0-2.6,0-2.8,0c-0.2,0-0.2,0-0.2-0.3V8.6c0-0.3,0-0.3,0.2-0.3s0.8,0,2.8,0h1.5V5.9H27
		c-1.8,0-2.5,0-2.6,0c-0.2,0-0.3,0-0.3-0.3V4c0-0.3,0-0.3,0.3-0.3c0.1,0,0.8,0,2.6,0h0.9V3.6c0-1.3,0-2-0.2-2.9
		c0.9,0,1.6,0.1,2.4,0.2c0.2,0,0.4,0.1,0.4,0.2s0,0.2-0.1,0.4s-0.1,0.7-0.1,2v0.2h0.2c1.8,0,2.4,0,2.6,0c0.3,0,0.3,0,0.3,0.3v1.7
		C33.3,6,33.3,6,33,6c-0.1,0-0.7,0-2.6,0L30.2,5.9L30.2,5.9z M40.8,11c1.8,0,2.5,0,2.6,0c0.2,0,0.3,0,0.3,0.3c0,0.1,0,0.7,0,2.1v2.9
		c0,1.3,0,1.9,0,2.1s0,0.3-0.3,0.3c-0.2,0-0.8,0-2.6,0h-3.4c-1.9,0-2.5,0-2.6,0c-0.2,0-0.3,0-0.3-0.3c0-0.2,0-0.7,0-2.1v-2.9
		c0-1.3,0-1.9,0-2.1c0-0.2,0-0.3,0.3-0.3c0.1,0,0.7,0,2.6,0C37.4,11,40.8,11,40.8,11z M41.4,13.1h-4.7v3.3h4.7V13.1z"/>
	<path class="st3" d="M52.5,6.8c-1.6,0-2.9,0.1-4,0.1c-0.3,0-0.4-0.1-0.5-0.5c0-0.5-0.1-1.7-0.2-2.4c1.1,0.1,2.4,0.2,4.6,0.2H61
		c0.7,0,1,0,1.3-0.2c0.1-0.1,0.2-0.1,0.4-0.1c0.1,0,0.3,0,0.5,0.1c0.6,0.4,1.3,1,1.8,1.6c0.1,0.1,0.2,0.3,0.2,0.4
		c0,0.2-0.1,0.4-0.3,0.6c-0.2,0.2-0.3,0.5-0.6,0.9c-1.2,2.8-2.6,5.5-4.7,7.8c-2.1,2.4-4.4,4.3-6.8,5.7c-0.2,0.1-0.4,0.2-0.6,0.2
		c-0.2,0-0.4-0.1-0.6-0.3c-0.6-0.5-1.3-1-2.2-1.3c3.5-1.8,5.6-3.4,7.8-6c1.9-2.1,3.1-4.2,4.1-6.8C61.3,6.8,52.5,6.8,52.5,6.8z"/>
	<path class="st3" d="M72.7,9.8c-1.4,0-2.2,0.1-3.2,0.1c-0.2,0-0.5-0.1-0.5-0.3c-0.1-0.5-0.2-1.4-0.3-2.2c1.4,0.1,2.2,0.1,3.9,0.1h8
		c0.7,0,1,0,1.3-0.2c0.1-0.1,0.2-0.1,0.3-0.1c0.1,0,0.2,0.1,0.4,0.2C83,7.8,83.5,8.3,83.9,9C84,9.1,84,9.2,84,9.3s-0.1,0.3-0.2,0.3
		c-0.3,0.2-0.5,0.3-0.6,0.5c-1,1.4-2.2,2.9-3.1,3.7C80,13.9,79.8,14,79.7,14c-0.2,0-0.4-0.1-0.5-0.2c-0.5-0.4-0.9-0.6-1.6-0.8
		c1.2-1.1,2.2-2.1,2.9-3.2H72.7z M76.8,11.2c0.3,0.1,0.4,0.2,0.4,0.4c0,0.1,0,0.2-0.1,0.3C77,12.2,77,12.5,77,12.8
		c0,3.6-1.4,6.7-4.5,8.7c-0.2,0.1-0.4,0.2-0.6,0.2c-0.1,0-0.3-0.1-0.5-0.2c-0.5-0.4-1.2-0.8-1.9-1c3.3-1.8,4.9-4.1,4.9-7.8
		c0-0.8,0-1.1-0.2-2C75.2,11,76.2,11,76.8,11.2z"/>
	<path class="st3" d="M89,8.5c0.3-0.1,0.4-0.1,0.6,0.2c0.8,1.1,1.6,2.3,2.1,3.6c0,0.2,0.1,0.3,0.1,0.4c0,0.1-0.1,0.2-0.3,0.3
		c-0.6,0.3-1,0.5-1.5,0.7c-0.3,0.1-0.5,0-0.6-0.3c-0.6-1.4-1.3-2.7-2.3-3.9C87.9,9,88.5,8.7,89,8.5z M102.2,8.8
		c0.2,0.1,0.3,0.3,0.3,0.4c0,0.1-0.1,0.3-0.3,0.4c-0.4,0.3-0.5,0.8-0.7,1.2c-1,2.4-2.3,4.6-3.6,6.4c-1.6,2-2.9,3.3-4.9,4.6
		c-0.2,0.1-0.4,0.3-0.6,0.3c-0.1,0-0.3,0-0.4-0.2c-0.6-0.5-1.2-0.7-2-1c2.9-1.9,4.3-3.1,5.8-5c1.2-1.6,2.5-3.9,3.2-5.8
		c0.3-0.9,0.5-1.4,0.6-2.5C100.5,7.9,101.6,8.4,102.2,8.8z M93.9,7.3c0.3-0.1,0.4-0.1,0.6,0.2c0.6,0.8,1.5,2.4,1.8,3.5
		c0.1,0.4,0.1,0.5-0.2,0.6c-0.5,0.3-1,0.5-1.7,0.7c-0.3,0.1-0.4,0-0.5-0.4c-0.6-1.4-1.1-2.6-2-3.8C92.9,7.7,93.5,7.5,93.9,7.3z"/>
	<path class="st3" d="M107.6,8.2c0.1-0.2,0.2-0.3,0.5-0.2c1.8,0.6,3.2,1.4,4.6,2.4c0.2,0.1,0.3,0.2,0.3,0.4c0,0.1,0,0.2-0.1,0.3
		c-0.3,0.6-0.7,1.3-1.1,1.8c-0.1,0.1-0.2,0.2-0.3,0.2s-0.2,0-0.3-0.1c-1.5-1.1-3.1-1.9-4.8-2.6C107,9.3,107.4,8.6,107.6,8.2z
		 M111.5,17.1c2.3-1.2,4.2-2.3,6.6-4.2c1.9-1.5,4.5-3.8,6.9-6.7c0.1,1.1,0.3,1.7,0.7,2.7c0.1,0.2,0.1,0.3,0.1,0.5s-0.1,0.4-0.3,0.6
		c-2.2,2.4-3.7,3.7-6.1,5.5c-2.1,1.6-4.3,3-7.2,4.5c-0.6,0.3-1.2,0.6-1.4,0.8c-0.1,0.1-0.3,0.2-0.4,0.2c-0.2,0-0.3-0.1-0.5-0.3
		c-0.5-0.5-1.2-1.4-1.8-2.4C109.3,18.1,110.1,17.9,111.5,17.1z M110.6,2.7c0.2-0.3,0.3-0.3,0.6-0.2c1.5,0.6,3.2,1.5,4.5,2.7
		c0.1,0.1,0.2,0.2,0.2,0.3c0,0.1,0,0.2-0.1,0.3c-0.3,0.6-0.8,1.4-1.2,1.8c-0.1,0.1-0.2,0.1-0.2,0.1c-0.1,0-0.2-0.1-0.4-0.2
		c-1.2-1-3.1-2.3-4.7-3C109.7,4,110.1,3.3,110.6,2.7z"/>
	<path class="st3" d="M139.3,10.7h-5.5c-1.1,0-2.3,0.1-3.4,0.1c-0.2,0-0.3-0.2-0.4-0.6c0-0.6-0.1-1.1-0.1-2c1.4,0.1,2.1,0.1,3.8,0.1
		h4.2c1.2,0,2.5,0,3.6,0c0.3,0,0.4,0.1,0.4,0.4c0,1.1,0,2.1,0,3.1v5.5c0,1.1,0,2.2,0.1,3.4c0,0.4-0.1,0.4-0.5,0.5
		c-0.4,0-1.2,0-1.6,0c-0.4,0-0.4-0.1-0.4-0.4v-0.7h-5.7c-1.1,0-2.2,0-3.3,0.1c-0.2,0-0.3-0.1-0.3-0.5c-0.1-0.5-0.1-1.2-0.1-2
		c1.3,0.1,2.5,0.1,3.9,0.1h5.6v-2.7h-5.1c-1.1,0-2.3,0-3.3,0.1c-0.3,0-0.4-0.1-0.4-0.5c-0.1-0.5-0.1-1.1-0.1-1.9
		c1.3,0.1,2.2,0.1,3.7,0.1h5.1v-2.2H139.3z"/>
	<path class="st3" d="M148.4,3.9c0.1-0.1,0.2-0.2,0.3-0.2s0.2,0,0.3,0.1c1.2,0.6,3.2,2.1,4.6,3.4c0.1,0.1,0.2,0.2,0.2,0.3
		c0,0.1,0,0.2-0.1,0.3c-0.4,0.5-1.2,1.4-1.5,1.8c-0.1,0.1-0.2,0.2-0.3,0.2s-0.2-0.1-0.3-0.2c-1.4-1.5-3.2-2.9-4.9-3.9
		C147.2,5.1,147.9,4.4,148.4,3.9z M150.5,16.5c2.9-1.5,4.5-2.5,6.9-4.5c2.9-2.4,4.5-3.9,6.6-6.5c0.1,1.2,0.4,2,0.7,2.8
		c0.1,0.2,0.1,0.3,0.1,0.5s-0.1,0.4-0.4,0.7c-1.3,1.5-3.3,3.4-5.5,5.1c-2,1.6-4,2.9-7.2,4.7c-1.1,0.6-1.4,0.9-1.6,1.1
		c-0.1,0.1-0.3,0.2-0.4,0.2c-0.1,0-0.3-0.1-0.4-0.3c-0.6-0.7-1.3-1.7-1.9-2.7C148.4,17.4,149.2,17.2,150.5,16.5z"/>
	<path class="st3" d="M172.7,4.4c-0.3,1.8-0.8,3.4-1.4,5h2.3c1.1,0,1.6,0,1.7,0c0.2,0,0.3,0,0.3,0.3c0,0.2,0,0.9,0,3.2v2.4
		c0,3.4,0,4.1,0,4.2c0,0.3,0,0.3-0.3,0.3h-1.6c-0.2,0-0.3,0-0.3-0.3v-0.6h-2.1v2c0,0.2,0,0.3-0.3,0.3h-1.6c-0.3,0-0.3,0-0.3-0.3
		c0-0.1,0-0.9,0-4.3v-3.3c-0.3,0.5-0.7,1-1.1,1.4c-0.2,0.2-0.3,0.3-0.4,0.3c-0.1,0-0.2-0.1-0.3-0.5c-0.1-0.8-0.3-1.5-0.6-2.1
		c1.8-2,3-4.7,3.5-8.1h-0.1c-1.7,0-2.3,0-2.4,0c-0.2,0-0.3,0-0.3-0.3V2.4c0-0.2,0-0.3,0.3-0.3c0.2,0,0.7,0,2.4,0h3
		c1.8,0,2.3,0,2.4,0c0.2,0,0.3,0,0.3,0.3v1.8c0,0.2,0,0.3-0.3,0.3c-0.1,0-0.7,0-2.4,0L172.7,4.4L172.7,4.4z M171.3,11.5v5.3h2.1
		v-5.3C173.4,11.5,171.3,11.5,171.3,11.5z M181.3,12.1c-0.1,2.3-0.3,4-0.8,5.3c-0.6,1.9-1.6,3.4-3.1,4.8c-0.2,0.3-0.4,0.4-0.5,0.4
		s-0.3-0.1-0.6-0.4c-0.5-0.5-1.1-0.8-1.6-1.1c1.6-1.1,2.7-2.5,3.3-4.2c0.5-1.3,0.7-2.8,0.8-4.9c-1.5,0-2.1,0-2.2,0
		c-0.2,0-0.3,0-0.3-0.3V10c0-0.3,0-0.3,0.3-0.3c0.1,0,0.7,0,2.3,0V4c-1.2,0-1.7,0-1.8,0c-0.2,0-0.2,0-0.2-0.2V2c0-0.2,0-0.3,0.2-0.3
		c0.1,0,0.9,0,3,0h5.3c2.2,0,2.9,0,3,0c0.2,0,0.3,0,0.3,0.3v1.8c0,0.2,0,0.2-0.3,0.2c-0.1,0-0.6,0-2,0v5.8c1.8,0,2.5,0,2.6,0
		c0.2,0,0.3,0,0.3,0.3v1.8c0,0.2,0,0.3-0.3,0.3c-0.1,0-0.8,0-2.6,0v6.9c0,2.4,0,3.1,0,3.3c0,0.2,0,0.3-0.3,0.3h-2
		c-0.2,0-0.2,0-0.2-0.3c0-0.2,0-0.9,0-3.3v-6.9h-2.6V12.1z M184,9.8V4h-2.7v5.8H184z"/>
	<path class="st3" d="M201.7,14.9c-0.8,3.7-3.2,5.9-7.9,7.5c-0.3,0.1-0.4,0.1-0.5,0.1c-0.2,0-0.3-0.2-0.5-0.6
		c-0.3-0.6-0.7-1-1.2-1.4c4.5-1.2,6.8-2.7,7.6-5.6h-2.6c-2.2,0-2.9,0.1-3.2,0.1s-0.3,0-0.3-0.3v-1.8c0-0.2,0-0.2,0.3-0.2
		c0.2,0,1,0.1,3.2,0h3c0-0.3,0-0.6,0-0.9c0-0.6,0-1.3-0.1-2c1,0,1.8,0.1,2.5,0.2c0.3,0,0.5,0.1,0.5,0.3c0,0.1,0,0.3-0.2,0.5
		c-0.1,0.2-0.2,0.5-0.2,1.2v0.7h1.8c2.5,0,3.4-0.1,3.5-0.1c0.2,0,0.3,0,0.3,0.3c0,0.7-0.1,1.5-0.1,2.4l-0.1,3.5c0,0.5,0,0.8,0.2,0.9
		s0.6,0.3,1.5,0.3s1.3-0.1,1.5-0.5s0.3-1.4,0.3-2.4c0.5,0.3,1.1,0.5,1.8,0.6c0.6,0.2,0.6,0.2,0.5,0.9c-0.2,1.8-0.5,2.6-1,3
		c-0.6,0.5-1.3,0.7-3.3,0.7s-3-0.2-3.4-0.6s-0.7-0.9-0.7-2.1l0.2-4.8L201.7,14.9z M205.1,8c0,0.4,0,0.6,0.2,0.7
		c0.2,0.1,0.7,0.1,1.4,0.1s1.1-0.1,1.4-0.3c0.2-0.3,0.3-0.9,0.4-1.8c0.4,0.2,0.9,0.4,1.5,0.5V5.1h-15.6v2.7c0,0.2,0,0.3-0.3,0.3h-2
		c-0.2,0-0.3,0-0.3-0.3c0-0.2,0-0.5,0-2.5V4.5c0-0.8,0-1.2,0-1.3c0-0.2,0-0.3,0.3-0.3c0.1,0,0.9,0,3.1,0h5.4V2.3c0-0.5,0-1-0.2-1.5
		c0.8,0,1.8,0.1,2.6,0.1c0.3,0,0.4,0.1,0.4,0.2c0,0.2-0.1,0.3-0.2,0.5c-0.1,0.2-0.1,0.4-0.1,0.8V3h5.8c2.2,0,3,0,3.1,0
		c0.2,0,0.3,0,0.3,0.3c0,0.1,0,0.5,0,1.1v1c0,2,0,2.4,0,2.5c0,0.2,0,0.3-0.3,0.3h-1.5c-0.1,1.2-0.4,1.9-1,2.2
		c-0.7,0.4-1.7,0.6-3.2,0.6c-1.7,0-2.6-0.1-3.1-0.4c-0.5-0.3-0.6-0.8-0.6-1.7V7.5c0-1,0-1.4-0.1-2c0.8,0,1.6,0.1,2.4,0.2
		c0.2,0,0.4,0.1,0.4,0.2c0,0.2,0,0.3-0.2,0.5S205,6.9,205,7.7V8H205.1z M200.6,6.2c0.3,0.1,0.4,0.3,0.4,0.4c0,0.2-0.1,0.3-0.3,0.4
		c-0.1,0.1-0.4,0.5-0.7,0.9c-1.1,1.7-2.8,2.9-5,3.6c-0.3,0.1-0.4,0.1-0.6,0.1c-0.2,0-0.3-0.2-0.5-0.6c-0.3-0.5-0.7-1-1.1-1.3
		c2.4-0.7,4.1-1.4,5.1-3c0.3-0.5,0.6-1,0.7-1.5C199.4,5.6,200,5.9,200.6,6.2z"/>
	<path class="st3" d="M219.2,13.9c-0.2,3.2-0.7,5.6-1.8,7.9c-0.2,0.3-0.3,0.5-0.4,0.5c-0.1,0-0.3-0.1-0.5-0.4
		c-0.5-0.6-1.1-1-1.6-1.3c1.7-2.5,2-5.8,2-10.2c0-2.6,0-3.9,0-4c0-0.2,0-0.3,0.3-0.3c0.2,0,0.7,0,2.4,0h3c1.7,0,2.3,0,2.4,0
		c0.2,0,0.3,0,0.3,0.3c0,0.1,0,0.8,0,2.2v3.7c0,1.5,0,2,0,2.2c0,0.3,0,0.3-0.3,0.3h-1.8c-0.2,0-0.3,0-0.3-0.3v-0.6H219.2z
		 M222.8,1.9c2,0,2.6,0,2.8,0s0.3,0,0.3,0.3V4c0,0.3,0,0.3-0.3,0.3c-0.1,0-0.8,0-2.8,0h-4c-2,0-2.6,0-2.8,0s-0.3,0-0.3-0.3V2.1
		c0-0.2,0-0.3,0.3-0.3c0.1,0,0.8,0,2.8,0h4V1.9z M219.3,8.4v3.4h3.5V8.4H219.3z M229.3,10.6c0,2.7-0.3,4.6-0.8,6.4
		c-0.6,1.9-1.6,3.5-3,4.9c-0.2,0.3-0.4,0.4-0.5,0.4s-0.2-0.1-0.5-0.4c-0.4-0.5-1-1-1.5-1.3c1.5-1.3,2.6-2.9,3.2-4.8
		c0.4-1.4,0.7-2.9,0.7-6.2v-3c0-1.4,0-2.6-0.2-3.9c0.8,0.1,1.6,0.3,2.3,0.6c1.5-0.3,3.3-1,4.7-1.7c0.6-0.3,0.9-0.5,1.3-0.8
		c0.6,0.5,1.1,1.1,1.6,1.7c0.1,0.2,0.2,0.3,0.2,0.5c0,0.1-0.2,0.2-0.4,0.3c-0.3,0-0.5,0.1-0.9,0.3c-2,0.8-4.1,1.5-6.1,2v3h4.4
		c2.4,0,3.1,0,3.3,0s0.3,0,0.3,0.3v1.8c0,0.2,0,0.3-0.3,0.3c-0.1,0-0.8,0-2.6,0v8.7c0,1.9,0,2.9,0,3c0,0.2,0,0.2-0.2,0.2h-2
		c-0.2,0-0.2,0-0.2-0.2s0-1.1,0-3V11h-2.8V10.6z"/>
</g>
</svg>
