<?xml version="1.0" encoding="utf-8"?>
<!-- Generator: Adobe Illustrator 25.2.1, SVG Export Plug-In . SVG Version: 6.00 Build 0)  -->
<svg version="1.1" id="レイヤー_1" xmlns="http://www.w3.org/2000/svg" xmlns:xlink="http://www.w3.org/1999/xlink" x="0px"
	 y="0px" viewBox="0 0 37.4 45" style="enable-background:new 0 0 37.4 45;" xml:space="preserve">
<style type="text/css">
	.st0{fill:#DE2650;}
	.st1{fill:#040000;}
	.st2{fill:#68C0C6;}
	.st3{fill:none;}
</style>
<g>
	<g>
		<path class="st0" d="M5.1,28.5l0.1,0.3C5.2,28.8,5.2,28.7,5.1,28.5z M9.4,21.5c0.2-1.7,0.8-2.6,2.1-3.5c1.8-1.3,4-0.6,4-0.6v-4.3
			c0.5,0,1.1,0,1.6,0.1v5.6c0,0-2.2-0.7-4,0.6c-1.2,1-1.9,1.9-2.1,3.5c0,0.9,0.2,2.1,0.9,3.1c-0.2-0.1-0.4-0.2-0.6-0.3
			C9.7,24.5,9.4,22.8,9.4,21.5L9.4,21.5z M26.1,5.1c-1.2-1.4-1.7-2.8-1.8-3.8h1.5c0,0-0.3,2.6,1.9,5.1l0,0
			C27.2,6.1,26.6,5.6,26.1,5.1z M33.5,9v5.5c0,0-1.9-0.1-3.4-0.5c-2-0.5-3.3-1.4-3.3-1.4s-0.9-0.6-1-0.6v11.3c0,0.6-0.2,2.2-0.7,3.5
			c-0.7,1.7-1.7,2.8-1.9,3.1c0,0-1.2,1.5-3.4,2.5c-2,0.9-3.7,0.9-4.2,0.9c0,0-3,0.1-5.6-1.7c-0.6-0.4-1.1-0.9-1.6-1.4l0,0
			c2.7,1.8,5.6,1.7,5.6,1.7c0.5,0,2.2,0,4.2-0.9c2.2-1,3.4-2.5,3.4-2.5c0.2-0.2,1.2-1.4,1.9-3.1c0.5-1.3,0.7-2.9,0.7-3.5V10.7
			c0.1,0,1,0.6,1,0.6s1.3,0.8,3.3,1.4c1.4,0.4,3.4,0.5,3.4,0.5V8.9C32.5,9,33.1,9.1,33.5,9L33.5,9z"/>
	</g>
	<path class="st1" d="M31.9,8.9v4.3c0,0-1.9-0.1-3.4-0.5c-2-0.5-3.3-1.4-3.3-1.4s-0.9-0.6-1-0.6V22c0,0.6-0.2,2.2-0.7,3.5
		c-0.7,1.7-1.7,2.8-1.9,3.1c0,0-1.2,1.5-3.4,2.5c-2,0.9-3.7,0.9-4.2,0.9c0,0-3,0.1-5.6-1.7l0,0c-0.3-0.3-0.5-0.6-0.8-0.9
		c-0.9-1.1-1.4-2.4-1.5-2.7c0,0,0,0,0,0C5.9,26,5.5,24.5,5.6,23c0.1-2.6,1-4.2,1.2-4.6c0.6-1.1,1.4-2.1,2.4-2.9
		c0.8-0.7,1.8-1.3,2.8-1.7c1.1-0.5,2.3-0.7,3.5-0.7v4.3c0,0-2.2-0.7-4,0.6c-1.2,1-1.9,1.9-2.1,3.5c0,1.2,0.3,2.9,1.9,4.1
		c0.2,0.1,0.4,0.2,0.6,0.3c0.3,0.4,0.6,0.7,1,1c1.6,1.1,2.9,1.1,4.7,0.4c1.1-0.5,2-1.5,2.4-2.6c0.3-0.7,0.2-1.4,0.2-2.2V1.3h4
		c0.2,1,0.6,2.4,1.8,3.8c0.5,0.5,1,1,1.6,1.4c0.2,0.2,1.1,1.1,2.2,1.7C30.6,8.5,31.2,8.7,31.9,8.9z"/>
	<path class="st2" d="M4.6,25.3L4.6,25.3l0.1,0.3C4.6,25.6,4.6,25.5,4.6,25.3L4.6,25.3z"/>
	<path class="st2" d="M12,13.8c-1,0.4-2,1-2.8,1.7c-1,0.8-1.8,1.8-2.4,2.9c-0.2,0.4-1.1,2-1.2,4.6c-0.1,1.5,0.4,3,0.6,3.6
		c0,0,0,0,0,0c0.1,0.4,0.7,1.6,1.5,2.7c0.2,0.3,0.5,0.6,0.8,0.9c-0.9-0.6-1.7-1.4-2.4-2.2c-0.8-1.1-1.4-2.3-1.5-2.7c0,0,0,0,0,0v0
		c-0.2-0.6-0.7-2.2-0.6-3.6c0.1-2.6,1-4.2,1.2-4.6C5.8,16,6.6,15,7.6,14.2c0.8-0.7,1.8-1.3,2.8-1.7c0.6-0.3,1.3-0.5,2-0.6
		c1-0.2,2.1-0.2,3.1,0v1.2C14.3,13.1,13.1,13.4,12,13.8z"/>
	<path class="st2" d="M24.3,1.3h-4v21.2c0,0.7,0,1.5-0.2,2.2c-0.4,1.1-1.3,2.2-2.4,2.6C15.9,28.1,14.6,28,13,27
		c-0.4-0.3-0.7-0.6-1-1c1.4,0.7,2.6,0.7,4.1,0.1c1.1-0.5,2-1.5,2.4-2.6c0.3-0.7,0.2-1.4,0.2-2.2V0h5.5C24.2,0,24.2,0.5,24.3,1.3z
		 M31.9,7.7v1.2c-0.6-0.2-1.3-0.4-1.9-0.7c-1.2-0.6-2.1-1.5-2.2-1.7c0.2,0.1,0.4,0.3,0.6,0.4C29.8,7.5,31.2,7.8,31.9,7.7L31.9,7.7z"
		/>
	<path class="st3" d="M24.5,42.1c0-0.1-0.1-0.3-0.1-0.4v0C24.4,41.8,24.5,41.9,24.5,42.1L24.5,42.1z M27.8,41.6L27.8,41.6
		c0,0.2,0,0.3-0.1,0.5C27.8,41.9,27.8,41.8,27.8,41.6L27.8,41.6z"/>
	<path class="st2" d="M24.4,41.6c0,0.2,0,0.3,0.1,0.4c0,0,0,0,0,0c0.2,0.7,0.9,1.2,1.6,1.2V45c-0.8,0-1.4,0-2.3-0.5
		c-1-0.6-1.6-1.7-1.6-2.9c0-1.2,0.6-2.4,1.8-3c0.8-0.4,1.4-0.4,2.2-0.4v1.7C25.2,39.9,24.4,40.7,24.4,41.6L24.4,41.6z"/>
	<path class="st0" d="M27.8,41.6c0,0.2,0,0.3-0.1,0.4c0,0,0,0,0,0c-0.2,0.7-0.9,1.2-1.6,1.2V45c0.8,0,1.4,0,2.3-0.5
		c1-0.6,1.6-1.7,1.6-2.9c0-1.2-0.6-2.4-1.8-3c-0.8-0.4-1.4-0.4-2.2-0.4v1.7C27.1,39.9,27.8,40.7,27.8,41.6L27.8,41.6z"/>
	<path class="st1" d="M0,36.7h6.2l-0.6,1.7H4V45H2v-6.6H0L0,36.7z M16.6,36.7v1.7h2V45h2v-6.6h1.6l0.6-1.7H16.6z M7.6,38.6
		c0.5,0,1-0.4,1-1c0-0.5-0.4-1-1-1c-0.5,0-1,0.4-1,1l0,0C6.6,38.2,7.1,38.6,7.6,38.6C7.6,38.6,7.6,38.6,7.6,38.6L7.6,38.6z M6.6,45
		h2v-5.7h-2V45z M15.7,38.6h-2.3l-2,2v-3.9h-2l0,8.3h2v-2.2l0.6-0.6L14,45h2.1l-2.8-4L15.7,38.6z M34.6,41l2.4-2.4h-2.3l-2,2v-3.9
		h-2l0,8.3h2v-2.2l0.6-0.6l1.9,2.7h2.1L34.6,41z M29.6,41.6c0,1.9-1.5,3.4-3.4,3.4c-1.9,0-3.4-1.5-3.4-3.4c0-1.9,1.5-3.4,3.4-3.4
		C28,38.2,29.6,39.7,29.6,41.6L29.6,41.6z M27.8,41.6c0-0.9-0.8-1.7-1.7-1.7c-0.9,0-1.7,0.8-1.7,1.7c0,0.9,0.8,1.7,1.7,1.7h0
		C27,43.3,27.8,42.5,27.8,41.6L27.8,41.6z"/>
</g>
</svg>
