<?xml version="1.0" encoding="utf-8"?>
<!-- Generator: Adobe Illustrator 25.2.1, SVG Export Plug-In . SVG Version: 6.00 Build 0)  -->
<svg version="1.1" id="レイヤー_1" xmlns="http://www.w3.org/2000/svg" xmlns:xlink="http://www.w3.org/1999/xlink" x="0px"
	 y="0px" viewBox="0 0 42.6 34.7" style="enable-background:new 0 0 42.6 34.7;" xml:space="preserve">
<style type="text/css">
	.st0{fill:#040000;}
</style>
<path class="st0" d="M13.4,34.7c16.1,0,24.9-13.3,24.9-24.9c0-0.4,0-0.8,0-1.1c1.7-1.2,3.2-2.8,4.4-4.5c-1.6,0.7-3.3,1.2-5,1.4
	c1.8-1.1,3.2-2.8,3.9-4.8c-1.7,1-3.6,1.7-5.6,2.1C34.3,1.1,32,0,29.5,0c-4.8,0-8.8,3.9-8.8,8.8c0,0.7,0.1,1.3,0.2,2
	C13.7,10.4,7.3,6.9,3,1.6C2.2,2.9,1.8,4.4,1.8,6c0,3,1.6,5.7,3.9,7.3c-1.4-0.1-2.8-0.4-4-1.1c0,0,0,0.1,0,0.1c0,4.2,3,7.8,7,8.6
	c-0.7,0.2-1.5,0.3-2.3,0.3c-0.6,0-1.1-0.1-1.6-0.2c1.1,3.5,4.4,6,8.2,6.1c-3,2.4-6.8,3.8-10.9,3.8c-0.7,0-1.4,0-2.1-0.1
	C3.9,33.2,8.5,34.7,13.4,34.7"/>
</svg>
