<?xml version="1.0" encoding="utf-8"?>
<!-- Generator: Adobe Illustrator 25.2.1, SVG Export Plug-In . SVG Version: 6.00 Build 0)  -->
<svg version="1.1" id="レイヤー_1" xmlns="http://www.w3.org/2000/svg" xmlns:xlink="http://www.w3.org/1999/xlink" x="0px"
	 y="0px" viewBox="0 0 638.2 40.5" style="enable-background:new 0 0 638.2 40.5;" xml:space="preserve">
<g>
	<g>
		<g>
			<path d="M19.5,32.8c0,0.3-0.1,0.5-0.2,0.7s-0.4,0.3-0.6,0.4C18.5,34,18.2,34,17.7,34c-0.6,0-1.2-0.1-1.9-0.3
				c-1.4-0.5-2.6-1.3-3.6-2.4c-1-1.1-1.4-2.4-1.4-3.8c0-1.3,0.4-2.6,1.1-3.9c0.8-1.3,1.7-2.4,2.9-3.3C13.2,20.8,11.6,21,10,21
				c-1.4,0-2.5-0.2-3.3-0.7c-0.9-0.4-1.3-1.2-1.3-2.2c0-1.4,0.8-2.9,2.3-4.5c-1.7-1.2-3.1-2.1-4.2-2.6c-0.4-0.2-0.9-0.4-1.4-0.5
				C1.6,10.2,1.2,10.1,1,10C0.6,9.9,0.4,9.7,0.2,9.5S0,9,0,8.8c0.1-0.4,0.4-0.6,0.8-0.6c0.7,0,1.9,0.4,3.6,1.3
				c1.7,0.9,3.3,1.8,4.7,2.9c2-1.5,3.9-2.5,5.7-2.9c0.6-0.1,1.1-0.2,1.6-0.2c0.8,0,1.3,0.2,1.6,0.5c0.1,0.1,0.2,0.3,0.2,0.5
				c0,0.3-0.1,0.5-0.3,0.7c-0.2,0.2-0.5,0.3-0.7,0.3c-0.1,0-0.2,0-0.4-0.1c-0.3-0.1-0.6-0.1-0.9-0.1c-0.6,0-1.5,0.2-2.6,0.6
				c-1,0.4-1.9,0.9-2.9,1.6c0.5,0.4,0.9,0.7,1,1c0.3,0.4,0.4,0.7,0.4,1c0,0.2-0.1,0.4-0.2,0.5c-0.1,0.1-0.3,0.2-0.5,0.2
				c-0.3,0-0.8-0.3-1.3-0.8L9,14.5c-0.6,0.6-1.2,1.3-1.6,2c-0.3,0.6-0.4,1.1-0.4,1.5c0,0.2,0,0.4,0.1,0.6c0.3,0.6,1.3,0.8,2.8,0.8
				c1,0,2.2-0.1,3.5-0.4c1.3-0.2,2.3-0.6,3.2-0.9c0.2-0.1,0.4-0.1,0.7-0.1c0.5,0,0.8,0.3,0.8,0.8c0,0.3-0.1,0.5-0.2,0.7
				c-0.1,0.2-0.3,0.4-0.5,0.5c-0.2,0.2-0.3,0.3-0.4,0.4c-3,3-4.4,5.4-4.4,7.2c0,0.9,0.3,1.7,0.9,2.3c0.5,0.6,1.1,1.1,1.9,1.5
				c0.8,0.4,1.5,0.6,2.1,0.6c0.2,0,0.4,0,0.6-0.1c0.2-0.1,0.4-0.1,0.5-0.1c0.2,0,0.3,0,0.4,0.1C19.4,32.2,19.5,32.5,19.5,32.8z"/>
			<path d="M73.4,20.2c0.1,0.2,0.2,0.4,0.2,0.7c0,0.2,0,0.3,0,0.4c-0.2,0.7-0.8,1.5-1.8,2.3c-1,0.8-2.1,1.5-3.4,2
				c-1.3,0.6-2.4,0.9-3.3,1c-0.5,0.1-0.8,0.1-0.9,0.1c-1.5,0-2.4-0.7-2.6-2c0-0.1,0-0.5,0-1l0-3.2c0-0.8-0.1-1.3-0.2-1.7
				c-0.1-0.3-0.4-0.5-0.8-0.5c-0.4,0-0.9,0.2-1.5,0.5c-0.5,0.3-1.3,0.7-2.3,1.4c-1,0.7-1.9,1.3-2.7,2l-1.4,1.1
				c0.2,3.2,0.5,5.7,1.1,7.6c0.8,2.5,1.9,4,3.2,4.5c0.3,0.1,0.5,0.3,0.6,0.5c0.1,0.3,0.1,0.5,0,0.7c-0.2,0.4-0.5,0.6-0.9,0.6
				c-0.1,0-0.2,0-0.4-0.1c-1.6-0.7-2.8-2.2-3.7-4.6c-0.8-2.3-1.4-5-1.6-8l-2.5,2.1c-1.3,1.1-2.2,1.6-2.9,1.6c-0.2,0-0.5-0.1-0.7-0.2
				c-0.5-0.4-0.7-1-0.7-1.9c0-0.7,0.2-1.7,0.5-2.9c0.2-0.8,0.4-1.6,0.7-2.4c0.2-0.6,0.4-1.3,0.5-1.9c0.2-0.6,0.3-1.2,0.3-1.9
				c0-0.1,0-0.3,0-0.6c0-0.3,0-0.5,0-0.6l-0.9,0.7c-1.3,1.2-2.3,1.9-3,2L42,18.7c-0.5,0-0.7-0.2-0.8-0.6v-0.2c0-0.5,0.3-0.8,0.9-1
				c0.7-0.2,1.4-0.6,2.1-1.1c0.6-0.5,1.1-0.9,1.3-1.1c0.5-0.4,1-0.5,1.3-0.5c0.9,0,1.3,0.7,1.3,2.1c0,1.3-0.3,2.7-0.8,4.2
				c-0.4,1.3-0.8,2.4-1,3.3c-0.2,0.9-0.3,1.7-0.3,2.3c0,0.2,0,0.5,0.1,0.7c0.4-0.3,1.4-1.1,2.9-2.4l2-1.7v-2.3
				c0.1-2.5,0.4-5.7,1-9.5c0.6-3.8,1.3-6.5,2-8c0.2-0.4,0.5-0.6,1-0.6c0.3,0,0.5,0.1,0.7,0.3c0.2,0.2,0.3,0.4,0.3,0.7l-0.1,0.4
				l-0.4,1c-0.2,0.3-0.4,0.6-0.5,1c-0.7,1.7-1.2,3.9-1.6,6.7s-0.6,5.5-0.7,8.1v0.8L53,21c1.9-1.5,3.7-2.7,5.4-3.6
				c0.8-0.4,1.5-0.6,2.2-0.6c0.4,0,0.8,0.1,1.1,0.2c0.5,0.3,0.8,0.6,1,1.1c0.2,0.5,0.3,1.1,0.3,1.7c0,0.7,0,1.9,0,3.8
				c0,0.5,0.1,0.8,0.2,1c0.1,0.2,0.4,0.3,0.9,0.3c0.8,0,1.7-0.2,2.9-0.7c1.2-0.4,2.2-1,3.1-1.7c0.9-0.7,1.4-1.3,1.5-2
				c0-0.2,0.1-0.4,0.3-0.5c0.2-0.1,0.4-0.2,0.6-0.2C73,20,73.2,20.1,73.4,20.2z"/>
			<path d="M89.1,12.4c0.7-0.1,1.6-0.2,2.7-0.2c1.9,0,3.8,0.2,5.5,0.5c1,0.2,1.9,0.5,2.7,0.9c0.8,0.4,1.5,0.9,1.9,1.5
				c0.5,0.5,0.7,1.1,0.7,1.9c0,1-0.5,2.3-1.4,3.9c-1,1.6-1.7,2.8-2.2,3.8c-0.5,0.9-0.7,1.7-0.7,2.4c0,0.7,0.2,1.4,0.7,1.9
				c0.4,0.5,1.2,0.8,2.3,0.8c0.8,0,1.4-0.1,1.9-0.4c0.2-0.1,0.4-0.1,0.6-0.1c0.3,0,0.5,0.1,0.6,0.2c0.2,0.2,0.2,0.4,0.2,0.6
				s-0.1,0.5-0.3,0.7c-0.2,0.2-0.5,0.4-0.8,0.5c-0.6,0.2-1.3,0.3-2,0.3c-0.9,0-1.7-0.2-2.5-0.5c-0.8-0.3-1.4-0.8-1.8-1.5
				c-0.4-0.7-0.6-1.5-0.6-2.5c0-0.8,0.1-1.5,0.4-2.3c0.4-1.1,1.1-2.3,2.1-3.8c1.3-1.9,1.8-3.3,1.7-4.2c-0.1-0.8-1.2-1.5-3.5-2.2
				c-1.3-0.4-2.7-0.5-4.2-0.5c-1.4,0-2.6,0.1-3.8,0.3c-0.3,0.1-0.6,0-0.8-0.2c-0.2-0.2-0.4-0.5-0.4-0.8c0-0.3,0.1-0.5,0.2-0.7
				C88.7,12.6,88.9,12.5,89.1,12.4z M109.7,5.4c0.1,0.7,0.3,1.4,0.6,1.9c0.5,0.8,1.1,1.4,1.9,2c0.8,0.6,1.5,0.9,2.1,0.8
				c0.3,0,0.5,0.1,0.7,0.3c0.2,0.2,0.3,0.5,0.3,0.8c0,0.6-0.4,0.8-1.1,0.8c-1,0-2-0.4-3.1-1.3C110,9.9,109.2,9,108.7,8
				c-0.1-0.2-0.3-0.5-0.5-1c-0.3-0.4-0.4-0.9-0.4-1.3c0-0.3,0.1-0.6,0.3-0.8s0.4-0.3,0.7-0.3c0.2,0,0.4,0.1,0.6,0.2
				C109.6,5,109.7,5.1,109.7,5.4z M116,2.6c0,0.8,0.1,1.4,0.4,1.9c0.4,0.7,1.1,1.4,2,2.1c0.9,0.7,1.7,1,2.3,1c0.3,0,0.5,0.1,0.7,0.3
				c0.2,0.2,0.3,0.5,0.3,0.9c0,0.2-0.1,0.4-0.3,0.6c-0.2,0.1-0.4,0.2-0.8,0.2c-0.1,0-0.4,0-0.8-0.1c-0.9-0.2-1.8-0.8-2.8-1.7
				c-1-0.9-1.7-1.8-2.2-2.7c-0.1-0.2-0.2-0.5-0.5-0.9C114.2,3.9,114,3.4,114,3c0-0.3,0.1-0.6,0.3-0.8c0.2-0.2,0.4-0.3,0.7-0.3
				c0.3,0,0.5,0.1,0.7,0.2C115.9,2.2,116,2.4,116,2.6z"/>
			<path d="M156.1,16.8c0,1.6-0.1,3.1-0.4,4.4c-0.5,2.4-1.2,4.8-2.2,7.2c-1,2.4-2.2,4.4-3.5,5.8c-1.3,1.5-2.5,2.2-3.6,2.2
				c-0.4,0-0.8-0.1-1.2-0.3c-2.3-1.1-3.9-4.6-5.1-10.4c-0.3-2-0.5-3.7-0.6-5.3l-1.8,0.9c-0.2,0.1-0.4,0.2-0.7,0.4
				c-0.3,0.2-0.6,0.3-0.8,0.3H136c-0.5,0-0.9-0.2-1-0.6l0-0.2c0-0.3,0.2-0.6,0.6-1c0.3-0.3,0.6-0.5,0.9-0.6c0.3-0.1,0.6-0.2,1-0.3
				c0.3-0.1,0.6-0.2,0.7-0.2l1.3-0.4c-0.1-1.9,0-3.6,0.2-5.2c-1.2,0.6-2.1,1.3-2.7,2c-0.2,0.2-0.4,0.5-0.6,0.8
				c-0.2,0.3-0.4,0.6-0.6,0.7c-0.2,0.1-0.4,0.2-0.6,0.2c-0.4,0-0.6-0.1-0.7-0.3c-0.1-0.2-0.2-0.3-0.2-0.5c0-0.3,0.2-0.6,0.5-1.1
				c0.5-0.7,1.2-1.4,2.1-2.1c0.9-0.7,1.9-1.3,3-1.7c0.3-1.5,0.6-2.8,0.9-3.9c0.3-0.8,0.5-1.4,0.7-1.8c0.2-0.4,0.5-0.6,1-0.6
				c0.3,0,0.6,0.1,0.8,0.3c0.2,0.2,0.3,0.4,0.3,0.7c0,0.1-0.1,0.3-0.2,0.5c-0.6,0.7-1.1,2.1-1.5,4.1c1-0.3,2.1-0.4,3.4-0.4
				c0.6,0,1.2,0,1.7,0.1c0.6,0.2,0.9,0.5,0.9,0.9c0,0.3-0.1,0.5-0.3,0.7c-0.2,0.2-0.4,0.3-0.7,0.3c-0.1,0-0.4-0.1-0.7-0.2
				c-0.3-0.1-0.7-0.2-0.9-0.2c-1.3,0-2.6,0.2-3.8,0.6c-0.2,1.7-0.3,3.5-0.3,5.4c1.4-0.5,2.5-0.8,3.5-1c0.9-0.2,1.9-0.3,3-0.3
				c0.3,0,0.6,0.1,0.9,0.3c0.3,0.2,0.4,0.4,0.4,0.7c0,0.2-0.1,0.4-0.2,0.6c-0.2,0.3-0.6,0.4-1.2,0.4c-0.2,0-0.5,0-0.7,0
				c-0.2,0-0.4,0-0.6,0c-0.9,0-1.7,0.1-2.4,0.3c-0.8,0.2-1.6,0.5-2.6,0.8l0.1,1.1c0.2,2.9,0.7,5.5,1.3,8.1c0.6,2.5,1.5,4.3,2.6,5.2
				c0.5,0.4,0.9,0.6,1.3,0.6c0.5,0,1.1-0.3,1.8-0.8c1.3-1,2.5-2.7,3.6-5.2c1.1-2.5,1.8-4.9,2.2-7.3c0.3-1.9,0.4-3.5,0.4-4.8
				c0-3-0.7-5.1-2-6.5c-0.1-0.1-0.3-0.3-0.5-0.4c-0.2-0.2-0.4-0.3-0.5-0.5c-0.1-0.2-0.1-0.4-0.1-0.6c0-0.3,0.1-0.5,0.2-0.6
				c0.2-0.2,0.4-0.3,0.6-0.3c0.3,0,0.5,0.1,0.8,0.3c0.6,0.3,1.2,1.1,1.8,2.4s1,2.5,1.2,3.7C156.1,14.9,156.1,15.8,156.1,16.8z"/>
			<path d="M181.6,15.1c2.9-0.7,5.5-1.2,7.6-1.6c2.2-0.4,4.3-0.6,6.4-0.6c0.7,0,1.3,0,1.6,0.1c0.6,0,1,0.1,1.3,0.3
				c0.3,0.2,0.5,0.6,0.5,1.2c0,0.7-0.2,1.7-0.7,3c-0.5,1.4-1.3,3.2-2.4,5.4c-1.1,2.2-2.4,4.9-3.9,7.8c-0.4,0.7-0.7,1.3-1,1.7
				c-0.3,0.4-0.7,0.7-1.1,0.7c-0.2,0-0.4-0.1-0.6-0.3c-0.2-0.1-0.2-0.3-0.2-0.5c0-0.3,0.2-0.6,0.5-1.1c0.3-0.4,0.6-0.8,0.8-1.1
				c0.3-0.5,1-1.7,1.9-3.5s1.7-3.3,2.2-4.3c2-4.4,3-6.9,3-7.3c0-0.3-0.2-0.4-0.6-0.4c-2.8,0-5.8,0.3-9.2,0.9
				c-1.6,0.3-3.2,0.8-4.8,1.4c-0.3,0.1-0.6,0.2-0.9,0.2c-0.7,0-1-0.3-1-0.9c0-0.2,0.1-0.4,0.2-0.6C181.2,15.3,181.4,15.2,181.6,15.1
				z"/>
			<path d="M225.3,18.6c2.1-0.9,4.7-1.6,7.7-2.1c2.5-0.4,4.7-0.6,6.5-0.6c2.2,0,3.5,0.3,3.9,1c0.1,0.2,0.2,0.5,0.2,0.7
				c0,0.5-0.2,0.9-0.6,1.3c-0.4,0.4-1,0.8-1.6,1.3c-1.9,1.3-3.6,2-5.4,2.3c0.4,0.8,0.5,1.8,0.5,3.2l0,1.4c0,1-0.2,2.4-0.5,4.2
				l-0.2,1.4c-0.1,0.9-0.5,1.3-1.1,1.3c-0.3,0-0.5-0.1-0.7-0.3c-0.2-0.2-0.2-0.4-0.2-0.7c0-0.2,0-0.3,0-0.3c0.8-2.5,1.1-4.7,1.1-6.9
				c0-0.9-0.1-1.7-0.2-2.2c-0.1-0.2-0.2-0.5-0.3-0.8c-0.2-0.3-0.2-0.6-0.2-0.8c0-0.3,0.1-0.5,0.4-0.7c0.1-0.1,0.5-0.2,1.3-0.4
				c0.6-0.1,1.2-0.3,1.7-0.5c0.9-0.4,1.8-0.8,2.7-1.3c0.9-0.5,1.5-0.9,1.8-1.2c-0.6-0.1-1.5-0.2-2.8-0.2c-1.9,0-4,0.2-6.2,0.6
				c-2.3,0.4-4.1,1-5.7,1.7c-0.1,0.1-0.4,0.2-0.7,0.3c-0.3,0.2-0.6,0.2-0.8,0.2c-0.3,0-0.5-0.1-0.6-0.3c-0.2-0.2-0.2-0.4-0.2-0.6
				C224.7,19.1,224.9,18.7,225.3,18.6z"/>
			<path d="M272,17.2c0.2,0.7,0.9,1.5,1.9,2.4c1,0.9,2.1,1.6,3.1,2.2c0.2,0.1,0.5,0.2,0.8,0.3s0.6,0.2,0.9,0.4
				c0.2,0.2,0.3,0.4,0.3,0.7c0,0.3-0.1,0.5-0.3,0.7c-0.2,0.2-0.4,0.2-0.7,0.2c-0.1,0-0.3,0-0.5-0.1c-0.5-0.2-1.2-0.6-2.2-1.2
				c-2.2-1.4-3.8-2.9-4.9-4.3c-0.3-0.4-0.4-0.7-0.4-1.1c0-0.1,0-0.2,0-0.3c0.1-0.2,0.2-0.4,0.4-0.5c0.2-0.1,0.4-0.2,0.6-0.2
				s0.4,0.1,0.6,0.2C271.8,16.8,272,16.9,272,17.2z M288.9,21.8c-0.8,0.4-1.5,0.9-2.3,1.6c-0.7,0.7-1.2,1-1.3,1.1
				c-1.3,1.1-2.5,2.3-3.5,3.5c-1,1.2-1.8,2.3-2.3,3.2c-0.2,0.4-0.3,0.7-0.3,1c0,0.1,0,0.3,0.1,0.5s0.1,0.4,0.1,0.5v0.1
				c0,0.3-0.1,0.5-0.3,0.7c-0.2,0.1-0.4,0.2-0.6,0.2c-0.2,0-0.4-0.1-0.6-0.2c-0.2-0.1-0.3-0.3-0.4-0.6c-0.1-0.3-0.2-0.6-0.2-1
				c0-0.5,0.2-1.1,0.5-1.9c0.6-1.2,1.4-2.4,2.4-3.5c1-1.1,2.1-2.2,3.5-3.4l1.2-1.1c1-1,1.9-1.8,2.7-2.3c0.3-0.2,0.6-0.3,0.8-0.3
				c0.2,0,0.4,0.1,0.6,0.3c0.2,0.2,0.3,0.4,0.3,0.7C289.4,21.3,289.2,21.6,288.9,21.8z M282.7,16.6c-0.4,0.4-0.7,1.1-0.9,2
				c-0.2,0.9-0.3,1.8-0.3,2.6c0,0.9,0.1,1.6,0.3,2c0.1,0.1,0.2,0.2,0.3,0.4c0.1,0.2,0.2,0.4,0.2,0.5c0,0.3-0.1,0.5-0.3,0.7
				c-0.2,0.2-0.4,0.3-0.7,0.3c-0.3,0-0.5-0.1-0.7-0.4c-0.2-0.3-0.3-0.6-0.4-1c-0.2-0.8-0.3-1.6-0.3-2.4c0-1,0.1-2.1,0.4-3.4
				c0.2-1,0.5-1.7,0.7-2.2c0.2-0.5,0.6-0.8,1.1-0.8c0.3,0,0.5,0.1,0.7,0.3c0.2,0.2,0.3,0.5,0.3,0.7C283,16.2,282.9,16.4,282.7,16.6z
				"/>
			<path d="M314.9,10.7c0.3,0,0.7,0,1.3,0c1.6,0,3.2,0.2,4.9,0.6c1.6,0.4,2.9,0.9,3.7,1.5c0.4,0.3,0.6,0.6,0.6,1
				c0,0.2,0,0.3-0.1,0.4c-0.2,0.3-0.5,0.5-0.9,0.5h-0.1c-0.2,0-0.4-0.1-0.6-0.3c-0.2-0.2-0.3-0.3-0.5-0.4c-1.4-1-3.4-1.5-6-1.5
				c-0.3,0-0.7,0-1.1,0.1c-0.4,0.1-0.8,0.1-1,0.1c-0.1,0-0.2,0-0.4-0.1c-0.4-0.1-0.5-0.4-0.5-0.9c0-0.2,0.1-0.4,0.2-0.6
				C314.4,10.8,314.6,10.7,314.9,10.7z M315.6,19.3c1.6-0.9,3.2-1.3,5-1.3c0.6,0,1.3,0.1,2,0.2c1.2,0.3,1.7,0.8,1.7,1.4
				c0,0.3-0.1,0.5-0.3,0.7c-0.2,0.2-0.4,0.3-0.7,0.3c-0.1,0-0.2,0-0.4-0.1c-0.2-0.1-0.4-0.2-0.6-0.4c-0.2-0.2-0.5-0.3-1-0.3
				c-0.2,0-0.5,0-0.9,0c-0.6,0-1.2,0.1-1.8,0.2c-0.6,0.2-1.2,0.4-1.6,0.7c-0.4,0.3-0.7,0.4-0.9,0.4h-0.2c-0.2,0-0.4-0.1-0.5-0.3
				c-0.1-0.2-0.2-0.4-0.2-0.6C315.1,19.8,315.3,19.5,315.6,19.3z M317.4,33.1c-0.2-0.3-0.3-0.7-0.3-1c0-0.4,0.1-0.8,0.4-1.3
				c0.3-0.5,0.6-1,1-1.4c0.4-0.5,0.7-0.7,0.8-0.8c0.6-0.7,1.4-1.4,2.3-2.3c1-0.9,2-1.8,3.1-2.8c1.6-1.4,4.5-3.7,8.9-7
				c2.3-1.7,3.6-2.5,4.1-2.5c0.3,0,0.5,0.1,0.7,0.3c0.2,0.2,0.3,0.4,0.3,0.7c0,0.2-0.1,0.4-0.3,0.6c-0.3,0.3-1.1,0.8-2.4,1.6
				l-0.9,0.5c-0.7,0.4-1.2,0.7-1.6,1c-2.1,1.5-3.8,2.8-5.2,4c-1.4,1.1-3,2.5-4.9,4.3c-0.9,0.9-2.2,2.2-3.9,4.1
				c-0.3,0.3-0.4,0.5-0.4,0.7c0,0.1,0,0.2,0,0.2c0.1,0.2,0.1,0.4,0.1,0.6c0,0.4-0.1,0.7-0.4,0.8c-0.1,0.1-0.3,0.2-0.5,0.2
				C318,33.6,317.6,33.5,317.4,33.1z"/>
			<path d="M376.3,21.4c0,0.1,0,0.9-0.1,2.3c-0.1,1-0.1,1.7-0.2,2.1l-0.2,2.2c0,0.5,0,1.2,0,2.2c0,0.3,0,0.8,0,1.5
				c0,0.3-0.2,0.5-0.4,0.7c-0.2,0.2-0.5,0.3-0.7,0.3c-0.4,0-0.7-0.2-0.8-0.5c-0.5,0-0.8,0-0.9,0c-1.9,0.3-3.8,0.7-5.9,1.3
				c-0.3,0.1-0.7,0.2-1.3,0.4s-1.1,0.3-1.4,0.4c-0.3,0-0.5,0-0.7-0.2c-0.2-0.2-0.3-0.4-0.3-0.7c0-0.5,0.2-0.8,0.7-1
				c1.5-0.4,3.8-0.9,6.9-1.5c1.2-0.2,2.1-0.4,2.7-0.5l0.2-0.1c0-0.1,0-0.2,0-0.3l0.2-2.5l0.2-2.2c-0.1,0-0.2,0-0.3-0.1
				c-0.1,0-0.2,0-0.3,0c-0.2,0-0.4-0.1-0.7-0.1c-0.3,0-0.6,0-0.9,0c-0.9,0-2.1,0.2-3.5,0.5s-2.3,0.6-2.6,1c-0.2,0.2-0.5,0.3-0.7,0.3
				c-0.3,0-0.5-0.1-0.7-0.3c-0.2-0.2-0.3-0.4-0.3-0.7c0-0.2,0-0.3,0.1-0.4c0.2-0.4,0.5-0.6,1-0.8c0.5-0.2,0.9-0.3,1.4-0.4
				s0.7-0.2,0.9-0.2c1.7-0.4,3.2-0.6,4.5-0.6c0.9,0,1.6,0.1,2.3,0.2h0l0.2-2.5c0-0.5-0.1-0.9-0.3-1.1c-0.2-0.2-0.6-0.4-1.2-0.6
				c-1-0.3-2.1-0.5-3.3-0.5c-1.3,0-2.6,0.2-3.9,0.5c-0.2,0-0.4,0.1-0.6,0.1c-0.2,0-0.4,0.1-0.6,0.1c-0.2,0.1-0.5,0.2-1,0.4
				s-0.8,0.3-1.1,0.3c-0.3,0-0.5-0.1-0.7-0.3c-0.2-0.2-0.2-0.4-0.2-0.7c0-0.4,0.2-0.7,0.6-0.9c2-0.9,4.5-1.3,7.7-1.3
				c2.1,0,3.7,0.4,4.9,1.1C375.9,18.9,376.3,19.9,376.3,21.4z"/>
			<path d="M404.9,17c1-0.3,2.2-0.5,3.6-0.5c1.1,0,2.2,0.1,3.3,0.4c0.9,0.2,1.5,0.5,1.8,0.8c0.1,0.2,0.2,0.4,0.2,0.6
				c0,0.3-0.1,0.5-0.4,0.7c-0.3,0.2-0.6,0.2-0.9,0.1c-0.3-0.1-0.6-0.2-0.9-0.3c-0.3-0.1-0.6-0.2-0.9-0.3c-1-0.2-1.7-0.3-2.2-0.3
				c-0.5,0-0.9,0-1.3,0.1c-0.2,0.1-0.6,0.2-1,0.3c-0.4,0.1-0.8,0.2-1,0.2c-0.2,0-0.4-0.1-0.5-0.2c-0.3-0.2-0.4-0.5-0.4-0.8
				c0-0.2,0.1-0.4,0.2-0.6C404.4,17.2,404.6,17.1,404.9,17z M410.5,30.5c0-0.5,0.1-1,0.4-1.5c0.3-0.5,0.6-1.1,1-1.6
				c0.4-0.5,0.7-0.9,0.8-1.1c0.9-1.3,2.2-2.9,3.9-4.9c1.7-2,3.1-3.6,4.4-4.9c0.2-0.2,0.8-0.8,1.7-1.7c0.9-0.9,1.8-1.7,2.7-2.4
				c0.5-0.4,0.9-0.6,1.3-0.6c0.3,0,0.5,0.1,0.7,0.3c0.1,0.1,0.1,0.3,0.1,0.5c0,0.6-0.3,1-0.9,1.2c-0.4,0.2-0.8,0.5-1.2,0.8
				s-0.6,0.6-0.7,0.6c-2.6,2.3-5.4,5.4-8.6,9.4c-1.4,1.7-2.5,3.3-3.4,5c-0.1,0.1-0.1,0.4-0.2,0.8c-0.1,0.4-0.2,0.6-0.3,0.8
				c-0.2,0.3-0.4,0.4-0.7,0.4c-0.3,0-0.6-0.1-0.8-0.3C410.6,31.2,410.5,30.9,410.5,30.5z"/>
			<path d="M455.7,19.8c0.4,0.6,0.6,1.5,0.6,2.5c0,0.8-0.1,1.5-0.4,2.2c-0.4,0.8-1,1.5-1.8,2c-0.8,0.5-1.6,0.8-2.5,0.8
				c-0.8,0-1.5-0.3-2-0.8c-0.6-0.6-1.1-1.3-1.4-2.2c-0.7,0.9-1.2,1.8-1.7,2.8c-0.5,0.9-0.8,1.7-0.9,2.2c-0.1,0.4-0.1,0.7-0.1,0.8
				c0,0.2,0,0.4,0,0.5l0,0.2c0,0.2-0.1,0.4-0.2,0.5c-0.2,0.2-0.4,0.3-0.6,0.3h-0.2c-0.2,0-0.4-0.1-0.6-0.2c-0.2-0.1-0.3-0.3-0.3-0.6
				c0-0.1,0-0.3,0-0.6c0-0.9,0.2-1.8,0.7-2.9s1.2-2.2,2-3.5c0.4-0.7,0.9-1.4,1.5-2.1c0-0.8,0.1-1.5,0.2-2.1c-0.5,0.4-0.8,0.8-1,1.2
				c-0.2,0.4-0.5,0.6-0.9,0.6c-0.3,0-0.6-0.1-0.8-0.3c-0.2-0.2-0.3-0.4-0.3-0.7c0-0.5,0.3-1.1,1-1.6c0.7-0.5,1.5-1,2.5-1.3
				c0.2-0.7,0.5-1.3,0.7-1.8c0.5-1,1-1.8,1.4-2.3c0.4-0.5,0.9-0.9,1.3-1c0.2-0.1,0.4-0.1,0.5-0.1c0.4,0,0.8,0.3,1.2,0.8
				c0.2,0.3,0.2,0.6,0.2,1.1s-0.1,1.1-0.3,1.8c-0.2,0.5-0.4,1-0.6,1.4C454.1,18,455.1,18.8,455.7,19.8z M453.8,24.7
				c0.6-0.8,0.9-1.6,0.9-2.5c0-0.6-0.1-1.2-0.4-1.6c-0.6-0.8-1.3-1.3-2.3-1.5c-0.5,0.9-1.3,1.9-2.3,3.2l-0.3,0.4v0.2
				c0.1,0.7,0.4,1.4,0.8,2.1c0.4,0.6,0.9,1,1.5,1C452.5,25.9,453.2,25.5,453.8,24.7z M449.7,19.1l-0.1,0.2
				C449.7,19.3,449.8,19.2,449.7,19.1L449.7,19.1z M450.3,17.3h0.1h0.6c0.5-0.8,0.9-1.5,1-2c0.1-0.5,0.1-0.8,0-1
				c-0.2,0.1-0.4,0.4-0.7,0.9C450.9,16.1,450.5,16.8,450.3,17.3z M473.5,24.6c0.9,1.5,1.5,2.6,1.8,3.3c0.3,0.6,0.4,1,0.4,1.3
				c0,0.4-0.1,0.6-0.4,0.8c-0.1,0.1-0.3,0.1-0.4,0.1c-0.4,0-0.6-0.2-0.8-0.5c-0.3-0.5-0.8-1.5-1.6-2.9c-0.9-1.8-1.8-3.4-2.6-4.8
				c-0.8-1.3-1.6-2.4-2.2-3.2s-1.2-1.5-1.9-2c-0.4-0.3-0.7-0.5-0.9-0.6c-0.3-0.1-0.5-0.4-0.5-0.8c0-0.4,0.1-0.6,0.3-0.8
				c0.2-0.2,0.4-0.2,0.7-0.2c0.2,0,0.4,0,0.5,0.1c0.6,0.3,1.3,1,2.1,2.1c0.8,1.1,1.9,2.6,3.2,4.5C471.8,21.8,472.6,23,473.5,24.6z
				 M469.1,7.9c-0.2-0.7-0.4-1.4-0.4-2V5.8c0-0.3,0.1-0.5,0.3-0.7c0.2-0.2,0.4-0.3,0.7-0.3h0.1c0.2,0,0.4,0.1,0.6,0.3
				c0.2,0.2,0.3,0.4,0.3,0.7l0,0.8c0,0.1,0,0.4,0.1,0.9c0.1,0.5,0.3,1.1,0.5,1.6c0.2,0.5,0.6,0.9,1,1.3s0.9,0.5,1.3,0.5
				c0.3,0,0.6,0.1,0.8,0.3c0.2,0.2,0.3,0.5,0.3,0.9c0,0.3-0.1,0.5-0.2,0.7c-0.2,0.2-0.4,0.3-0.7,0.3c-0.2,0-0.4,0-0.6-0.1
				c-0.7-0.2-1.3-0.7-2-1.3c-0.5-0.5-0.9-1.1-1.2-1.8C469.6,9.3,469.4,8.6,469.1,7.9z M478.3,8.6c0.2,0,0.4,0.1,0.6,0.3
				c0.2,0.2,0.3,0.5,0.3,0.7c0,0.4-0.1,0.6-0.3,0.8c-0.2,0.2-0.5,0.2-0.8,0.2c-0.4,0-1-0.3-1.8-0.9c-0.8-0.6-1.4-1.3-2-2
				c-1.1-1.5-1.6-2.9-1.6-4.1c0-0.3,0.1-0.5,0.2-0.7c0.1-0.2,0.4-0.3,0.7-0.3h0.1c0.2,0,0.4,0.1,0.6,0.3c0.2,0.2,0.3,0.4,0.3,0.6
				c0.1,1.4,0.5,2.5,1.2,3.3c0.4,0.6,0.9,1,1.3,1.4C477.6,8.4,478,8.6,478.3,8.6L478.3,8.6z"/>
			<path d="M494.4,32.4l-1.5-1.3c0.7-0.1,1.3-0.5,1.8-1.3l0.2-1.5l-4.4-1.1l-0.8,0.2l-1.2-1.1v-0.9c1.1-3.2,1.8-6.6,2-10.2
				c-0.6-0.6-1.3-0.8-2.3-0.6l-4.4,0.8l-1.5-1.2v-0.7c2.8-0.1,5.4-0.5,7.9-1.1c0.5-0.7,0.6-1.6,0.4-2.6l-0.2-0.8l0.5-4.7l0.6-0.2
				c0.6,1.4,0.8,3,0.6,4.9l-0.2,3.6c1.5,0.3,3,0.6,4.6,0.9c2.7,0,5.4-0.1,8.2-0.4l0.8,0.4l0.2,0.7l-5.6,0.8v0.7
				c0.7,0.6,0.9,1.3,0.6,2.1l-2.5,10.2c2.1,0.4,4.1,1.2,6,2.2l-1.3,0.4l-5.6-1.1l-2.1,2.3L494.4,32.4z M496.1,27.1
				c0.8-1.9,1.5-3.8,2.1-5.7c0.6-1.9,0.9-3.9,1-6c-1.5-0.4-3.1-0.7-4.8-0.9l-2.1,0.4l-1.7,10.8C492.5,26.2,494.3,26.6,496.1,27.1z
				 M511.5,40.5l-2.1-0.8c2.4-0.7,4.3-2.2,5.8-4.3l2.7-5l-0.2-0.6l0.7-1.5c0-1.9-0.4-3.5-1.3-4.9c-2.2,0-4.3-0.3-6.2-0.9l-0.2-1h2.1
				L517,22l0.4-0.8c-0.4-1.7-1.2-3.3-2.3-4.7l-1.7-1.7v-1.1l1.9-1.5l0.2-0.6c1.7-1.3,3.1-2.8,4.4-4.5V6.2c-2.3-0.4-4.6-0.6-6.9-0.5
				l-3.2,0.6l-1-0.6l-0.4-1.5h9.2c1.9,0.1,3.7,0.5,5.4,1.1l0.2,0.9l-1.7,1.8l-0.6,0.2l-0.6,1.3l-0.8,0.7l-0.2,0.6
				c-1.4,1-2.5,2.2-3.3,3.6v0.6c1.5,2.3,2.7,4.7,3.5,7.1l2.5,0.1l6-1l1.3,1c-2.5,0.4-5,0.9-7.3,1.5l-0.6-0.2l-1.7,0.4
				c-0.3,2.1-0.3,4.3,0,6.4l-0.6,0.2c-0.3,2.9-1.4,5.3-3.4,7.2L511.5,40.5z"/>
			<path d="M561.6,29.6c0.3,0.2,0.4,0.4,0.4,0.8c0,0.8-0.5,1.2-1.6,1.2l-0.7,0c-2.8-0.2-5-0.5-6.4-1c-1.1-0.3-1.9-0.6-2.6-0.9
				c-0.6-0.3-1.1-0.7-1.4-1.3c-0.1-0.2-0.1-0.3-0.1-0.5c0-0.3,0.1-0.5,0.3-0.6c0.2-0.1,0.3-0.1,0.5-0.1c0.2,0,0.4,0.1,0.5,0.2
				c0.1,0.1,0.2,0.1,0.4,0.1c0.5,0,1-0.4,1.6-1.2c0.6-0.8,1-1.6,1.2-2.5c0.1-0.5,0.1-1,0.1-1.4c0-1-0.2-2.2-0.5-3.4
				c-3.4,0.8-5.5,1.3-6.4,1.6c-0.2,0.1-0.5,0.3-1,0.5c-0.5,0.2-0.9,0.4-1.2,0.4c-0.3,0-0.6-0.1-0.7-0.4c-0.1-0.2-0.1-0.3-0.1-0.5
				c0-0.4,0.2-0.7,0.7-0.9c1-0.4,1.8-0.8,2.4-1c0.7-0.2,1.5-0.5,2.6-0.7l3.2-0.6c0-0.1,0-0.3-0.1-0.5c0-0.2-0.3-1-0.7-2.6l-0.3-1
				c-1.4,0.4-2.7,0.8-4.1,1.4c-0.2,0.1-0.5,0.2-1,0.4s-0.9,0.4-1.2,0.6c-0.4,0.2-0.8,0.5-1.1,0.8c-0.3,0.3-0.5,0.5-0.7,0.6
				c-0.2,0.2-0.4,0.2-0.6,0.2c-0.3,0-0.5-0.1-0.7-0.3c-0.2-0.2-0.3-0.5-0.3-0.7c0-0.3,0.1-0.6,0.4-0.8c0.6-0.5,1.5-1.1,2.8-1.6
				c1.8-0.8,3.1-1.3,3.9-1.5c0.2-0.1,0.5-0.1,0.7-0.2c0.2-0.1,0.4-0.1,0.6-0.2l1-0.3c-0.1-0.7-0.2-1.3-0.2-1.7V9.3
				c0-0.8,0.3-1.2,1-1.2c0.3,0,0.6,0.1,0.8,0.4c0.2,0.2,0.3,0.6,0.2,0.9v0.4c0,0.5,0,0.9,0,1.1c1.6-0.4,3.1-0.5,4.5-0.5
				c0.6,0,1,0.1,1.4,0.3c0.4,0.2,0.6,0.5,0.6,0.8c0,0.3-0.1,0.6-0.3,0.7c-0.2,0.2-0.5,0.2-0.8,0.2c-0.2,0-0.3,0-0.4,0
				c-0.7-0.1-1.2-0.2-1.5-0.2c-0.4,0-0.6,0-0.8,0c-0.8,0.1-1.5,0.2-2.3,0.3c0.4,1.8,0.7,3.2,0.9,4.2c2.9-0.6,4.6-1,5.2-1.2
				c0.2-0.1,0.6-0.3,1-0.5c0.3-0.1,0.5-0.2,0.7-0.2c0.3,0,0.5,0.1,0.7,0.3c0.2,0.2,0.3,0.4,0.3,0.8c0,0.6-0.7,1.1-2,1.4l-5.6,1.1
				c0.4,1.8,0.5,3.2,0.5,4.3c0,1.2-0.2,2.3-0.7,3.5c-0.5,1.1-1.2,1.8-2.2,2.2c1.1,0.4,1.7,0.6,1.8,0.6c1.5,0.4,2.9,0.6,4.2,0.6
				c0.8,0,1.5-0.1,2.2-0.2C561,29.4,561.3,29.4,561.6,29.6z"/>
			<path d="M592,33.5c0.3,0.5,0.5,0.8,0.7,1c0.6,0.6,0.9,1.1,0.9,1.5c0,0.2,0,0.3-0.1,0.4c-0.2,0.3-0.4,0.4-0.7,0.4
				c-0.2,0-0.5-0.1-0.7-0.2c-0.4-0.3-0.8-0.8-1.3-1.5c-0.5-0.7-0.8-1.4-1-2c-0.7-2.4-1.1-4.9-1.1-7.5c0-3.3,0.6-7.2,1.9-11.6l0-0.2
				c-3.1,1-5.3,2.3-6.5,3.8c-0.2,0.3-0.5,0.4-0.8,0.4c-0.1,0-0.3-0.1-0.6-0.2c-0.3-0.2-0.4-0.5-0.4-0.8c0-0.2,0.1-0.4,0.2-0.6
				c0.7-0.7,1.7-1.5,3.1-2.3c1.4-0.8,2.7-1.4,3.8-1.7c0.3-0.1,0.7-0.2,1-0.3c0.3-0.1,0.6-0.2,0.9-0.3c0.7-1.5,1.2-2.6,1.7-3.3
				c0.4-0.7,0.9-1.1,1.4-1.4c0.3-0.2,0.5-0.2,0.8-0.2c0.4,0,0.6,0.2,0.8,0.5c0.1,0.1,0.1,0.3,0.1,0.5c0,0.2,0,0.3-0.1,0.5
				c-0.1,0.2-0.2,0.3-0.4,0.3c-0.1,0-0.3,0.2-0.6,0.4c-0.3,0.2-0.5,0.4-0.5,0.5c-0.2,0.3-0.3,0.5-0.5,0.8c-0.1,0.3-0.3,0.6-0.4,0.8
				c3-0.5,5.4-0.8,7.1-0.8c0.6,0,1.1,0,1.3,0c0.3,0,0.5,0.1,0.7,0.3c0.2,0.2,0.3,0.4,0.3,0.6c0,0.3-0.1,0.5-0.3,0.7
				c-0.2,0.2-0.5,0.3-0.8,0.3c-0.2,0-0.4,0-0.6-0.1c-0.4-0.1-0.9-0.1-1.6-0.1c-1,0-2.1,0.1-3.5,0.2s-2.5,0.4-3.4,0.6
				c-0.3,0.6-0.4,1-0.5,1.3c-1.3,4.2-1.9,8.1-1.9,11.6c0,2.5,0.3,4.6,1,6.4C591.5,32.7,591.7,33.1,592,33.5z M608,24.3
				c0.2,0.3,0.2,0.6,0.1,0.9c0,0.2-0.1,0.4-0.3,0.6c-0.2,0.2-0.3,0.3-0.4,0.4c-0.6,0.5-1.4,0.9-2.3,1.2c-0.9,0.3-1.8,0.4-2.7,0.4
				c-0.8,0-1.4-0.1-2-0.3c-0.1-0.1-0.2-0.2-0.3-0.3c-0.1-0.1-0.1-0.3-0.1-0.4c0-0.3,0.1-0.5,0.3-0.6c0.2-0.2,0.4-0.3,0.6-0.3
				c0.1,0,0.3,0,0.5,0h0.5c0.2,0,0.4,0,0.5-0.1c0.4-0.3,0.8-0.8,1.1-1.6c0.3-0.8,0.5-1.6,0.5-2.3c0-0.9-0.3-1.4-1-1.7
				c-0.2-0.1-0.5-0.1-0.8-0.1c-0.9,0-1.7,0.3-2.4,0.9c-0.8,0.7-1.3,1.3-1.4,2c-0.1,0.2-0.2,0.4-0.4,0.6c-0.2,0.1-0.4,0.2-0.6,0.2
				c-0.3,0-0.6-0.1-0.8-0.4c-0.2-0.3-0.3-0.6-0.2-0.9c0.1-0.5,0.4-1,0.8-1.6c0.4-0.6,0.9-1.1,1.5-1.5c1.2-0.8,2.4-1.2,3.5-1.2
				c0.8,0,1.5,0.2,2.1,0.6c0.4,0.3,0.7,0.7,0.9,1.1c0.2,0.4,0.3,0.9,0.3,1.5c0,0.4,0,0.6,0,0.8c-0.1,0.6-0.3,1.3-0.6,2.1
				c-0.3,0.8-0.6,1.4-1,1.8c1.4-0.2,2.2-0.7,2.5-1.5c0.1-0.2,0.2-0.4,0.4-0.5c0.2-0.1,0.4-0.2,0.6-0.2
				C607.5,23.9,607.8,24.1,608,24.3z M615,9.7l0,0.2c0,0.2-0.1,0.4-0.3,0.6c-0.2,0.2-0.4,0.3-0.6,0.3c-1.2,0.1-2.4-0.5-3.4-1.8
				c-0.5-0.6-0.9-1.4-1.2-2.2c-0.3-0.8-0.4-1.7-0.4-2.6v0c0-0.3,0.1-0.5,0.3-0.7c0.2-0.2,0.4-0.3,0.7-0.3c0.3,0,0.5,0.1,0.7,0.3
				c0.2,0.2,0.3,0.4,0.3,0.7c0,0.1,0,0.4,0,0.8s0,0.8,0.1,1.2c0.1,0.4,0.2,0.8,0.5,1.2c0.5,1,1.2,1.4,2,1.4
				C614.4,8.9,614.8,9.1,615,9.7z M619.8,6.7c0.2,0.2,0.3,0.5,0.3,0.7c0,0.3-0.1,0.5-0.2,0.6c-0.2,0.2-0.4,0.2-0.7,0.2
				c-1,0-2-0.5-3-1.6c-1-1.1-1.7-2.2-2.2-3.3c-0.4-0.9-0.6-1.7-0.6-2.3c0-0.3,0.1-0.5,0.2-0.7c0.2-0.2,0.4-0.3,0.6-0.4h0.1
				c0.3,0,0.5,0.1,0.7,0.3c0.2,0.2,0.3,0.4,0.3,0.6c0,1.4,0.4,2.5,1.1,3.4c1.1,1.3,2,2,2.7,2C619.4,6.3,619.6,6.4,619.8,6.7z"/>
			<path d="M637.7,26.8c0.3,0.7,0.5,1.5,0.5,2.3c0,0.8-0.2,1.8-0.5,2.8c-0.8,2.1-2.3,3.9-4.5,5.5c-0.6,0.4-1,0.6-1.4,0.6
				c-0.3,0-0.5-0.1-0.6-0.3c-0.1-0.2-0.1-0.4-0.1-0.5c0-0.4,0.3-0.8,0.8-1.1c0.1-0.1,0.3-0.2,0.6-0.4c-2.8-0.9-4.1-2.5-4.1-4.7
				c0-0.7,0.1-1.4,0.4-2.1c0.3-0.7,0.7-1.3,1.1-1.8c0.5-0.6,1.2-1.1,2-1.5c0.8-0.4,1.6-0.6,2.5-0.6c0.6,0,1.2,0.1,1.8,0.4
				C636.8,25.7,637.3,26.2,637.7,26.8z M636.7,29.3c0-0.9-0.2-1.6-0.6-2c-0.4-0.4-1-0.6-1.7-0.6c-0.5,0-1.1,0.1-1.7,0.4
				c-0.6,0.2-1.1,0.6-1.5,0.9c-0.4,0.4-0.7,0.9-1,1.4c-0.2,0.5-0.4,1.1-0.4,1.6c0,0.9,0.3,1.5,0.9,2c0.4,0.3,0.9,0.6,1.7,0.8
				c0.2,0.1,0.5,0.1,0.9,0.2c0.4,0.1,0.7,0.1,0.9,0.2C635.9,32.4,636.7,30.7,636.7,29.3z"/>
		</g>
	</g>
</g>
</svg>
